<svg xmlns="http://www.w3.org/2000/svg" width="32" height="32" viewBox="0 0 32 32">
  <g fill="none" fill-rule="evenodd">
    <polygon points="0 0 32 0 32 32 0 32"/>
    <g fill="#000" fill-rule="nonzero" transform="translate(0 8)">
      <circle cx="16" cy="10" r="1"/>
      <path d="M32,1 L32,0 L22,0 L22,1 L26,1.8 L26,4 L6,4 L6,1.8 L10,1 L10,0 L0,0 L0,1 L4,1.8 L4,4 L2,4 L2,9 L6.913,10.164 L5.038,16.725 L6.961,17.274 L8.857,10.64 L10,10.92 L11,15 L21,15 L22,10.903 L23.138,10.624 L25.038,17.274 L26.962,16.725 L25.083,10.147 L30,9 L30,4 L28,4 L28,1.8 L32,1 Z M28.045,6 L28.024,7.368 L21.524,8.96 L20.345,9.249 L20.057,10.429 L19.429,13 L12.569,13 L11.942,10.444 L11.653,9.266 L10.475,8.978 L3.948,7.38 L3.969,6 L28.045,6 Z"/>
    </g>
  </g>
</svg>
