<svg xmlns="http://www.w3.org/2000/svg" width="32" height="32" viewBox="0 0 32 32">
  <g fill="none" fill-rule="evenodd">
    <polygon points="0 0 32 0 32 32 0 32"/>
    <g fill="#000" fill-rule="nonzero">
      <path d="M26.941,16.565 L28.41,15.096 C30.08,13.426 31,11.205 31,8.843 C31,6.481 30.08,4.26 28.41,2.59 C26.74,0.92 24.519,0 22.156,0 C19.794,0 17.573,0.92 15.903,2.59 L15.5,2.993 L15.097,2.59 C13.427,0.92 11.206,0 8.844,0 C6.481,0 4.261,0.92 2.59,2.59 C0.92,4.261 0,6.481 0,8.844 C0,11.207 0.92,13.427 2.59,15.097 L4.405,16.912 L14.087,26.594 L15.499,28.006 L16.564,26.941 C17.738,29.903 20.621,32 24,32 C28.418,32 32,28.418 32,24 C32,20.621 29.903,17.738 26.941,16.565 Z M15.5,25.182 L5.818,15.5 L4.003,13.685 C1.329,11.011 1.329,6.677 4.003,4.003 C5.34,2.666 7.092,1.998 8.844,1.998 C10.596,1.998 12.348,2.666 13.685,4.003 L15.5,5.818 L17.315,4.003 C18.652,2.666 20.404,1.998 22.156,1.998 C23.908,1.998 25.66,2.666 26.997,4.003 C29.671,6.677 29.671,11.011 26.997,13.685 L25.182,15.5 L24.649,16.033 C24.435,16.016 24.219,16 24,16 C19.582,16 16,19.582 16,24 C16,24.219 16.016,24.435 16.033,24.649 L15.5,25.182 Z M24,30 C20.692,30 18,27.308 18,24 C18,20.692 20.692,18 24,18 C27.308,18 30,20.692 30,24 C30,27.308 27.308,30 24,30 Z"/>
      <polygon points="25 20 23 20 23 23 20 23 20 25 23 25 23 28 25 28 25 25 28 25 28 23 25 23"/>
    </g>
  </g>
</svg>
