<svg xmlns="http://www.w3.org/2000/svg" width="32" height="32" viewBox="0 0 32 32">
  <g fill="none" fill-rule="evenodd">
    <polygon points="0 0 32 0 32 32 0 32"/>
    <g fill="#000" fill-rule="nonzero" transform="translate(2 1)">
      <path d="M24.835,6 L23.847,0 L4.153,0 L3.153,6 L0,6 L0,13 L2,13 L2,8 L3.013,8 L3,30 L7.781,30 L8.781,26 L19.22,26 L20.219,30 L25,30 L25,8 L26,8 L26,13 L28,13 L28,6 L24.835,6 Z M5,19 L23,19 L23,24 L5,24 L5,19 Z M5,17 L5,8 L23,8 L23,17 L5,17 Z M22.153,2 L22.819,6 L5.181,6 L5.848,2 L22.153,2 Z M6.219,28 L5,28 L5,26 L6.719,26 L6.219,28 Z M21.781,28 L21.28,26 L23,26 L23,28 L21.781,28 Z"/>
      <circle cx="7.5" cy="21.5" r="1.5"/>
      <circle cx="20.5" cy="21.5" r="1.5"/>
    </g>
  </g>
</svg>
