<svg xmlns="http://www.w3.org/2000/svg" width="32" height="32" viewBox="0 0 32 32">
  <g fill="none" fill-rule="evenodd">
    <polygon points="0 0 32 0 32 32 0 32"/>
    <g fill="#000" fill-rule="nonzero" transform="translate(8 2)">
      <circle cx="9.5" cy="2.5" r="2.5"/>
      <path d="M11.888,15.994 C11.613,15.726 11.316,15.481 11,15.26 L11,7 L5.313,7 L2.921,13.221 L3.627,14.867 C1.465,16.059 0,18.357 0,21 C0,24.866 3.134,28 7,28 C10.866,28 14,24.866 14,21 C14,20.095 13.823,19.233 13.51,18.439 L15,18.791 L15,26 L17,26 L17,17.209 L11.888,15.994 Z M5.079,13.18 L6.687,9 L9,9 L9,14.294 C8.366,14.105 7.695,14 7,14 C6.485,14 5.985,14.059 5.501,14.165 L5.079,13.18 Z M7,26 C4.243,26 2,23.757 2,21 C2,19.187 2.979,17.612 4.427,16.735 L6.081,20.594 L7.919,19.807 L6.317,16.069 C6.543,16.038 6.766,16 7,16 C9.757,16 12,18.243 12,21 C12,23.757 9.757,26 7,26 Z"/>
    </g>
  </g>
</svg>
