<svg xmlns="http://www.w3.org/2000/svg" width="32" height="32" viewBox="0 0 32 32">
  <g fill="none" fill-rule="evenodd">
    <polygon points="0 0 32 0 32 32 0 32"/>
    <g fill="#000" fill-rule="nonzero" transform="translate(2)">
      <path d="M23.373,3.882 C20.784,1.294 17.392,0 14,0 C10.608,0 7.216,1.294 4.627,3.882 L4.627,3.882 C-0.549,9.058 -0.549,17.451 4.627,22.627 L14,32 L23.373,22.627 C28.549,17.451 28.549,9.059 23.373,3.882 Z M21.958,21.213 L14,29.172 L6.042,21.214 C1.654,16.826 1.654,9.685 6.042,5.297 C8.167,3.171 10.994,2 14,2 C17.006,2 19.833,3.171 21.958,5.296 C26.347,9.685 26.347,16.825 21.958,21.213 Z"/>
      <circle cx="14" cy="13.1" r="3"/>
    </g>
  </g>
</svg>
