<svg xmlns="http://www.w3.org/2000/svg" width="32" height="32" viewBox="0 0 32 32">
  <g fill="none" fill-rule="evenodd">
    <polygon points="0 0 32 0 32 32 0 32"/>
    <g fill="#000" fill-rule="nonzero" transform="translate(4)">
      <path d="M20.712,5 L20.449,0 L3.551,0 L3.288,5 L0,5 L0,12 L2,12 L2,7 L3.183,7 L2.496,20.057 L3.653,27 L20.347,27 L21.504,20.057 L20.817,7 L22,7 L22,12 L24,12 L24,5 L20.712,5 Z M19.446,19 L4.554,19 L5.186,7 L18.815,7 L19.446,19 Z M18.551,2 L18.709,5 L5.291,5 L5.449,2 L18.551,2 Z M5.347,25 L5.162,23.887 L8.5,23.317 L8.5,22 L4.847,22 L4.68,21 L19.32,21 L19.153,22 L15.5,22 L15.5,23.317 L18.839,23.887 L18.653,25 L5.347,25 Z"/>
      <polygon points="3.823 32 5.977 32 7.177 28 5.023 28"/>
      <polygon points="16.5 28 17.7 32 19.854 32 18.654 28"/>
    </g>
  </g>
</svg>
