<svg xmlns="http://www.w3.org/2000/svg" width="32" height="32" viewBox="0 0 32 32">
  <g fill="none" fill-rule="evenodd">
    <polygon points="0 0 32 0 32 32 0 32"/>
    <g fill="#000" fill-rule="nonzero" transform="translate(0 1)">
      <path d="M25.331,8.163 L26.085,5.845 L24.772,5.27 L23.079,8.543 L20.883,11.452 L19.707,10.276 L18.293,11.69 L19.667,13.064 L18.758,13.984 L5.477,14 L1.54,10.706 L0.476,11.699 L4,15.251 L4,29 L6,29 L6,26.541 L9.376,22.02 L22,24.765 L22,28.983 L24,28.983 L24,18.316 L24.394,17.791 L25.293,18.69 L26.707,17.276 L25.606,16.175 L26.557,14.908 L28.899,14.54 C30.725,14.083 32,12.449 32,10.567 L32,9.116 L25.331,8.163 Z M22,17.65 L22,22.702 L8.672,19.784 L6,23.496 L6,16 L19.71,15.983 L21.095,14.491 L22.966,16.362 L22,17.65 Z M28.501,12.581 L25.444,13.058 L24.177,14.747 L22.311,12.881 L24.443,10.057 L29.981,10.848 C29.869,11.689 29.264,12.387 28.501,12.581 Z"/>
      <rect width="2" height="12.021" x="12.238" y="-.789" transform="rotate(-45 13.238 5.222)"/>
    </g>
  </g>
</svg>
