<svg xmlns="http://www.w3.org/2000/svg" width="32" height="32" viewBox="0 0 32 32">
  <g fill="none" fill-rule="evenodd">
    <polygon points="0 0 32 0 32 32 0 32"/>
    <path fill="#000" fill-rule="nonzero" d="M25.5,13 C24.992,13 24.5,13.064 24.026,13.174 L21.874,7.053 L24.809,6.319 L24.325,4.379 L19.26,5.645 L20.306,8.621 L9.514,10.215 L14.516,18.495 L12.914,18.495 C12.43,15.384 9.747,13 6.5,13 C2.91,13 0,15.91 0,19.5 C0,23.09 2.91,26 6.5,26 C9.751,26 12.436,23.611 12.916,20.495 L17.739,20.495 L20.783,10.572 L20.981,10.543 L22.17,13.925 C20.274,15.06 19,17.129 19,19.5 C19,23.09 21.91,26 25.5,26 C29.09,26 32,23.09 32,19.5 C32,15.91 29.09,13 25.5,13 Z M6.5,24 C4.019,24 2,21.981 2,19.5 C2,17.019 4.019,15 6.5,15 C8.981,15 11,17.019 11,19.5 C11,21.981 8.981,24 6.5,24 Z M16.46,17.845 L12.781,11.754 L18.592,10.896 L16.46,17.845 Z M25.5,24 C23.019,24 21,21.981 21,19.5 C21,17.019 23.019,15 25.5,15 C27.981,15 30,17.019 30,19.5 C30,21.981 27.981,24 25.5,24 Z"/>
    <rect width="6" height="2" x="6" y="6" fill="#000" fill-rule="nonzero"/>
    <circle cx="6.5" cy="19.5" r="1.5" fill="#000" fill-rule="nonzero"/>
    <circle cx="25.5" cy="19.5" r="1.5" fill="#000" fill-rule="nonzero"/>
  </g>
</svg>
