<svg xmlns="http://www.w3.org/2000/svg" width="32" height="32" viewBox="0 0 32 32">
  <g fill="none" fill-rule="evenodd">
    <polygon points="0 0 32 0 32 32 0 32"/>
    <path fill="#000" fill-rule="nonzero" d="M13.21 13.419L5.974 9.44 10.081 2.036 21.672 2.036 25.533 8.126 23.396 13.255 18.504 12.176 16.12 8.295 13.21 13.419zM19.753 10.421L22.205 10.962 23.309 8.314 20.584 4.016 15.817 4.016 19.753 10.421zM8.672 8.662L12.453 10.741 14.936 6.368 13.491 4.017 11.249 4.017 8.672 8.662zM26.214 29.964L19.224 29.964 15.196 25.948 19.005 21.615 23.57 21.489 20.587 16.407 27.65 12.13 32 19.377 26.214 29.964zM20.043 27.983L25.04 27.983 27.564 23.362 19.922 23.572 17.912 25.859 20.043 27.983zM23.284 17.09L25.83 21.427 28.664 21.349 29.717 19.423 26.974 14.856 23.284 17.09zM14.267 29.964L5.794 29.964 0 19.873 3.698 13.15 9.21 12.28 10.344 17.61 8.202 21.567 14.095 21.525 14.267 29.964zM6.942 27.983L12.245 27.983 12.154 23.52 7.126 23.556 5.803 26 6.942 27.983zM2.273 19.852L4.644 23.98 8.255 17.307 7.663 14.53 4.967 14.956 2.273 19.852z"/>
  </g>
</svg>
