<svg xmlns="http://www.w3.org/2000/svg" width="32" height="32" viewBox="0 0 32 32">
  <g fill="none" fill-rule="evenodd">
    <polygon points="0 0 32 0 32 32 0 32"/>
    <path fill="#000" fill-rule="nonzero" d="M8.837 21.012L8.837 22.805 15.288 22.805 15.288 20.838 11.773 20.838 13.764 18.936C14.468 18.29 15.276 17.377 15.276 16.056 15.276 14.365 13.947 13.184 12.044 13.184 10.331 13.184 8.957 14.357 8.777 15.973L8.745 16.259 10.785 16.574 10.826 16.271C10.865 15.979 11.067 15.027 12.02 15.027 12.509 15.027 12.894 15.258 13.051 15.646 13.277 16.201 13.003 16.929 12.32 17.594L8.837 21.012zM20.091 13.408L16.212 19.272 16.212 20.978 20.274 20.978 20.274 22.805 22.34 22.805 22.34 20.978 23.569 20.978 23.569 19.099 22.34 19.099 22.34 13.408 20.091 13.408zM20.274 19.099L18.597 19.099 20.274 16.455 20.274 19.099z"/>
    <path fill="#000" fill-rule="nonzero" d="M25.948,8.149 L24.526,9.556 C26.767,11.818 28,14.817 28,18 C28,24.617 22.617,30 16,30 C9.383,30 4,24.617 4,18 C4,11.606 9.031,6.379 15.34,6.033 L15.34,10 L22,6.155 L22,3.845 L15.34,0 L15.34,4.033 C7.927,4.382 2,10.503 2,18 C2,25.72 8.28,32 16,32 C23.72,32 30,25.72 30,18 C30,14.286 28.561,10.788 25.948,8.149 Z"/>
  </g>
</svg>
