<svg xmlns="http://www.w3.org/2000/svg" width="32" height="32" viewBox="0 0 32 32">
  <g fill="none" fill-rule="evenodd">
    <polygon points="0 0 32 0 32 32 0 32"/>
    <polygon fill="#000" fill-rule="nonzero" points="17.586 11.986 16.215 9.291 17.523 5.27 16.549 3.354 18.331 2.447 19.682 5.101 18.373 9.122 19.369 11.079"/>
    <polygon fill="#000" fill-rule="nonzero" points="12.783 11.986 11.412 9.291 12.72 5.27 11.746 3.354 13.528 2.447 14.878 5.101 13.57 9.122 14.565 11.079"/>
    <rect width="26" height="2" x="3" y="27" fill="#000" fill-rule="nonzero"/>
    <path fill="#000" fill-rule="nonzero" d="M5,14 L5,15 C5,20.556 9.52,25.076 15.075,25.076 C20.293,25.076 24.596,21.089 25.1,16 L27,15.946 L27,18.946 L29,19 L29,14 L5,14 Z M15.075,23.076 C10.961,23.076 7.556,19.983 7.062,16 L23.089,16 C22.594,19.983 19.189,23.076 15.075,23.076 Z"/>
  </g>
</svg>
