<svg xmlns="http://www.w3.org/2000/svg" width="32" height="32" viewBox="0 0 32 32">
  <g fill="none" fill-rule="evenodd">
    <polygon points="0 0 32 0 32 32 0 32"/>
    <g fill="#000" fill-rule="nonzero" transform="translate(1 1)">
      <path d="M29.022,17.163 L25.995,15.009 L25.995,14.5 L23.995,4.5 L19.995,4.5 L19.995,0.5 L9.995,0.5 L9.995,4.5 L5.995,4.5 L3.995,14.5 L3.995,14.959 L1.004,17.083 L0.978,27.459 L3.996,27.468 L3.996,29.5 L25.996,29.5 L25.996,27.532 L28.997,27.541 L29.022,17.163 Z M11.995,2.5 L17.995,2.5 L17.995,4.5 L11.995,4.5 L11.995,2.5 L11.995,2.5 Z M22.356,6.5 L23.224,10.841 L20.633,13 L8.909,13 L6.764,10.855 L7.635,6.5 L22.356,6.5 Z M2.983,25.465 L3.002,18.118 L3.996,17.412 L3.996,25.468 L2.983,25.465 Z M23.995,27.5 L5.995,27.5 L5.995,14.698 L6.292,13.211 L8.081,15 L21.357,15 L23.67,13.073 L23.995,14.699 L23.995,27.5 L23.995,27.5 Z M27.002,25.535 L25.996,25.532 L25.996,17.463 L27.021,18.192 L27.002,25.535 Z"/>
      <rect width="10" height="2" x="9.995" y="18.5"/>
    </g>
  </g>
</svg>
