<svg xmlns="http://www.w3.org/2000/svg" width="32" height="32" viewBox="0 0 32 32">
  <g fill="none" fill-rule="evenodd">
    <polygon points="0 0 32 0 32 32 0 32"/>
    <g fill="#000" fill-rule="nonzero" transform="translate(1 1)">
      <circle cx="15" cy="11.3" r="3.7"/>
      <path d="M15,0 C6.716,0 0,6.716 0,15 C0,23.284 6.716,30 15,30 C23.284,30 30,23.284 30,15 C30,6.716 23.284,0 15,0 Z M8.075,25.983 L10.693,19 L19.307,19 L21.925,25.983 C19.917,27.253 17.547,28 15,28 C12.453,28 10.083,27.253 8.075,25.983 Z M23.592,24.73 L20.693,17 L9.307,17 L6.408,24.73 C3.712,22.346 2,18.873 2,15 C2,7.832 7.832,2 15,2 C22.168,2 28,7.832 28,15 C28,18.873 26.288,22.346 23.592,24.73 Z"/>
    </g>
  </g>
</svg>
