<svg xmlns="http://www.w3.org/2000/svg" width="32" height="32" viewBox="0 0 32 32">
  <path fill="#2A2859" fill-rule="evenodd" d="M16,1 C24.284,1 31,7.716 31,16 C31,24.284 24.284,31 16,31 C7.716,31 1,24.284 1,16 C1,7.716 7.716,1 16,1 Z M16,29 C23.1797017,29 29,23.1797017 29,16 C29,8.82029825 23.1797017,3 16,3 C8.82029825,3 3,8.82029825 3,16 C3,23.1797017 8.82029825,29 16,29 Z M14.8387097,19 L14.5,7 L17.5,7 L17.1370968,19 L14.8387097,19 Z M16,25 C14.8571429,25 14,24.1190476 14,23 C14,21.8809524 14.8571429,21 16,21 C17.1428571,21 18,21.8809524 18,23 C18,24.1190476 17.1428571,25 16,25 Z"/>
</svg>
