<svg xmlns="http://www.w3.org/2000/svg" width="32" height="32" viewBox="0 0 32 32">
  <g fill="none" fill-rule="evenodd">
    <polygon points="0 0 32 0 32 32 0 32"/>
    <g fill="#000" fill-rule="nonzero">
      <rect width="22" height="2" y="26"/>
      <path d="M0,19 L0,21 L3,21 L3,22 L0,22 L0,24 L3,24 L3,25 L5,25 L5,24 L17,24 L17,25 L19,25 L19,24 L22,24 L22,22 L19,22 L19,21 L22,21 L22,19 L0,19 Z M17,22 L5,22 L5,21 L17,21 L17,22 Z"/>
      <rect width="2" height="3" x="3" y="29"/>
      <rect width="2" height="3" x="17" y="29"/>
      <path d="M32 7C32 3.134 28.866 0 25 0 21.134 0 18 3.134 18 7 18 10.526 20.609 13.434 24 13.92L24 32 26 32 26 19.914 29.207 16.707 27.793 15.293 26 17.086 26 13.92C29.391 13.434 32 10.526 32 7zM20 7C20 4.243 22.243 2 25 2 27.757 2 30 4.243 30 7 30 9.757 27.757 12 25 12 22.243 12 20 9.757 20 7zM7.199 7.602L7.503 8 8.501 8 8.801 7.601C9.565 6.586 10.731 6.004 12 6.003L11.999 4.003C10.496 4.003 9.089 4.548 8 5.528 6.911 4.549 5.503 4.004 4 4.003L4 6.003C5.269 6.004 6.435 6.586 7.199 7.602z"/>
    </g>
  </g>
</svg>
