<svg xmlns="http://www.w3.org/2000/svg" width="32" height="32" viewBox="0 0 32 32">
  <g fill="none" fill-rule="evenodd">
    <polygon points="0 0 32 0 32 32 0 32"/>
    <g fill="#000" fill-rule="nonzero" transform="translate(1 1)">
      <path d="M30,13 L30,7.5 L15,0 L0,7.5 L0,13 L3,13 L3,24 L0,24 L0,30 L30,30 L30,24 L27,24 L27,13 L30,13 Z M28,26 L28,28 L2,28 L2,26 L28,26 Z M5,24 L5,13 L7,13 L7,24 L5,24 Z M9,24 L9,13 L12,13 L12,24 L9,24 Z M14,24 L14,13 L16,13 L16,24 L14,24 Z M18,24 L18,13 L21,13 L21,24 L18,24 Z M23,24 L23,13 L25,13 L25,24 L23,24 Z M2,11 L2,8.736 L15,2.236 L28,8.736 L28,11 L2,11 Z"/>
      <polygon points="15.026 8.118 14.996 8.118 13.802 4.755 12 4.755 12 10 13.193 10 13.163 6.289 13.185 6.289 14.511 10 15.4 10 16.763 6.289 16.785 6.289 16.756 10 18 10 18 4.755 16.168 4.755"/>
    </g>
  </g>
</svg>
