<svg xmlns="http://www.w3.org/2000/svg" width="32" height="32" viewBox="0 0 32 32">
  <g fill="none" fill-rule="evenodd">
    <polygon points="0 0 32 0 32 32 0 32"/>
    <path fill="#000" fill-rule="nonzero" d="M21.5,17 L27.5,17 L27.5,12 C27.5,5.383 22.117,0 15.5,0 C8.883,0 3.5,5.383 3.5,12 L3.5,32 L9.5,32 L9.5,12 C9.5,8.691 12.191,6 15.5,6 C18.809,6 21.5,8.691 21.5,12 L21.5,17 Z M23.5,15 L23.5,13 L25.5,13 L25.5,15 L23.5,15 Z M15.5,4 C11.089,4 7.5,7.589 7.5,12 L7.5,30 L5.5,30 L5.5,12 C5.5,6.486 9.986,2 15.5,2 C20.676,2 24.946,5.954 25.449,11 L23.43,11 C22.936,7.06 19.572,4 15.5,4 Z"/>
    <path fill="#000" fill-rule="nonzero" d="M27.328,21.172 L24.5,18.344 L21.672,21.172 C20.916,21.927 20.5,22.932 20.5,24 C20.5,25.068 20.916,26.073 21.672,26.828 C22.427,27.584 23.432,28 24.5,28 C25.568,28 26.573,27.584 27.328,26.828 C28.084,26.073 28.5,25.068 28.5,24 C28.5,22.932 28.084,21.927 27.328,21.172 Z M25.914,25.414 C25.158,26.17 23.842,26.17 23.086,25.414 C22.708,25.036 22.5,24.534 22.5,24 C22.5,23.466 22.708,22.964 23.086,22.586 L24.5,21.172 L25.914,22.586 C26.292,22.964 26.5,23.466 26.5,24 C26.5,24.534 26.292,25.036 25.914,25.414 Z"/>
  </g>
</svg>
