<svg xmlns="http://www.w3.org/2000/svg" width="32" height="32" viewBox="0 0 32 32">
  <g fill="none" fill-rule="evenodd">
    <polygon points="0 0 32 0 32 32 0 32"/>
    <path fill="#000" fill-rule="nonzero" d="M7.5 12.5C3.294 12.5 0 14.477 0 17 0 17.169 0 27.5 0 27.5 0 30.023 3.294 32 7.5 32 11.706 32 15 30.023 15 27.5 15 27.5 15 17.169 15 17 15 14.477 11.706 12.5 7.5 12.5zM13 27.5C13 28.68 10.648 30 7.5 30 4.352 30 2 28.68 2 27.5L2 27.082C3.36 27.957 5.303 28.5 7.5 28.5 9.697 28.5 11.64 27.957 13 27.082L13 27.5zM13 24C13 25.18 10.648 26.5 7.5 26.5 4.352 26.5 2 25.18 2 24L2 23.582C3.36 24.457 5.303 25 7.5 25 9.697 25 11.64 24.457 13 23.582L13 24zM13 20.5C13 21.68 10.648 23 7.5 23 4.352 23 2 21.68 2 20.5L2 20.082C3.36 20.957 5.303 21.5 7.5 21.5 9.697 21.5 11.64 20.957 13 20.082L13 20.5zM7.5 19.5C4.352 19.5 2 18.18 2 17 2 15.82 4.352 14.5 7.5 14.5 10.648 14.5 13 15.82 13 17 13 18.18 10.648 19.5 7.5 19.5zM24.5 0C20.294 0 17 1.977 17 4.5 17 4.669 17 22 17 22 17 24.523 20.294 26.5 24.5 26.5 28.706 26.5 32 24.523 32 22 32 22 32 4.669 32 4.5 32 1.977 28.706 0 24.5 0zM30 22C30 23.18 27.647 24.5 24.5 24.5 21.353 24.5 19 23.18 19 22L19 21.582C20.36 22.457 22.302 23 24.5 23 26.698 23 28.64 22.457 30 21.582L30 22zM30 18.5C30 19.68 27.647 21 24.5 21 21.353 21 19 19.68 19 18.5L19 18.082C20.36 18.957 22.302 19.5 24.5 19.5 26.698 19.5 28.64 18.957 30 18.082L30 18.5zM30 15C30 16.18 27.647 17.5 24.5 17.5 21.353 17.5 19 16.18 19 15L19 14.582C20.36 15.457 22.302 16 24.5 16 26.698 16 28.64 15.457 30 14.582L30 15zM30 11.5C30 12.68 27.647 14 24.5 14 21.353 14 19 12.68 19 11.5L19 11.082C20.36 11.957 22.302 12.5 24.5 12.5 26.698 12.5 28.64 11.957 30 11.082L30 11.5zM30 8C30 9.18 27.647 10.5 24.5 10.5 21.353 10.5 19 9.18 19 8L19 7.582C20.36 8.457 22.302 9 24.5 9 26.698 9 28.64 8.457 30 7.582L30 8zM24.5 7C21.353 7 19 5.68 19 4.5 19 3.32 21.353 2 24.5 2 27.647 2 30 3.32 30 4.5 30 5.68 27.647 7 24.5 7z"/>
  </g>
</svg>
