<svg xmlns="http://www.w3.org/2000/svg" width="32" height="32" viewBox="0 0 32 32">
  <g fill="none" fill-rule="evenodd">
    <polygon points="0 0 32 0 32 32 0 32"/>
    <g fill="#000" fill-rule="nonzero" transform="translate(4 1)">
      <path d="M11.9,13.184 C10.323,11.608 7.759,11.607 6.184,13.184 C4.608,14.76 4.608,17.324 6.184,18.9 L12,24.717 L17.816,18.901 C19.391,17.325 19.391,14.76 17.816,13.185 C16.24,11.609 13.675,11.609 12.099,13.185 L11.999,13.285 L11.9,13.184 Z M13.514,14.598 C14.311,13.802 15.606,13.802 16.403,14.598 C17.199,15.394 17.199,16.69 16.403,17.486 L12,21.889 L7.598,17.487 C6.802,16.69 6.802,15.395 7.598,14.599 C7.996,14.201 8.519,14.002 9.042,14.002 C9.565,14.002 10.088,14.201 10.486,14.599 L12,16.112 L13.514,14.598 Z"/>
      <path d="M12,0 L6.646,4.461 L5.781,1 L0,1 L0,31 L24,31 L24,10 L12,0 Z M2,3 L4.219,3 L4.94,5.883 L2,8.333 L2,3 Z M22,29 L2,29 L2,10.937 L12,2.604 L22,10.937 L22,29 Z"/>
    </g>
  </g>
</svg>
