<svg xmlns="http://www.w3.org/2000/svg" viewBox="0 0 369 154">
  <path
    d="M101.5 33.8L99.4 32.5C96.2 30.5 92.8 28.7 89.3 27.2C87.8 26.6 86.3 26 84.8 25.5C81.2 24.3 77.5 23.4 73.7 22.8C72.1 22.5 70.5 22.4 68.9 22.2C65.1 21.9 61.3 21.9 57.5 22.2C55.9 22.3 54.3 22.5 52.7 22.8C48.9 23.4 45.2 24.3 41.6 25.5C40.1 26 38.6 26.6 37.1 27.2H37C33.5 28.7 30.1 30.5 26.9 32.5L24.8 33.8L14.7 14.3L16.5 13.2C19.9 11.1 23.5 9.2 27.2 7.6L29.1 6.7L32.8 13.7C33.8 13.3 34.9 12.9 35.9 12.5L34 4.8L36 4.2C39.8 3 43.8 2 47.7 1.3L49.8 0.900002L51.7 8.6C51.9 8.6 52.1 8.5 52.2 8.5C53.1 8.4 54.1 8.3 55 8.2V0.300003L57.1 0.200005C59.1 0.100005 61.1 0 63.1 0C65.1 0 67.1 0.100005 69.1 0.200005L71.2 0.300003V8.2C72.3 8.3 73.4 8.4 74.5 8.6L76.4 0.900002L78.5 1.3C82.5 2 86.4 3 90.2 4.2L92.2 4.8L90.3 12.5C91.4 12.9 92.4 13.3 93.4 13.7L97.1 6.7L99 7.6C102.7 9.2 106.3 11.1 109.7 13.2L111.5 14.3L101.5 33.8ZM20.7 15.9L26.7 27.4C29.5 25.7 32.4 24.3 35.4 23H35.5C37 22.3 38.7 21.7 40.3 21.2C44.1 19.9 48.1 18.9 52.1 18.3C53.8 18 55.5 17.8 57.2 17.7C61.2 17.4 65.3 17.4 69.4 17.7C71.1 17.8 72.8 18.1 74.5 18.3C78.5 18.9 82.5 19.9 86.3 21.2C87.9 21.7 89.5 22.4 91.1 23H91.2C94.2 24.3 97.1 25.7 99.9 27.4L105.9 15.9C103.8 14.7 101.6 13.5 99.5 12.5L95.9 19.5L94 18.7C93.7 18.6 93.5 18.5 93.2 18.4C91.3 17.6 89.3 16.8 87.3 16.2L85.3 15.5L87.2 7.9C84.9 7.2 82.5 6.6 80.1 6.2L78.2 13.8L76.1 13.5C73.8 13.1 71.4 12.8 69 12.6L66.9 12.4V4.6C64.5 4.5 62.1 4.5 59.6 4.6V12.4L57.5 12.6C56 12.7 54.4 12.9 52.9 13.1C52.1 13.2 51.2 13.3 50.4 13.5L48.3 13.8L46.4 6.2C44 6.7 41.7 7.3 39.3 7.9L41.2 15.5L39.2 16.2C37.2 16.9 35.2 17.6 33.3 18.4C33 18.5 32.8 18.6 32.5 18.7L30.6 19.5L27 12.6C24.9 13.6 22.8 14.7 20.7 15.9Z" />
  <path
    d="M63.2 152.7C46.3 152.7 30.5 146.1 18.5 134.2C6.6 122.3 0 106.4 0 89.5C0 72.6 6.6 56.8 18.5 44.8C30.4 32.9 46.3 26.3 63.2 26.3C80.1 26.3 95.9 32.9 107.9 44.8C119.8 56.7 126.4 72.6 126.4 89.5C126.4 106.4 119.8 122.2 107.9 134.2C96 146.1 80.1 152.7 63.2 152.7ZM63.2 31.1C47.6 31.1 32.9 37.2 21.9 48.2C10.9 59.2 4.8 73.9 4.8 89.5C4.8 105.1 10.9 119.8 21.9 130.8C32.9 141.8 47.6 147.9 63.2 147.9C78.8 147.9 93.5 141.8 104.5 130.8C115.5 119.8 121.6 105.1 121.6 89.5C121.6 73.9 115.5 59.2 104.5 48.2C93.5 37.1 78.9 31.1 63.2 31.1Z" />
  <path
    d="M51.1 71.6C49.1 69 48.1 65.9 48.1 62.6C48.1 54.3 54.9 47.5 63.2 47.5C71.5 47.5 78.3 54.3 78.3 62.6C78.3 65.9 77.3 69 75.3 71.6L78.6 74.1C81.1 70.8 82.4 66.8 82.4 62.6C82.4 52 73.8 43.3 63.1 43.3C52.5 43.3 43.8 51.9 43.8 62.6C43.8 66.8 45.1 70.8 47.6 74.1L51.1 71.6Z" />
  <path
    d="M63.2 76.2C67.4 76.2 70.7 72.8 70.7 68.7V68H73.2V63.2C73.2 57.7 68.7 53.2 63.2 53.2C57.7 53.2 53.2 57.7 53.2 63.2V68H55.7V68.7C55.7 72.8 59.1 76.2 63.2 76.2ZM57.3 63.1C57.3 59.9 59.9 57.2 63.2 57.2C66.4 57.2 69.1 59.8 69.1 63.1V67.9H67.3V68.6C67.3 70.8 65.5 72.7 63.2 72.7C61 72.7 59.1 70.9 59.1 68.6V67.9H57.3V63.1Z" />
  <path d="M25.9 92.4H20.1V98.2H25.9V92.4Z" />
  <path
    d="M109.9 87.9V91H112.9L104.8 99.1V85.1L106.9 87.2L109.1 85L103.3 79.2L97.4 85.1L99.6 87.3L101.7 85.2V99.2L93.6 91.1H96.5V88H88.3V96.3H91.4V93.3L97.7 99.6H85L83.7 98.4L82.6 88.1C82.5 87.5 81.9 82.2 77.5 80L77.4 79.9L72.9 78.2L72.2 77.9L71.5 78.1C71.5 78.1 68.5 79 63.1 79C57.7 79 54.8 78.1 54.8 78.1L54.1 77.9L48.9 79.9L48.8 80C44.4 82.3 43.8 87.6 43.7 88.1L42.5 98.8L41.5 99.6H37.1C37.5 98.3 37.7 96.9 37.7 95.4C37.7 87.2 31 80.5 22.8 80.5C14.6 80.5 7.9 87.2 7.9 95.4C7.9 102.9 13.4 109 20.5 110.2H20.7C21.1 110.3 21.5 110.3 21.9 110.3L41.3 112.3C40.1 123.5 37.5 131.6 37.4 131.6L41.4 132.8C41.5 132.4 44.2 124.2 45.5 112.4L49.8 108.7L49.1 135.7L50.8 136C54.4 136.7 58.9 137.1 63 137.1C67.2 137.1 71.8 136.7 75.4 136L77.1 135.7L76.4 108.8L80.8 112.5C82.1 124.3 84.7 132.5 84.9 132.8L88.8 131.5C88.8 131.4 86.2 123.4 84.9 112.2L104.4 110.4V103.6L114.8 93.2V96.1H117.9V87.9H109.9ZM63.2 83.1C67.7 83.1 70.8 82.5 72.1 82.2L75.7 83.6C78.1 84.9 78.5 88.4 78.5 88.4L79.4 96.6H74.4C72.3 96.6 70.3 96.1 68.6 95C67.3 94.2 65.7 92.3 65.1 91.6L58.1 82.9C59.5 83 61.2 83.1 63.2 83.1ZM23 106.1C22.8 106.1 22.6 106.1 22.5 106.1L21.4 106C16.2 105.2 12.3 100.7 12.3 95.4C12.3 89.5 17.1 84.6 23.1 84.6C29.1 84.6 33.9 89.4 33.9 95.4C33.7 101.2 28.9 106.1 23 106.1ZM50.1 103.2L44.1 108.3L32.2 107.1C33.4 106.1 34.5 105 35.4 103.7H43.3L50.3 97.8L50.1 103.2ZM50.4 92.2L47.3 94.8L48 88.4V88.3C48 88.3 48.3 84.8 50.8 83.5L52.8 82.7L56.4 87.1L50.4 92.2ZM63.2 132.9C60 132.9 56.5 132.6 53.5 132.2L53.7 123.4L54.4 94.2L58.8 90.5L61.7 94.2C62 94.6 64.1 97.3 66.3 98.6C68.1 99.7 70.1 100.4 72.3 100.7L73.1 132.3C70.1 132.7 66.5 132.9 63.2 132.9ZM100.6 106.6L82.6 108.3L73.7 100.7C73.9 100.7 74.1 100.7 74.4 100.7H80.2L83.5 103.7H100.6V106.6Z" />
  <path
    d="M161.7 86.8C161.7 71.4 171.4 62 183.3 62C195.2 62 204.9 71.4 204.9 86.8C204.9 102.7 195.2 112.3 183.3 112.3C171.4 112.3 161.7 102.7 161.7 86.8ZM198.8 86.8C198.8 73.5 192 67.5 183.3 67.5C174.7 67.5 167.8 73.5 167.8 86.8C167.8 100.1 174.9 106.7 183.3 106.7C191.7 106.7 198.8 100.1 198.8 86.8Z" />
  <path
    d="M225.5 75.8C232 75.8 236.8 78.7 238.7 83.3L234.4 85.5C232.9 82.4 229.7 80.7 225.4 80.7C220.9 80.7 217.9 82.5 217.9 85.5C217.9 88.1 219.6 89.6 223.3 90.4L228.4 91.4C236 92.9 239.7 96.3 239.7 101.6C239.7 107.9 234.1 112.2 225.9 112.2C218.7 112.2 213.6 109.4 211.1 104.2L215.5 101.9C217.3 105.5 220.8 107.4 225.8 107.4C230.8 107.4 234.2 105.2 234.2 101.9C234.2 99 232.5 97.4 228.4 96.5L222.4 95.3C215.9 94 212.4 90.6 212.4 85.8C212.3 80.1 217.7 75.8 225.5 75.8Z" />
  <path
    d="M257.2 112C251.2 112 248.4 108.3 248.4 102.6V62.5H254.1V102.4C254.1 105.5 255.8 106.9 258.6 106.9C259.3 106.9 260 106.8 260.7 106.6V111.5C259.4 111.8 258.4 112 257.2 112Z" />
  <path
    d="M265.5 94C265.5 83 272.7 75.9 281.6 75.9C290.5 75.9 297.7 83.1 297.7 94C297.7 105.2 290.5 112.3 281.6 112.3C272.7 112.3 265.5 105.1 265.5 94ZM291.8 94C291.8 85 287.1 80.8 281.6 80.8C276 80.8 271.4 85 271.4 94C271.4 103 276 107.4 281.6 107.4C287.2 107.3 291.8 102.9 291.8 94Z" />
  <path d="M334.6 76.4L320.9 111.7H315.4L301.7 76.4H308L318.4 105.5L328.7 76.4H334.6Z" />
  <path
    d="M368.9 103.5C367 107.9 362.6 112.3 354.7 112.3C344.5 112.3 338.5 104.7 338.5 93.7C338.5 83.2 345 75.8 354.2 75.8C362.1 75.8 368.8 81.3 368.8 91.1L368.7 95.2H344.3C344.7 103.8 348.9 107.5 355.3 107.5C360.2 107.5 363.3 104.7 365 101.3L368.9 103.5ZM344.1 90.7H363.1C363.2 83.6 358.8 80.6 354.1 80.6C349.1 80.6 344.8 83.1 344.1 90.7Z" />
</svg>