<?xml version="1.0" encoding="UTF-8"?><!DOCTYPE svg PUBLIC "-//W3C//DTD SVG 1.1//EN" "http://www.w3.org/Graphics/SVG/1.1/DTD/svg11.dtd"><svg xmlns="http://www.w3.org/2000/svg" xmlns:xlink="http://www.w3.org/1999/xlink"><defs/><symbol id="24h" viewBox="0 0 32 32"><path d="M15.34 0 22 3.85v2.31L15.34 10V6a12 12 0 1 0 9.19 3.53L26 8.15A14 14 0 1 1 15.34 4zM12 13.18a2.94 2.94 0 0 1 3.24 2.88 3.92 3.92 0 0 1-1.52 2.88l-2 1.9h3.52v2h-6.4V21l3.48-3.42a1.88 1.88 0 0 0 .73-1.94A1 1 0 0 0 12 15c-.95 0-1.16 1-1.19 1.24l-.05.3-2-.31v-.29A3.18 3.18 0 0 1 12 13.18zm10.3.23v5.69h1.23V21h-1.19v1.83h-2.07V21h-4.06v-1.73l3.88-5.86zm-2.07 3L18.6 19.1h1.67z" fill-rule="evenodd" data-name="24h"/></symbol><symbol id="arrow" viewBox="0 0 32 32"><path d="M28.98 16.97 21.7 9.69l-1.41 1.42 4.95 4.94H5v-5.97H3v7.97h22.08l-5.05 5.05 1.42 1.41 7.53-7.54z" data-name="Layer 119"/></symbol><symbol id="attachment" viewBox="0 0 32 32"><path d="M13 0a5 5 0 0 1 5 4.78V5l.12 20a3.07 3.07 0 0 1-6.11.11V10h2v14.87a1.08 1.08 0 0 0 2.12.18v-.1L16 5a3 3 0 0 0-6-.18V25a5 5 0 0 0 10 .22V8h2v17a7 7 0 0 1-14 .24V5a5 5 0 0 1 5-5z"/></symbol><symbol id="backpack" viewBox="0 0 32 32"><path d="M21 1.5v4h4l2 10v.5l3 2.15v10.38h-3v2H5v-2H2V18.08L5 16v-.5l2-10h4v-4zm3.67 12.57L22.36 16H9.08l-1.79-1.79L7 15.7v12.8h18V15.7zM27 18.46v8.07h1v-7.34zm-22-.05-1 .71v7.34h1zm16 1.09v2H11v-2zm2.36-12H8.64l-.88 4.35L9.91 14h11.72l2.59-2.16zM19 3.5h-6v2h6z" fill-rule="evenodd"/></symbol><symbol id="bike" viewBox="0 0 32 32"><path d="m24.33 4.38.48 1.94-2.94.73L24 13.17a6.43 6.43 0 0 1 1.5-.17 6.51 6.51 0 1 1-3.33.92L21 10.54h-.2l-3 9.92h-4.88a6.52 6.52 0 1 1 0-2h1.61l-5-8.28 10.8-1.59-1-3zM6.5 15a4.5 4.5 0 1 0 4.5 4.5A4.51 4.51 0 0 0 6.5 15zm19 0a4.5 4.5 0 1 0 4.5 4.5 4.51 4.51 0 0 0-4.5-4.5zm-19 3A1.5 1.5 0 1 1 5 19.5 1.5 1.5 0 0 1 6.5 18zm19 0a1.5 1.5 0 1 1-1.5 1.5 1.5 1.5 0 0 1 1.5-1.5zm-6.91-7.1-5.81.85 3.68 6.09zM12 6v2H6V6z" fill-rule="evenodd"/></symbol><symbol id="briefcase" viewBox="0 0 32 32"><path d="M29.88 7.89h-7V2.73H9.36v5.16H1.87v7.72l1 .32v10.86h26V16l1-.31zM11.36 4.73h9.53v3.16h-9.53zM3.87 9.89h24v4.33L15.71 18 3.87 14.15zM27 25H4.73v-8.47l11 3.53L27 16.58z"/></symbol><symbol id="bullseye" viewBox="0 0 32 32"><path d="m26.44 8.62-1.58-.08.53-.54 3 .11V6.73l-2.8-.14-.14-2.81L24 3.76l.1 2.7-.53.54-.07-1.33h-1.38l.09 2.54a10.76 10.76 0 1 0 1.72 1.72l2.53.09zM15.54 25.3a8.73 8.73 0 1 1 5.34-15.61l-1.48 1.48a6.54 6.54 0 0 0-3.86-1.25 6.68 6.68 0 1 0 5.3 2.64l1.47-1.48a8.71 8.71 0 0 1-6.77 14.22zm4.66-8.73a4.66 4.66 0 1 1-4.66-4.65 4.58 4.58 0 0 1 2.41.69l-2 2.06a2.2 2.2 0 0 0-.36 0 1.94 1.94 0 1 0 1.94 1.94 2.11 2.11 0 0 0-.09-.56l2-2a4.68 4.68 0 0 1 .76 2.52z"/></symbol><symbol id="bus" viewBox="0 0 32 32"><path d="m25.85 1 1 6H30v7h-2V9h-1v22h-4.78l-1-4H10.78l-1 4H5V9H4v5H2V7h3.15l1-6zM8.72 27H7v2h1.22zM25 27h-1.72l.5 2H25zm0-7H7v5h18zM9.5 21A1.5 1.5 0 1 1 8 22.5 1.5 1.5 0 0 1 9.5 21zm13 0a1.5 1.5 0 1 1-1.5 1.5 1.5 1.5 0 0 1 1.5-1.5zM25 9H7v9h18zm-.85-6H7.85l-.67 4h17.64z" fill-rule="evenodd"/></symbol><symbol id="cafe" viewBox="0 0 32 32"><path d="M29 27v2H3v-2zm0-13v5h-2v-3h-1.9A10.07 10.07 0 0 1 5 15v-1zm-5.91 2h-16a8.08 8.08 0 0 0 16 0zM18.33 2.45l1.35 2.65-1.31 4 1 2-1.78.9-1.37-2.7 1.3-4-1-1.92zm-4.8 0 1.35 2.65-1.31 4 1 2-1.79.9-1.37-2.7 1.31-4-1-1.92z" fill-rule="evenodd"/></symbol><symbol id="calendar" viewBox="0 0 32 32"><path d="M9 2v3h14V2h2v3h4v25H3V5h4V2zm18 11H5v15h22zm-6 3a3 3 0 1 1-3 3 3 3 0 0 1 3-3zm6-9H5v4h22z" fill-rule="evenodd"/></symbol><symbol id="camera" viewBox="0 0 32 32"><path d="M26.5 11.62a1.5 1.5 0 1 1-1.5 1.5 1.5 1.5 0 0 1 1.5-1.5zm-10.5.5a5.5 5.5 0 1 0 5.5 5.5 5.5 5.5 0 0 0-5.5-5.5zm0-2a7.5 7.5 0 1 1-7.5 7.5 7.5 7.5 0 0 1 7.5-7.5zm5.38-4.5H10.62l-2 4H2v17h28v-17h-6.62zm1.24-2 2 4H32v21H0v-21h7.38l2-4z"/></symbol><symbol id="check-big" viewBox="0 0 32 32"><path d="m12.17 25-2.55-2.66-5.13-5.32 1.9-2.03 5.78 6L25.58 7l1.91 2.01-12.77 13.33L12.17 25z"/></symbol><symbol id="check-circle" viewBox="0 0 32 32"><path d="M16 3.94a12 12 0 1 0 12 12 12 12 0 0 0-12-12zm0 22.28a10.28 10.28 0 1 1 10.26-10.28A10.28 10.28 0 0 1 16 26.22z"/><path d="m14.45 20.39-1.11-1.14-2.23-2.28 1.11-1.15 2.23 2.28 5.54-5.71 1.12 1.15-5.55 5.71-1.11 1.14z"/></symbol><symbol id="check" viewBox="0 0 32 32"><path d="m14.45 20.39-1.11-1.14-2.23-2.28 1.11-1.15 2.23 2.28 5.54-5.71 1.12 1.15-5.55 5.71-1.11 1.14z"/></symbol><symbol id="chevron-down" viewBox="0 0 32 32"><path d="m16 23.14 10-10-4.29-4.28L16 14.57l-5.72-5.71L6 13.14zM10.28 6 16 11.71 21.71 6l7.14 7.14L16 26 3.14 13.14z" fill-rule="evenodd"/></symbol><symbol id="chevron-left" viewBox="0 0 32 32"><path d="m8.86 15.86 10 10 4.28-4.29-5.71-5.71 5.71-5.72-4.28-4.28zM26 10.14l-5.71 5.72L26 21.57l-7.14 7.14L6 15.86 18.86 3z" fill-rule="evenodd"/></symbol><symbol id="chevron-right" viewBox="0 0 32 32"><path d="m23.14 15.86-10-10-4.28 4.28 5.71 5.72-5.71 5.71 4.28 4.29zM6 10.14 13.14 3 26 15.86 13.14 28.71 6 21.57l5.71-5.71z" fill-rule="evenodd"/></symbol><symbol id="chevron-thin-down" viewBox="0 0 32 32"><path fill-rule="evenodd" d="M16 19.41 6.33 10 5 11.29 16 22l11-10.71L25.67 10 16 19.41z"/></symbol><symbol id="chevron-thin-up" viewBox="0 0 32 32"><path fill-rule="evenodd" d="M16 12.59 6.33 22 5 20.71 16 10l11 10.71L25.67 22 16 12.59z"/></symbol><symbol id="chevron-up" viewBox="0 0 32 32"><path d="m16 8.86-10 10 4.28 4.28L16 17.43l5.71 5.71L26 18.86zM10.28 26l-7.14-7.14L16 6l12.85 12.86L21.71 26 16 20.29z" fill-rule="evenodd"/></symbol><symbol id="clock" viewBox="0 0 32 32"><path d="M16 1A15 15 0 1 1 1 16 15 15 0 0 1 16 1zm0 2.15A12.85 12.85 0 1 0 28.85 16 12.85 12.85 0 0 0 16 3.15zM16 7v9l7-.6V18h-9V7z" fill-rule="evenodd"/></symbol><symbol id="close" viewBox="0 0 32 32"><path fill-rule="evenodd" d="M14.53 16 5 6.47 6.47 5 16 14.53 25.53 5 27 6.47 17.47 16 27 25.53 25.53 27 16 17.47 6.47 27 5 25.53 14.53 16z"/></symbol><symbol id="coin-stacks" viewBox="0 0 32 32"><path d="M7.5 12.5c4.21 0 7.5 2 7.5 4.5v10.5C15 30 11.71 32 7.5 32S0 30 0 27.5V17c0-2.52 3.29-4.5 7.5-4.5zM13 27.08a10.27 10.27 0 0 1-5.5 1.42A10.27 10.27 0 0 1 2 27.08v.42C2 28.68 4.35 30 7.5 30s5.5-1.32 5.5-2.5zm0-3.5A10.27 10.27 0 0 1 7.5 25 10.27 10.27 0 0 1 2 23.58V24c0 1.18 2.35 2.5 5.5 2.5S13 25.18 13 24zM24.5 0C28.71 0 32 2 32 4.5V22c0 2.52-3.29 4.5-7.5 4.5S17 24.52 17 22V4.5C17 2 20.29 0 24.5 0zM30 21.58A10.27 10.27 0 0 1 24.5 23a10.27 10.27 0 0 1-5.5-1.42V22c0 1.18 2.35 2.5 5.5 2.5S30 23.18 30 22zm-17-1.5a10.27 10.27 0 0 1-5.5 1.42A10.27 10.27 0 0 1 2 20.08v.42C2 21.68 4.35 23 7.5 23s5.5-1.32 5.5-2.5zm17-2a10.27 10.27 0 0 1-5.5 1.42 10.27 10.27 0 0 1-5.5-1.42v.42c0 1.18 2.35 2.5 5.5 2.5s5.5-1.32 5.5-2.5zM7.5 14.5C4.35 14.5 2 15.82 2 17s2.35 2.5 5.5 2.5S13 18.18 13 17s-2.35-2.5-5.5-2.5zm22.5.08A10.27 10.27 0 0 1 24.5 16a10.27 10.27 0 0 1-5.5-1.42V15c0 1.18 2.35 2.5 5.5 2.5S30 16.18 30 15zm0-3.5a10.27 10.27 0 0 1-5.5 1.42 10.27 10.27 0 0 1-5.5-1.42v.42c0 1.18 2.35 2.5 5.5 2.5s5.5-1.32 5.5-2.5zm0-3.5A10.27 10.27 0 0 1 24.5 9 10.27 10.27 0 0 1 19 7.58V8c0 1.18 2.35 2.5 5.5 2.5S30 9.18 30 8zM24.5 2C21.35 2 19 3.32 19 4.5S21.35 7 24.5 7 30 5.68 30 4.5 27.65 2 24.5 2z" fill-rule="evenodd"/></symbol><symbol id="crane" viewBox="0 0 32 32"><path d="M31 13V7H16V0H8v7H1v6h7v19h8V13h7v5h-3v6h8v-6h-3v-5zm-5 7v2h-4v-2zM10 2h4v5h-4zm0 14h4v5h-4zm0-2V9h4v5zm-7-3V9h5v2zm7 19v-7h4v7zm6-21h13v2H16z" fill-rule="evenodd"/></symbol><symbol id="cross-circle" viewBox="0 0 32 32"><path d="M16.05 3.84a12 12 0 1 0 12 12 12 12 0 0 0-12-12zm0 22.28a10.28 10.28 0 1 1 10.28-10.28 10.28 10.28 0 0 1-10.28 10.28z"/><path d="m20.55 12.42-1.12-1.12-3.37 3.38-3.39-3.39-1.12 1.12 3.39 3.39-3.38 3.38 1.12 1.11 3.38-3.38 3.36 3.37 1.12-1.12-3.36-3.36 3.37-3.38z"/></symbol><symbol id="cross" viewBox="0 0 32 32"><path d="m20.55 12.42-1.12-1.12-3.37 3.38-3.39-3.39-1.12 1.12 3.39 3.39-3.38 3.38 1.12 1.11 3.38-3.38 3.36 3.37 1.12-1.12-3.36-3.36 3.37-3.38z"/></symbol><symbol id="data" viewBox="0 0 32 32"><path d="M27.82 5.12C27.82 2 20.39 1.17 16 1.17S4.18 2 4.18 5.12v22.2l.46.29a20.46 20.46 0 0 0 11 3.21H16c5.26 0 9.91-2 11.53-3.4l.34-.29v-22zm-2 13.49a18.85 18.85 0 0 1-9.88 2.64 18.46 18.46 0 0 1-9.75-2.63v-5a20.45 20.45 0 0 0 9.51 2.34h.3a22.07 22.07 0 0 0 9.82-2.32zm0-7.32A18.73 18.73 0 0 1 16 13.93a18.64 18.64 0 0 1-9.8-2.63V7.49C8.7 8.69 13 9.07 16 9.07s7.31-.38 9.82-1.59zM16 3.17c5.91 0 9.54 1.3 9.83 1.9-.29.7-3.92 2-9.83 2S6.55 5.8 6.19 5.19v-.05c.36-.7 3.96-1.97 9.81-1.97zm-.06 25.65a18.74 18.74 0 0 1-9.75-2.61v-5.29a20.69 20.69 0 0 0 9.51 2.33 22.86 22.86 0 0 0 10.12-2.32v5.25a18.92 18.92 0 0 1-9.88 2.64z"/></symbol><symbol id="district" viewBox="0 0 32 32"><path d="M18 29.92h12v-28H16v15.25l-5.5-3.67-3.86 2.57L6 13.5H3v16.42m2-2V19.5l5.5-3.5 5.5 3.5v8.42zm23 0H18v-24h10z"/><path d="M20 5.9h2v2h-2zm4 0h2v2h-2zm-4 5h2v2h-2zm4 0h2v2h-2zm0 5h2v2h-2zm-4 0h2v2h-2zm0 5h2v2h-2zm-9 0h3v6h-3zm-4 0h2v2H7zm17 0h2v2h-2z"/></symbol><symbol id="document" viewBox="0 0 32 32"><g data-name="Layer 116"><path d="M24.25 1.85H5.94v28.91h20.94V5.45zm.63 26.93H7.94v-25h15.29l1.65 2.26z"/><path d="M9.82 13.85h13v2h-13zm0 4.05h13v2h-13zm0 3.92h13v2h-13z"/></g></symbol><symbol id="download" viewBox="0 0 32 32"><path d="M3 19.88V29h26v-9h2v11H1V19.88zm20 3.87v2.5H9v-2.5zM17 1v17.21l5.29-5.29 1.42 1.41L16 22l-7.71-7.67 1.42-1.41L15 18.21V1z"/></symbol><symbol id="edit" viewBox="0 0 32 32"><path d="M13.5 2v2H2v24h28V17.91h2V30H0V2zM25.64.61l5.64 5.65L28.59 9l-.59.53-.83.84-11.24 11.2-1.13 1.13-7.58 2 2-7.59L11.24 15 21.53 4.72zm-14.4 17.22-.24.27-1 3.77 3.77-1 .27-.27zm11.7-11.7L12.65 16.42l2.81 2.8L25.76 9zm2.7-2.69-1.28 1.28 2.81 2.82 1.28-1.29z"/></symbol><symbol id="email" viewBox="0 0 32 32"><path d="M2 5v22h28V5zm26 20H4V7h24z"/><path d="m25.7 11.3-1.4-1.42-8.3 8.13-8.3-8.13-1.4 1.42 9.7 9.51 9.7-9.51z"/></symbol><symbol id="exclamation-mark-circle" viewBox="0 0 32 32"><path d="M16 1A15 15 0 1 1 1 16 15 15 0 0 1 16 1zm0 2a13 13 0 1 0 13 13A13 13 0 0 0 16 3zm0 18a2 2 0 1 1-2 2 2 2 0 0 1 2-2zm1.5-14-.36 12h-2.3L14.5 7z" fill-rule="evenodd"/></symbol><symbol id="exclamation-mark-square" viewBox="0 0 32 32"><path d="M16 1A15 15 0 1 1 1 16 15 15 0 0 1 16 1zm0 2a13 13 0 1 0 13 13A13 13 0 0 0 16 3zm1.75 18.25v3.5h-3.5v-3.5zM17.5 7l-.36 12h-2.28L14.5 7z" fill-rule="evenodd"/></symbol><symbol id="exit" viewBox="0 0 32 32"><path d="M14.51 3H5.38v26h9v2h-11V1h11.13zM9.35 15h17.21l-5.29-5.29 1.41-1.42L30.39 16l-7.71 7.71-1.41-1.42L26.56 17H9.35z"/></symbol><symbol id="expand" viewBox="0 0 32 32"><path data-name="Expand" d="M28 20v8h-8v-2h6v-6zM4 28v-8h2v6h6v2zm8-24v2H6v6H4V4zm16 0v8h-2V6h-6V4z" fill-rule="evenodd"/></symbol><symbol id="eye" viewBox="0 0 32 32"><path d="M29.2 15.45c-.2-.29-6-7.12-13.2-7.12S3.11 15.17 2.88 15.46l-.52.63.51.63c.24.28 5.87 7.17 13.13 7.17S29 17 29.21 16.73l.52-.64zM16 21.85a5.29 5.29 0 1 1 5.28-5.28A5.29 5.29 0 0 1 16 21.85zM5 16.1a22.46 22.46 0 0 1 5.41-4.21 7.26 7.26 0 0 0-.94 7.9A23 23 0 0 1 5 16.1zm17.48 3.76a7.25 7.25 0 0 0-1-8 22.57 22.57 0 0 1 5.59 4.28 23 23 0 0 1-4.6 3.72z"/><circle cx="16.04" cy="16.57" r="2.58"/></symbol><symbol id="facebook" viewBox="0 0 32 32"><path d="M16 3a13.09 13.09 0 0 0-2 26v-9.14h-3.3v-3.78H14V13.2c0-3.28 1.94-5.09 4.91-5.09a20.34 20.34 0 0 1 2.91.25v3.22h-1.67A1.89 1.89 0 0 0 18 13.63v2.45h3.61l-.58 3.78H18V29a13.09 13.09 0 0 0-2-26z" fill-rule="evenodd"/></symbol><symbol id="factory-fill" viewBox="0 0 32 32"><path d="M28.96 28H3.08V4.06h10.84v10.59l8.02-3.07v3.04l6.98-3.08.04 16.46z"/></symbol><symbol id="feedback" viewBox="0 0 32 32"><path d="m16.1 27.12-3.05-3.06H3.1V5.3h26v18.76h-9.9zm-11-5.06h8.78l2.23 2.23 2.26-2.23h8.71V7.3H5.1z"/></symbol><symbol id="filter" viewBox="0 0 32 32"><path d="M3 3v8l9 9v9h8v-8.75L29 11V3zm24 2v4H5V5zm-9 14.44V27h-4v-7.83L5.83 11h20.38z" fill-rule="evenodd"/></symbol><symbol id="fire-emblem" viewBox="0 0 32 32"><path d="M3 1.08v10.58c0 7.66 4.68 14.76 12.52 19l.48.25.48-.25C24.32 26.42 29 19.32 29 11.66V1.08zm13 27.55a24.23 24.23 0 0 1-5.56-4.26 6.19 6.19 0 0 1-1.56-6c.46-2.43 2.29-3.68 4-4.94 1.38-1 2.68-1.93 3.16-3.35a5.6 5.6 0 0 0 .31-1.57 5 5 0 0 1 .65 2.68 7.55 7.55 0 0 1-1.85 4.16 7.46 7.46 0 0 0-1.19 1.94 3.81 3.81 0 0 0 .6 3.85 4.14 4.14 0 0 0 3.91 1.23 4.43 4.43 0 0 0 3.3-3.14 6.55 6.55 0 0 0 .3-2.15 4.85 4.85 0 0 1 1 2.68v.54C23 23 21.92 24 21.92 24A24.06 24.06 0 0 1 16 28.63zm11-17a17.22 17.22 0 0 1-2 8 7.27 7.27 0 0 0-2.52-5l-.28-.26h-2.93l.49 1.35a4.37 4.37 0 0 1 .06 2.9 2.45 2.45 0 0 1-1.8 1.8 2.14 2.14 0 0 1-2-.6 1.81 1.81 0 0 1-.21-1.82 6.3 6.3 0 0 1 .89-1.4 9.4 9.4 0 0 0 2.3-5.24 8.54 8.54 0 0 0-2.62-6.26l-.3-.32H13.5l.5 1.35a5 5 0 0 1 .17 3.31c-.27.81-1.27 1.53-2.44 2.36-1.86 1.35-4.13 2.92-4.82 6.2a5.42 5.42 0 0 0-.09 1.29A17.15 17.15 0 0 1 5 11.66V3.08h22z" fill-rule="evenodd"/></symbol><symbol id="graph" viewBox="0 0 32 32"><path d="M29 1v7h-2V4.42l-9.62 9.63L8.74 5.3 4.59 9.46 3.17 8l5.58-5.54 8.63 8.75L25.59 3H22V1zm-2.11 15h-3.17v13h3.17zm-9.31 4h-3.17v9h3.17zm-9.31-5H5.1v14h3.17zm2-2v16h2.14V18h7.17v11h2.14V14h7.17v15H31v2H1v-2h2.1V13z"/></symbol><symbol id="grid" viewBox="0 0 32 32"><path d="M3.14 4.5v23h25.72v-23zm23.51 2.21V19H5.35V6.71zM5.35 25.29v-4.12h21.3v4.12z"/></symbol><symbol id="handicap" viewBox="0 0 32 32"><path d="M19 9v8.26a7.86 7.86 0 0 1 .89.73L25 19.21V28h-2v-7.21l-1.49-.35a7 7 0 1 1-9.88-3.57l-.71-1.65L13.31 9zm-4 9a5.05 5.05 0 0 0-.68.07l1.6 3.74-1.84.78-1.65-3.86A5 5 0 1 0 15 18zm2-7h-2.31l-1.61 4.18.42 1A7.49 7.49 0 0 1 15 16a6.91 6.91 0 0 1 2 .29zm.5-9A2.5 2.5 0 1 1 15 4.5 2.5 2.5 0 0 1 17.5 2z" fill-rule="evenodd"/></symbol><symbol id="heart-plus" viewBox="0 0 32 32"><path d="m26.94 16.56 1.47-1.46A8.85 8.85 0 0 0 15.9 2.59l-.4.4-.4-.4A8.85 8.85 0 0 0 2.59 15.1l1.82 1.81 9.68 9.68L15.5 28l1.06-1.07a8 8 0 1 0 10.38-10.37zM15.5 25.18 5.82 15.5 4 13.68A6.85 6.85 0 0 1 13.69 4l1.81 1.82L17.32 4A6.84 6.84 0 0 1 27 13.68l-1.82 1.82-.53.53H24a8 8 0 0 0-8 8v.65zM24 30a6 6 0 1 1 6-6 6 6 0 0 1-6 6z"/><path d="M25 20h-2v3h-3v2h3v3h2v-3h3v-2h-3v-3z"/></symbol><symbol id="heart" viewBox="0 0 33 32"><path d="m27.94 18.56 1.47-1.47A8.84 8.84 0 0 0 16.9 4.59l-.4.4-.4-.4a8.84 8.84 0 1 0-12.51 12.5l1.82 1.82 9.68 9.68L16.5 30l1.06-1.06zM17 26.65l-.53.53-9.65-9.68L5 15.68A6.85 6.85 0 1 1 14.69 6l1.81 1.81L18.32 6A6.84 6.84 0 0 1 28 15.68l-1.82 1.82-.53.53z"/></symbol><symbol id="home" viewBox="0 0 32 32"><path d="M24 6.06h-2v1.59l2 2zm-8-4.41 4 4V4.06h6v7.59l4.77 4.77-1.42 1.42L16 4.47 2.65 17.84l-1.42-1.42zM8 16v13h4V18h8v11h4V16h2v15h-8V20h-4v11H6V16z"/></symbol><symbol id="house-heart" viewBox="0 0 32 32"><path d="m16 1 12 10v21H4V2h5.78l.87 3.46zm0 2.6L6 11.94V30h20V11.94zm-5.82 10.58a4.06 4.06 0 0 1 5.72 0l.1.1.1-.1a4 4 0 0 1 5.72 5.72L16 25.72l-5.82-5.82a4.06 4.06 0 0 1 0-5.72zM20.4 15.6a2 2 0 0 0-2.89 0L16 17.11l-1.51-1.51A2.05 2.05 0 0 0 13 15a2 2 0 0 0-1.44 3.49l4.4 4.4 4.4-4.4a2 2 0 0 0 .04-2.89zM8.22 4H6v5.33l2.94-2.45z" fill-rule="evenodd"/></symbol><symbol id="information" viewBox="0 0 32 32"><path d="M16 1A15 15 0 1 1 1 16 15 15 0 0 1 16 1zm0 2a13 13 0 1 0 13 13A13 13 0 0 0 16 3z" fill-rule="evenodd"/><path d="M14.15 8.61A1.8 1.8 0 0 1 16 6.79a1.77 1.77 0 0 1 1.79 1.82A1.78 1.78 0 0 1 16 10.43a1.8 1.8 0 0 1-1.85-1.82zm.53 3.84h2.58v12.2h-2.58z"/></symbol><symbol id="instagram" viewBox="0 0 32 32"><path d="M17.19 3c2.43 0 2.92 0 4.13.08a9.46 9.46 0 0 1 3.15.6 6.37 6.37 0 0 1 2.29 1.5 6.37 6.37 0 0 1 1.5 2.29 9.46 9.46 0 0 1 .6 3.15c.06 1.3.08 1.77.08 4.71v1.28c0 2.94 0 3.41-.08 4.71a9.46 9.46 0 0 1-.6 3.15 6.61 6.61 0 0 1-3.79 3.79 9.46 9.46 0 0 1-3.15.6c-1.3.06-1.77.08-4.71.08h-1.28c-2.94 0-3.41 0-4.71-.08a9.46 9.46 0 0 1-3.15-.6 6.37 6.37 0 0 1-2.29-1.5 6.37 6.37 0 0 1-1.5-2.29 9.46 9.46 0 0 1-.6-3.15C3 20.11 3 19.62 3 17.19v-2.44c0-2.43 0-2.92.08-4.13a9.46 9.46 0 0 1 .6-3.15 6.37 6.37 0 0 1 1.5-2.29 6.37 6.37 0 0 1 2.29-1.5 9.46 9.46 0 0 1 3.15-.6C11.83 3 12.32 3 14.75 3zM16 5.34c-3.46 0-3.87 0-5.24.07a7.1 7.1 0 0 0-2.41.45 4.3 4.3 0 0 0-2.49 2.46 7.1 7.1 0 0 0-.45 2.41c-.06 1.37-.07 1.78-.07 5.24s0 3.87.07 5.24a7.1 7.1 0 0 0 .45 2.41 4.3 4.3 0 0 0 2.46 2.46 7.1 7.1 0 0 0 2.41.45c1.28.06 1.72.07 4.61.07h1.26c2.89 0 3.33 0 4.61-.07a7.1 7.1 0 0 0 2.41-.45 4.32 4.32 0 0 0 2.46-2.46 7.1 7.1 0 0 0 .45-2.41c.06-1.28.07-1.72.07-4.61v-1.26c0-2.89 0-3.33-.07-4.61a7.1 7.1 0 0 0-.45-2.41 4.3 4.3 0 0 0-2.46-2.46 7.1 7.1 0 0 0-2.41-.45c-1.37-.06-1.78-.07-5.21-.07zm0 4a6.66 6.66 0 1 1-6.15 4.11A6.66 6.66 0 0 1 16 9.31zm0 2.34A4.33 4.33 0 1 0 20.29 16 4.31 4.31 0 0 0 16 11.65zm6.92-4.16a1.56 1.56 0 1 1 0 3.11 1.56 1.56 0 0 1 0-3.11z" fill-rule="evenodd"/></symbol><symbol id="invoice" viewBox="0 0 32 32"><path d="m11.79 12-1.14 1.22v3.58H9V6.37h1.66v4.82l4.41-4.82h2l-4.25 4.54 4.3 5.93h-2zm11.83-.82v1l-1.27.23v-.77c0-.68-.24-1.14-1-1.14s-1.4.53-1.4 2v4.39h-1.56V9.34H20v1a2.07 2.07 0 0 1 1.85-1.18 1.76 1.76 0 0 1 1.77 2.02z"/><path d="M28.78 31H2.86V1.06h25.92zM4.86 29h21.92V3.06H4.86z"/><path d="M8.38 20.7h14.85v2H8.38zm0 3.16h14.85v2H8.38z"/></symbol><symbol id="language" viewBox="0 0 32 32"><path d="M28 15.94a12 12 0 1 0-12 12 13.2 13.2 0 0 0 1.42-.09A12 12 0 0 0 28 15.94zm-2.52 4H22a15 15 0 0 0 .11-8h3.36a10.36 10.36 0 0 1 0 8zM12.05 12h8a12.77 12.77 0 0 1-.14 8h-8a12.82 12.82 0 0 1 .14-8zm12.29-2h-2.92a17.38 17.38 0 0 0-2.22-3.82A10.3 10.3 0 0 1 24.34 10zm-8.22-4.34A17.34 17.34 0 0 1 19.23 10h-6.36a18.94 18.94 0 0 1 2.89-4.3h.36zm-3.36.52A19.25 19.25 0 0 0 10.65 10h-3a10.23 10.23 0 0 1 5.11-3.82zM6.5 12H10a15 15 0 0 0-.14 8H6.51a10.24 10.24 0 0 1 0-8zm1.14 10h2.86a17.14 17.14 0 0 0 2.17 3.73 10.27 10.27 0 0 1-5.03-3.8zm8.11 4.28A17.26 17.26 0 0 1 12.69 22h6.41a18.74 18.74 0 0 1-2.86 4.28h-.49zm3.49-.53A19.09 19.09 0 0 0 21.31 22h3a10.19 10.19 0 0 1-5.07 3.68z"/></symbol><symbol id="linked-in" viewBox="0 0 32 32"><path d="M27.08 3H4.92A1.89 1.89 0 0 0 3 4.88v22.24A1.89 1.89 0 0 0 4.92 29h22.16A1.89 1.89 0 0 0 29 27.12V4.88A1.89 1.89 0 0 0 27.08 3zM10.71 25.16H6.85V12.75h3.86zM8.78 11.05A2.24 2.24 0 0 1 6.7 9.68a2.24 2.24 0 0 1 2.93-2.94A2.26 2.26 0 0 1 11 8.81a2.23 2.23 0 0 1-2.23 2.24zm16.38 14.11H21.3v-6c0-1.44 0-3.29-2-3.29S17 17.4 17 19v6.14h-3.89V12.75h3.7v1.69h.05a4 4 0 0 1 3.65-2c3.9 0 4.63 2.57 4.63 5.91z" fill-rule="evenodd"/></symbol><symbol id="list" viewBox="0 0 32 32"><circle cx="6.96" cy="8" r="2"/><path d="M11.96 7h15.09v2H11.96z"/><circle cx="6.96" cy="16" r="2"/><path d="M11.96 15h15.09v2H11.96z"/><circle cx="6.96" cy="24" r="2"/><path d="M11.96 23h15.09v2H11.96z"/></symbol><symbol id="location-pin-filled" viewBox="0 0 32 32"><path d="M25.37 3.88a13.25 13.25 0 0 0-18.46-.27l-.28.27a13.25 13.25 0 0 0 0 18.75L16 32l9.37-9.37a13.25 13.25 0 0 0 0-18.75zM16 16.1a3 3 0 1 1 3-3 3 3 0 0 1-3 3z" fill-rule="evenodd"/></symbol><symbol id="location-pin" viewBox="0 0 32 32"><path d="M16 0a13.26 13.26 0 0 1 9.37 22.63L16 32l-9.37-9.37a13.25 13.25 0 0 1 0-18.75l.28-.27A13.19 13.19 0 0 1 16 0zm0 2a11.26 11.26 0 0 0-8 19.21l8 8 8-8A11.26 11.26 0 0 0 16 2z" fill-rule="evenodd"/><circle cx="16" cy="13.1" r="3"/></symbol><symbol id="magnifying-glass-big" viewBox="0 0 32 32"><path d="m30.71 28.29-7.41-7.4a12.13 12.13 0 1 0-1.39 1.43l7.38 7.39zM14 23.31a10 10 0 1 1 10-10 10 10 0 0 1-10 10z" fill-rule="evenodd"/></symbol><symbol id="magnifying-glass-small" viewBox="0 0 32 32"><path d="M14 4a10 10 0 0 1 7.77 16.29L28 26.52 26.52 28l-6.23-6.23A10 10 0 1 1 14 4zm0 2a8 8 0 1 0 8 8 8 8 0 0 0-8-8z" fill-rule="evenodd"/></symbol><symbol id="map" viewBox="0 0 32 32"><path d="M15.58 5.5a2 2 0 0 1 .15 4h-.15a2 2 0 1 1 0-4zm0-2.84a5 5 0 0 0-4.19 7.57l4.24 6.12 4.12-6.09a5 5 0 0 0 .77-2.37v-.28a5 5 0 0 0-4.94-4.95zm4.9 10.1L18 16.44 25.8 22l2.85-3.41zm-7.69 3-4.24.6L19 23.82l4.92-.7-7-5-1.27 1.78zm-6.46 1.48L3.22 21l11.17 8 3.11-3.73zM15.58.66a6.94 6.94 0 0 1 6 10.43l10 7.13-5.51 6.61-6.4.91-4.92 5.91L.31 21.34l5.51-6.61 5.69-.81-1.79-2.58a6.89 6.89 0 0 1-1.07-3.42v-.31A7 7 0 0 1 15.58.66z"/></symbol><symbol id="menu" viewBox="0 0 32 32"><path data-name="Menu" d="M30 24v2H2v-2zm0-9v2H2v-2zm0-9v2H2V6z" fill-rule="evenodd"/></symbol><symbol id="message" viewBox="0 0 32 32"><path d="M13.44 9.5a2 2 0 0 1 .15 4h-.15a2 2 0 1 1 0-4zm11.12 0a2 2 0 0 1 .15 4h-.15a2 2 0 0 1 0-4zm-5.5 0a2 2 0 0 1 .15 4h-.15a2 2 0 0 1 0-4zM30 4H8v15h8.79L19 21.21 21.21 19H30zm2-2v19H22l-3 3-3-3H6V2zM4 8v2H2v16.62h8.79L13 28.84l2.21-2.22H24V23h2v5.62H16l-3 3-3-3H0V8z"/></symbol><symbol id="minimize" viewBox="0 0 32 32"><path data-name="Minimize" d="M28 20v2h-6v6h-2v-8zm-16 8h-2v-6H4v-2h8zm0-24v8H4v-2h6V4zm10 0v6h6v2h-8V4z" fill-rule="evenodd"/></symbol><symbol id="minus-circle-fill" viewBox="0 0 32 32"><path d="M15.93 1a15 15 0 1 0 15 15 15 15 0 0 0-15-15zm7 16h-14v-2h14z"/></symbol><symbol id="minus-circle" viewBox="0 0 32 32"><path d="M15.93 3a13 13 0 1 1-13 13 13 13 0 0 1 13-13m0-2a15 15 0 1 0 15 15 15 15 0 0 0-15-15z"/><path d="M8.93 15h14v2h-14z"/></symbol><symbol id="minus-sign" viewBox="0 0 32 32"><path fill-rule="evenodd" d="M8 15h16v2H8v-2z"/></symbol><symbol id="museum" viewBox="0 0 32 32"><path d="m16 1 15 7.5V14h-3v11h3v6H1v-6h3V14H1V8.5zm13 26H3v2h26zM8 14H6v11h2zm5 0h-3v11h3zm4 0h-2v11h2zm5 0h-3v11h3zm4 0h-2v11h2zM16 3.24 3 9.74V12h26V9.74zm-1.2 2.51L16 9.12l1.14-3.37H19V11h-1.24V7.29L16.4 11h-.89l-1.32-3.71V11H13V5.75z" fill-rule="evenodd"/></symbol><symbol id="neutral" viewBox="0 0 32 32"><path d="M16 1A15 15 0 1 1 1 16 15 15 0 0 1 16 1zm0 2a13 13 0 1 0 13 13A13 13 0 0 0 16 3zm9 16v2H7v-2z"/><circle cx="12" cy="14" r="2"/><circle data-name="Oval" cx="20" cy="14" r="2"/></symbol><symbol id="new-window" viewBox="0 0 32 32"><g data-name="Updated new window"><path d="M29.04 23.84v5.15H3.07V2.97l5.02-.03-.03-1.92H4.42v-.01H1.1v29.98h3.32v-.01h26.64v-7.11l-2.02-.03z"/><path d="M30.95 1.01H17.01v2h10.56L13.08 17.49l1.41 1.42L28.96 4.44v10.57h2v-14h-.01z"/></g></symbol><symbol id="obstacle" viewBox="0 0 32 32"><path d="M29 19V8h-6V5h-2v3H11V5H9v3H3v11h6v6H7v2h6v-2h-2v-6h10v6h-2v2h6v-2h-2v-6zm-2-2h-4.91l4-7H27zm-3.18-7-4 7h-4.97l4-7zM5 10h4.35l-4 7H5zm4 7H7.62l4-7h4.93l-4.05 7H9z"/></symbol><symbol id="organization" viewBox="0 0 32 32"><path d="M27 28.86v-28H11v5H2v23H0v2h30v-2zm-16 0H8v-6h3zm4 0h-2v-8H6v8H4v-21h11zm10 0h-8v-2h6v-2h-6v-2h6v-2h-6v-2h6v-2h-6v-2h6v-2h-6v-2h6v-2h-6v-2h6v-2h-8v1h-2v-3h12z" style="fill-rule:evenodd"/><path d="M6 15.73h2v2.14H6zm5 0h2v2.14h-2zm-5-5.01h2v2.14H6zm5 0h2v2.14h-2z"/></symbol><symbol id="paint-bucket" viewBox="0 0 32 32"><path d="m30.12 16.56-1.27-1.27-6.06-6.06-7.32-7.33-1.7 1.69L15 4.86l-5.53 5.57H2.71v1.2h5.57L1.93 18 14 30.1 27.16 17l1.27 1.27zM14 26.71 5.31 18l6.35-6.35h2.24a1.6 1.6 0 1 0 0-1.2h-1l3.87-3.87 4.37 4.36 4.37 4.37zM15 11a.4.4 0 0 1 .41-.4.41.41 0 1 1 0 .81A.41.41 0 0 1 15 11z" data-name="Paint bucket"/></symbol><symbol id="park" viewBox="0 0 32 32"><path d="M5 29v3H3v-3zm14 0v3h-2v-3zm6-29a7 7 0 0 1 1 13.92v3.17l1.79-1.8 1.42 1.42-3.21 3.2V32h-2V13.92A7 7 0 0 1 25 0zm-3 26v2H0v-2zm0-7v2h-3v1h3v2h-3v1h-2v-1H5v1H3v-1H0v-2h3v-1H0v-2zm-5 2H5v1h12zm8-19a5 5 0 1 0 5 5 5 5 0 0 0-5-5zM12 4v2a4 4 0 0 0-3.2 1.6l-.3.4h-1l-.3-.4A4 4 0 0 0 4 6V4a6 6 0 0 1 4 1.53A6 6 0 0 1 12 4z" fill-rule="evenodd"/></symbol><symbol id="picture" viewBox="0 0 32 32"><path d="M19.5 8.67a2.5 2.5 0 1 1-2.5 2.5 2.5 2.5 0 0 1 2.5-2.5zM30 5.79H2v14.35l8.06-7.38 8.66 7.89 5-4.59L30 21.77zm-6.25 13L20.2 22l5.25 4.78H30v-2.3zm-13.68-3.3L2 22.86v3.93h20.48zM32 3.79v25H0v-25z"/></symbol><symbol id="plus-circle-fill" viewBox="0 0 32 32"><path d="M15.93 1a15 15 0 1 0 15 15 15 15 0 0 0-15-15zm7 16h-6v6h-2v-6h-6v-2h6V9h2v6h6z"/></symbol><symbol id="plus-circle" viewBox="0 0 32 32"><path d="M16 3A13 13 0 1 1 3 16 13 13 0 0 1 16 3m0-2a15 15 0 1 0 15 15A15 15 0 0 0 16 1z"/><path d="M23 15h-6V9h-2v6H9v2h6v6h2v-6h6v-2z"/></symbol><symbol id="plus-sign" viewBox="0 0 32 32"><path d="M17 8v7h7v2h-7v7h-2v-7H8v-2h7V8z" fill-rule="evenodd"/></symbol><symbol id="print" viewBox="0 0 32 32"><path d="M29.87 8.06H24v-4H8v4H1.93V22.6H9v3.79h13.9V22.6h7zM10 6.06h12v2H10zm.67 18.33v-8.33h10.52v8.33zm17.2-3.79h-5v-4.54H25v-2H7v2h2v4.54H4V10.06h23.87z"/></symbol><symbol id="question" viewBox="0 0 32 32"><path d="M15.93 7.6A4.87 4.87 0 0 1 17 17.23h-.06v1.68h-2v-3.56h1a2.88 2.88 0 1 0-2.78-3.6v.17l-2-.39a4.88 4.88 0 0 1 4.77-3.93zM16 3a13 13 0 1 0 13 13A13 13 0 0 0 16 3zm0-2A15 15 0 1 1 1 16 15 15 0 0 1 16 1z"/><path d="M17.65 22.38a1.72 1.72 0 1 1-1.72-1.73 1.72 1.72 0 0 1 1.72 1.73" fill-rule="evenodd"/></symbol><symbol id="recycling" viewBox="0 0 32 32"><path d="M27.65 12.13 32 19.38 26.21 30h-7l-4-4L19 21.61l4.57-.12-3-5.08zm-18.44.15 1.13 5.33-2.14 4 5.9-.05.17 8.44H5.79L0 19.87l3.7-6.72zm18.35 11.08-7.64.21-2 2.29L20 28h5zm-15.41.16h-5L5.8 26l1.14 2h5.3zm-4.49-9L5 15l-2.7 4.89L4.64 24l3.62-6.67zm19.34.34-3.69 2.23 2.55 4.34 2.83-.08 1.06-1.93zM21.67 2l3.86 6.09-2.13 5.16-4.9-1.07-2.38-3.89-2.91 5.13L6 9.44 10.08 2zm-1.09 2h-4.76l3.93 6.4 2.45.6 1.11-2.65zm-7.09 0h-2.24L8.67 8.66l3.78 2.08 2.49-4.37z" fill-rule="evenodd"/></symbol><symbol id="sad" viewBox="0 0 32 32"><path d="M16 1A15 15 0 1 1 1 16 15 15 0 0 1 16 1zm0 2a13 13 0 1 0 13 13A13 13 0 0 0 16 3zm0 13a10 10 0 0 1 8.84 5.32l.14.28-1.8.88A8 8 0 0 0 9 22.19l-.13.25L7 21.56A10 10 0 0 1 16 16z"/><circle cx="12" cy="11.96" r="2"/><circle data-name="Oval" cx="20" cy="11.96" r="2"/></symbol><symbol id="save" viewBox="0 0 32 32"><path d="M25 3H7v12h18zm-1 20h-3v6h3zm-5 0H8v6h11zM29 3h-2v14H5V3H3v26h3v-8h20v8h.58L29 26.58zM1 31V1h30v26.41L27.41 31z"/></symbol><symbol id="share-outline" viewBox="0 0 32 32"><path d="M23.35 19.41a4.82 4.82 0 0 0-3.77 1.83l-7.34-4a4.69 4.69 0 0 0 .12-3.39l7-4A4.84 4.84 0 1 0 18.5 7a4.19 4.19 0 0 0 .1 1l-7.24 4.15a4.81 4.81 0 0 0-3.59-1.65 4.85 4.85 0 1 0 0 9.7 4.81 4.81 0 0 0 3.3-1.32L18.68 23a4.51 4.51 0 0 0-.18 1.23 4.85 4.85 0 1 0 4.85-4.85zm0-15.24A2.85 2.85 0 1 1 20.5 7a2.86 2.86 0 0 1 2.85-2.83zM7.77 18.2a2.85 2.85 0 1 1 2.85-2.85 2.86 2.86 0 0 1-2.85 2.85zm15.58 8.91a2.85 2.85 0 1 1 2.85-2.85 2.86 2.86 0 0 1-2.85 2.85z"/></symbol><symbol id="share" viewBox="0 0 32 32"><path d="M20.72 19.57a2.78 2.78 0 0 0-1.73.61l-4.63-3.43a2.61 2.61 0 0 0 0-1.5L19 11.82a2.77 2.77 0 0 0 1.73.62 2.82 2.82 0 1 0-2.81-2.82 2.54 2.54 0 0 0 .14.83l-4.6 3.4a2.78 2.78 0 0 0-1.79-.66 2.81 2.81 0 0 0 0 5.62 2.78 2.78 0 0 0 1.79-.66l4.6 3.4a2.89 2.89 0 0 0-.14.83 2.81 2.81 0 1 0 2.81-2.81z"/></symbol><symbol id="smile" viewBox="0 0 32 32"><path d="M16 1A15 15 0 1 1 1 16 15 15 0 0 1 16 1zm0 2a13 13 0 1 0 13 13A13 13 0 0 0 16 3zM8 15a8 8 0 0 0 16 .25V15h2a10 10 0 0 1-20 .28V15z"/><circle cx="12" cy="11" r="2"/><circle data-name="Oval" cx="20" cy="11" r="2"/></symbol><symbol id="sound-off" viewBox="0 0 32 32"><path d="M16 4a8 8 0 0 0-8 7.75v3.82l15.66-5.89A8 8 0 0 0 16 4zm8 7.69-16 6v2.71l-3.84 3.85h23.67L24 20.41v-8.72zm-6 14.56h-4a2 2 0 0 0 4 0zM16 2a10 10 0 0 1 9.53 7l5.75-2.16.72 1.85L26 11c0 .25 0 .5.05.76v7.87l4 4v2.66H20a4 4 0 0 1-8 0H2v-2.7l4-4v-1.14l-5.27 2L0 18.56l6-2.24V12A10 10 0 0 1 16 2z"/></symbol><symbol id="sound-on" viewBox="0 0 32 32"><path d="M16 4.16a8 8 0 0 0-8 7.75v8.66l-3.84 3.84h23.67L24 20.57v-8.41a8 8 0 0 0-8-8zm2 22.25h-4a2 2 0 0 0 4 0zM16 2.16a10 10 0 0 1 10 9.72v7.86l4 4v2.67H20a4 4 0 0 1-8 0H2v-2.67l4-4v-7.58a10 10 0 0 1 10-10z"/></symbol><symbol id="swingset" viewBox="0 0 32 32"><path d="M27 2v2h2v2H3V4h2V2H1v28h2V8h3v18h8V8h6.5v10.12a4.5 4.5 0 1 0 2 0V8H29v22h2V2zm-3 20.5a2.5 2.5 0 1 1-2.5-2.5 2.5 2.5 0 0 1 2.5 2.5zM8 24v-2h4v2zm4-4H8V8h4z" fill-rule="evenodd"/></symbol><symbol id="table" viewBox="0 0 32 32"><path d="M30 4.07H2v7.75h28zm0 9.75h-8v14.25h8zm-10 0h-8v14.25h8zm-10 0H2v14.25h8zM32 2.07v28H0v-28z"/></symbol><symbol id="target" viewBox="0 0 32 32"><path d="M27 15.11h-2.26A8.81 8.81 0 0 0 17 7.37V5.14h-2v2.23a8.81 8.81 0 0 0-7.74 7.74H5v2h2.26A8.81 8.81 0 0 0 15 24.86v2.23h2v-2.23a8.81 8.81 0 0 0 7.74-7.75H27zm-11 7.81a6.81 6.81 0 1 1 6.81-6.81A6.82 6.82 0 0 1 16 22.92z"/></symbol><symbol id="thumbs-down" viewBox="0 0 32 32"><path d="M11.46 2v1.86h16.15L31.8 18a3 3 0 0 1-2.7 4H29l-3.18-.22 1.45 5.07V27a3 3 0 0 1-.84 2.11 2.86 2.86 0 0 1-4.16 0l-10.8-10.8v2.38H2V2zm14.65 3.86H11.46v9.65L23.7 27.74a.87.87 0 0 0 .51.26h.12a.89.89 0 0 0 .65-.29 1 1 0 0 0 .28-.71v.11l-2.15-7.51 5.94.4h.08a1.05 1.05 0 0 0 .6-.33l.07-.1a1 1 0 0 0 .1-.94zM9.46 4H4v14.71h5.46z"/></symbol><symbol id="thumbs-up" viewBox="0 0 32 32"><path d="M24.33 2a2.84 2.84 0 0 1 2.07.89A3 3 0 0 1 27.26 5v.14l-1.48 5.12 3.27-.22a3 3 0 0 1 2.24 1.11l.12.16a3 3 0 0 1 .41 2.62l-4.21 14.2H11.46V30H2V11.29h9.46v2.38L22.38 2.76A2.82 2.82 0 0 1 24.11 2zM9.46 13.29H4V28h5.46zM24.33 4a.86.86 0 0 0-.65.3L11.46 16.49v9.65h14.65l3.8-12.79a1 1 0 0 0-.07-.76l-.07-.12a1 1 0 0 0-.68-.42l-6 .4 2.19-7.57a1 1 0 0 0-.2-.49L25 4.26a.87.87 0 0 0-.67-.26z"/></symbol><symbol id="tickets" viewBox="0 0 32 32"><path d="M28.32 1.86A2.32 2.32 0 0 1 23.77 1L21.91.61a2.34 2.34 0 0 1-2 1.75V0h-4a2.48 2.48 0 0 1-2.48 2.36A2.48 2.48 0 0 1 11 0H9a2.49 2.49 0 0 1-2.53 2.36A2.48 2.48 0 0 1 4 0H0v32h4a2.48 2.48 0 0 1 5 0h2a2.48 2.48 0 0 1 4.95 0h4v-3.36a2.34 2.34 0 0 1 2 .63 2.31 2.31 0 0 1 .67 2l3.68.72L32 2.58zM17.92 30h-.53a4.46 4.46 0 0 0-7.43-.7 4.49 4.49 0 0 0-3.91-1.66A4.44 4.44 0 0 0 2.53 30H2V2h.55a4.46 4.46 0 0 0 3.92 2.36A4.47 4.47 0 0 0 10 2.68a4.44 4.44 0 0 0 3.48 1.68A4.48 4.48 0 0 0 17.38 2h.54v28zm6.8-.31-.3-.06a4.29 4.29 0 0 0-4.51-3V13.17a1.5 1.5 0 1 0 0-2.84v-6a4.31 4.31 0 0 0 2.41-.91 4.27 4.27 0 0 0 3.35 2.16 4.3 4.3 0 0 0 3.69-1.48l.3.06z"/><ellipse cx="4.98" cy="11.49" rx="1.49" ry="1.5"/><ellipse cx="9.96" cy="11.49" rx="1.49" ry="1.5"/><ellipse cx="14.94" cy="11.49" rx="1.49" ry="1.5"/><ellipse cx="25.02" cy="12.66" rx="1.49" ry="1.5"/></symbol><symbol id="trail" viewBox="0 0 32 32"><path d="m9.09 30.89 3.71-8.84-1.5-3-10.14-2.26v-2l2.91.66V9.49a5.79 5.79 0 0 1-.68-.29A4.12 4.12 0 0 1 1.7 7.66 4.26 4.26 0 1 1 6.18 9.6h-.12v6.23L11 17v-1.82h-.11a3.36 3.36 0 0 1-2.27-2.63 3.44 3.44 0 1 1 4.52 2.62H13V17h6V9.1l5-4.69 5 4.67v8h2v2H18.08l1.31 3-3.2 6.84H14l3.14-6.84-1.36-3h-2.19l1.46 3-3.9 8.84zM24 7.1l-2.94 3V17h6v-6.94zM4.57 3.28a2.16 2.16 0 0 0-1.29 1.24 2.28 2.28 0 0 0 4.2 1.78 2.23 2.23 0 0 0 .18-.88 2.29 2.29 0 0 0-3.09-2.14zm7 7.24a1.34 1.34 0 0 0-.75.67 1.44 1.44 0 1 0 1.94-.61 1.42 1.42 0 0 0-1.21-.06z"/></symbol><symbol id="tram" viewBox="0 0 32 32"><path d="M11.18 28 10 32H7.82L9 28zm11.47 0 1.2 4H21.7l-1.2-4zm1.8-28 .26 5H28v7h-2V7h-1.18l.68 13.06L24.35 27H7.65L6.5 20.06 7.18 7H6v5H4V5h3.29l.26-5zm-1.13 21H8.68l.17 1h3.65v1.32l-3.34.57.19 1.11h13.3l.19-1.11-3.34-.57V22h3.65zm-.5-14H9.19l-.64 12h14.9zm-.27-5H9.45l-.16 3h13.42z" fill-rule="evenodd"/></symbol><symbol id="trash" viewBox="0 0 32 32"><path d="M29 7h-3V5h-3.84V1.55h-12V5h2V3.55h8V5H6v2H3v7h2.09v18H27V14h2zM7.09 30V14H25v16zM27 12H5V9h3V7h16v2h3z"/><path d="m10.068 26.27.077-9.77 2 .016-.077 9.77zm4.909 0 .077-9.77 2 .016-.077 9.77zm4.912.08.066-9.76 2 .014-.066 9.76z"/></symbol><symbol id="twitter" viewBox="0 0 32 32"><path data-name="Twitter" d="M29 7.6a10.27 10.27 0 0 1-3.06.88 5.57 5.57 0 0 0 2.34-3.07 10.54 10.54 0 0 1-3.39 1.34A5.2 5.2 0 0 0 21 5a5.45 5.45 0 0 0-5.33 5.55 5.32 5.32 0 0 0 .14 1.27A14.92 14.92 0 0 1 4.81 6a5.74 5.74 0 0 0-.72 2.8 5.61 5.61 0 0 0 2.37 4.62A5.27 5.27 0 0 1 4 12.74v.07a5.5 5.5 0 0 0 4.28 5.44 4.93 4.93 0 0 1-1.4.2 5.67 5.67 0 0 1-1-.1 5.37 5.37 0 0 0 5 3.85 10.46 10.46 0 0 1-6.63 2.38A10.69 10.69 0 0 1 3 24.51 14.72 14.72 0 0 0 11.18 27c9.82 0 15.17-8.46 15.17-15.8v-.72A10.92 10.92 0 0 0 29 7.6" fill-rule="evenodd"/></symbol><symbol id="user" viewBox="0 0 32 32"><path d="M16 1A15 15 0 1 1 1 16 15 15 0 0 1 16 1zm4.31 19h-8.62l-2.62 7a12.88 12.88 0 0 0 13.85 0zM16 3a13 13 0 0 0-8.59 22.73l2.9-7.73h11.38l2.9 7.73A13 13 0 0 0 16 3zm0 5.6a3.7 3.7 0 1 1-3.7 3.7A3.7 3.7 0 0 1 16 8.6z" fill-rule="evenodd"/></symbol><symbol id="water-faucet" viewBox="0 0 32 32"><path d="M15.5 0a12 12 0 0 1 12 12v5h-6v-5a6 6 0 0 0-12 0v20h-6V12a12 12 0 0 1 12-12zm0 2a10 10 0 0 0-10 10v18h2V12a8 8 0 0 1 15.93-1h2a10 10 0 0 0-9.93-9zm9 16.34 2.83 2.83a4 4 0 1 1-5.66 0zm0 2.83-1.41 1.42a2 2 0 0 0 0 2.82 2 2 0 0 0 2.82 0 2 2 0 0 0 0-2.82zm1-8.17h-2v2h2z" fill-rule="evenodd"/></symbol><symbol id="wifi" viewBox="0 0 32 32"><path d="m.15 11.16 1.51 1.51a20.3 20.3 0 0 1 28.68 0l1.51-1.51a22.42 22.42 0 0 0-31.7 0zm7.55 7.55 1.51 1.51a9.6 9.6 0 0 1 13.58 0l1.51-1.51a11.73 11.73 0 0 0-16.6 0z"/><path d="m3.92 14.93 1.51 1.51a15 15 0 0 1 21.14 0l1.5-1.51a17.07 17.07 0 0 0-24.15 0z"/><circle cx="16" cy="24.4" r="3"/></symbol></svg>