<svg xmlns="http://www.w3.org/2000/svg" viewBox="0 0 396.7 200"><title>Oslo logo sort</title><g id="Layer_2" data-name="Layer 2"><g id="Layer_1-2" data-name="Layer 1"><path d="M375.63,140.78c-7.31,0-13.32-5.75-13.32-17.5S368.4,106,375.63,106,389,111.61,389,123.28,383,140.78,375.63,140.78Zm0,6.53c11.67,0,21.07-9.4,21.07-24,0-14.37-9.31-23.77-21.07-23.77s-21.07,9.4-21.07,23.77C354.56,137.91,364,147.31,375.63,147.31Zm-27.77-1.05v-6.35a10.72,10.72,0,0,1-2.79.35c-3.66,0-5.83-2-5.83-5.92V82.09h-7.49V134.6c0,7.49,3.74,12.27,11.58,12.27A16.05,16.05,0,0,0,347.86,146.26Zm-63.31-33.6c0,6.35,4.62,10.71,13.15,12.45l7.93,1.56c5.31,1.14,7.57,3.23,7.57,7.06,0,4.35-4.44,7.22-11.06,7.22s-11.14-2.52-13.49-7.22l-5.75,3c3.31,6.8,10,10.45,19.42,10.45,10.79,0,18.2-5.66,18.2-13.93,0-7-4.88-11.41-14.89-13.41l-6.71-1.3c-5-1-7.23-3-7.23-6.45,0-3.92,3.92-6.27,9.93-6.27,5.57,0,9.84,2.27,11.76,6.36l5.66-2.87c-2.44-6.1-8.71-9.84-17.33-9.84C291.61,99.51,284.55,105.17,284.55,112.66ZM247,139.91c-11,0-20.2-8.62-20.2-26s9-25.16,20.2-25.16,20.11,7.75,20.11,25.16S257.91,139.91,247,139.91Zm0,7.4c15.58,0,28.3-12.54,28.3-33.44,0-20.2-12.72-32.56-28.3-32.56s-28.39,12.36-28.39,32.56C218.64,134.77,231.35,147.31,247,147.31Z"/><path d="M142.07,114v3.69l5.11-.32-11.12,11.33V108.9l3.39,3.92,2.59-2.6-7.78-7.78-7.78,7.78,2.6,2.6,3.39-3.92v19.48l-10.82-11,5.11.32V114h-11v11h3.69l-.4-5.17L129,129.92c-3.1-.24-6.42-.49-10.15-.54l-8.31-.18-1.86-16.08c-.6-5.59-3.29-8.18-6.78-9.58-1.8-.7-4.09-1.5-5.59-2.09a3.21,3.21,0,0,0-2.29-.3,51.45,51.45,0,0,1-10.38,1.59,51.19,51.19,0,0,1-10.37-1.59,3.23,3.23,0,0,0-2.3.3c-1.49.59-3.79,1.39-5.58,2.09-3.49,1.4-6,4-6.79,9.58l-2.16,16.06-7.31.26a19,19,0,0,0,1.49-7.35,19.15,19.15,0,1,0-38.3,0,19.61,19.61,0,0,0,15.9,19.47,164,164,0,0,0,18.11,3l9.16.93a159.14,159.14,0,0,1-5.66,24.41l5.78,3c2.37-7.12,4-15.15,5.55-26.91l5.46-6.05-.73,36.75c11.87,2.59,24.63,2.59,35.41-.5l-.55-36.82,6,6.62c1.53,11.76,3.18,19.79,5.55,26.91l5.78-3a158.08,158.08,0,0,1-5.67-24.46l19.84-2.18c3.09-.3,4.49-1.39,4.59-4,.07-2.1,0-4.16-.06-6.14l13.05-13.33-.4,5.17H153V114Zm-48.4-6.75a7.37,7.37,0,0,1,4.19.8c3.49,1.7,4.68,2.79,5.18,6.38l1.67,11L96,125.19c-4.29-.1-5-.6-7.18-3.19L76.39,107l7.2.69Zm-24.24.4.36-.18,5.08,6.27L62.51,124.15l1.73-9.74C64.84,110.82,65.94,109.33,69.43,107.63ZM18,122.29c0-8.18,5.58-14.46,13.46-14.46s13.47,6.28,13.47,14.46-5.59,14.27-13.47,14.27S18,130.57,18,122.29Zm41.49,18.46L40,139.55A21,21,0,0,0,46.45,134H57.36l9.49-7.88-.15,7.63Zm12.07,31V122.22l6.12-5.08,7.25,8.94c2.7,3.38,5,4.52,10.77,4.5v40.89A65.15,65.15,0,0,1,71.52,171.77Zm37-30.85L97.89,130.55l8.26-.11,4.17,3.53,22.15-.19v5.38Z"/><path d="M82.39,29.33A90.29,90.29,0,0,1,128,41.4l13.27-26.14A108.1,108.1,0,0,0,119.5,5.69l-3.79,10.37c-2.79-.9-5.39-1.6-8.08-2.19L110,3A141.36,141.36,0,0,0,87.18,0l-.7,11c-1.39-.1-2.79-.1-4.09-.1s-2.69,0-4.09.1L77.61,0A141.33,141.33,0,0,0,54.76,3l2.4,10.88c-2.7.59-5.29,1.29-8.08,2.19L45.29,5.69a108.1,108.1,0,0,0-21.75,9.57L36.81,41.4A90.28,90.28,0,0,1,82.39,29.33ZM41.7,13.07l4.19,9.77A98.55,98.55,0,0,1,63.14,18L61.45,7.58a80.39,80.39,0,0,1,11-1.5l1.2,10.48c3.69-.3,5.78-.4,8.77-.4s5.09.1,8.78.4l1.2-10.48a80.39,80.39,0,0,1,11,1.5L101.65,18a98.55,98.55,0,0,1,17.25,4.88l4.19-9.77a60.75,60.75,0,0,1,10.08,4.49l-7.78,15.86a100,100,0,0,0-43-10.18,100,100,0,0,0-43,10.18L31.62,17.56A60.75,60.75,0,0,1,41.7,13.07Z"/><rect x="27.03" y="118.2" width="8.78" height="8.58"/><path d="M67.43,93.87A29,29,0,0,1,64,80.9c0-11.67,8.78-19,19.55-19s19.55,7.28,19.55,19a28.85,28.85,0,0,1-3.39,13l4.59,2.19a32.29,32.29,0,0,0,4.19-15.16c0-14.37-11.57-24.34-24.94-24.34s-24.94,10-24.94,24.34a32.29,32.29,0,0,0,4.19,15.16Z"/><path d="M70.82,82.19v6.89l3.53.84a9.51,9.51,0,0,0,9.24,8.83A9.41,9.41,0,0,0,92.73,90l3.63-.87V82.19c0-7.28-5.19-13.06-12.77-13.06S70.82,74.91,70.82,82.19ZM91.37,82v5.2l-2.69.88V89c0,3.59-2.3,5.68-5.09,5.68S78.5,92.57,78.5,89v-.9l-2.69-.88V82c0-5,3.49-7.79,7.78-7.79S91.37,77,91.37,82Z"/><path d="M82.39,35.51C36.51,35.51,0,70.22,0,117.61S36.51,200,82.39,200s82.4-35,82.4-82.39S128.28,35.51,82.39,35.51Zm0,157.51C40.5,193,7.18,161.5,7.18,117.61S40.5,42.39,82.39,42.39s75.22,31.33,75.22,75.22S124.29,193,82.39,193Z"/></g></g></svg>