<svg xmlns="http://www.w3.org/2000/svg" viewBox="0 0 396.97 199.18"><defs><style>.cls-1{fill:#fff;}</style></defs><title>Oslo logo hvit</title><g id="Layer_2" data-name="Layer 2"><g id="Layer_1-2" data-name="Layer 1"><path class="cls-1" d="M65.84,175.92c12,2.58,24.32,2.41,34.6-.48l-.56-37.57,6.77,7.49v.13c1.5,11.53,3.12,19.43,5.39,26.39l5.07-2.62a160,160,0,0,1-5.58-24.2l-.07-.41,20.26-2.23c3-.29,4.14-1.26,4.23-3.6.06-1.88,0-3.72,0-5.5l0-.78,13.93-14.25-.45,5.84h2.86V114H142.07v2.87l5.73-.37-12.54,12.78V107.41l3.81,4.4,2-2-7.22-7.21-7.21,7.21,2,2,3.81-4.4v21.53l-12.24-12.48,5.73.37V114H115.79v10.17h2.86l-.45-5.84L129.57,130l-1-.08c-3-.23-6.33-.49-10.12-.54l-8.67-.19-1.9-16.43c-.51-4.73-2.58-7.67-6.53-9.25-.85-.33-1.8-.68-2.73-1s-2.06-.75-2.86-1.07a2.8,2.8,0,0,0-2.06-.28,51.76,51.76,0,0,1-10.46,1.6,49.64,49.64,0,0,1-10.47-1.61,2.87,2.87,0,0,0-2.06.29c-.79.32-1.79.69-2.85,1.07s-1.88.69-2.73,1c-3.82,1.53-5.83,4.39-6.53,9.26l-2.21,16.4-8.27.29.24-.58a18.48,18.48,0,0,0,1.46-7.19A19,19,0,0,0,31,102.52a19.3,19.3,0,0,0-3.18,38.22,162.42,162.42,0,0,0,18.09,3l9.57,1-.07.42a158.36,158.36,0,0,1-5.57,24.15l5.07,2.62c2.28-7,3.89-14.86,5.39-26.39v-.13l6.26-6.93v.4Zm16.38-3.18a59.12,59.12,0,0,1-11.18-1l-.32-.06V121.61l6.58-5.46,7.5,9.26c2.7,3.37,5,4.35,10.31,4.35h.55v41.61l-.31.07A63.74,63.74,0,0,1,82.22,172.74ZM108,140.91l-.13-.13-11.32-11,9.37-.13,4.18,3.53,22.4-.19v6.16h-.14Zm-48.77-.17h-.06l-21-1.29,1.2-.66a20.46,20.46,0,0,0,6.35-5.48l.12-.15h11l10.06-8.34-.18,8.66ZM31,136.54c-8,0-13.86-6.17-13.86-14.67S23,107,31,107s13.87,6.25,13.87,14.86S39.06,136.54,31,136.54Zm73.76-11.2-9.23-.17c-4.4-.11-5.16-.6-7.48-3.34l-13-15.7,8.16.78,10-.5a7.65,7.65,0,0,1,4.39.84c3.61,1.75,4.89,3,5.41,6.69Zm-43.25-.59,1.92-10.83c.62-3.75,1.83-5.34,5.4-7.07l.37-.18.29-.13L75,113.36Z"/><path class="cls-1" d="M23.67,15,36.58,40.42A90.09,90.09,0,0,1,82,28.51a90.1,90.1,0,0,1,45.42,11.91L140.32,15a106.88,106.88,0,0,0-21-9.23l-3.79,10.37-.36-.12c-2.74-.88-5.29-1.57-8-2.18l-.39-.09,2.4-10.87A140.66,140.66,0,0,0,87.16,0l-.7,11-.4,0c-1.39-.1-2.75-.1-4.07-.1s-2.68,0-4.06.1l-.4,0-.7-11a140.66,140.66,0,0,0-22,2.88l2.39,10.87-.39.09c-2.75.61-5.31,1.3-8,2.18l-.37.12L44.64,5.77A106.79,106.79,0,0,0,23.67,15Zm101.5,18.53-.36-.17A99.29,99.29,0,0,0,82,23.22c-14.27,0-28.67,3.41-42.82,10.14l-.35.17L30.69,17l.34-.19a61.91,61.91,0,0,1,10.14-4.51l.35-.12,4.18,9.77a99.12,99.12,0,0,1,16.58-4.71L60.59,6.85,61,6.77a79.63,79.63,0,0,1,11-1.5l.38,0,1.2,10.48c3.54-.28,5.53-.37,8.42-.37s4.88.09,8.43.37l1.2-10.48.38,0a79.83,79.83,0,0,1,11,1.5l.37.08-1.7,10.36a99.22,99.22,0,0,1,16.59,4.71l4.18-9.77.35.12A61.54,61.54,0,0,1,133,16.78l.34.19-.07.13Z"/><path class="cls-1" d="M27,126h8v-7.78H27Z"/><path class="cls-1" d="M83.19,56.54c-13.76,0-24.54,10.51-24.54,23.94a31.16,31.16,0,0,0,4,14.63l3.87-1.85a29.13,29.13,0,0,1-3.25-12.78c0-11.22,8.39-19.36,19.95-19.36s20,8.14,20,19.36a29.13,29.13,0,0,1-3.25,12.78l3.88,1.85a31.18,31.18,0,0,0,4-14.63C107.73,67.05,97,56.54,83.19,56.54Z"/><path class="cls-1" d="M70.82,88.34l3.5.84,0,.28a8.8,8.8,0,0,0,17.58,0l0-.28,3.6-.87V81.77c0-7.34-5.2-12.66-12.37-12.66S70.82,74.43,70.82,81.77Zm12.37,6.3c-3.28,0-5.49-2.44-5.49-6.08V88L75,87.07v-5.5a7.75,7.75,0,0,1,8.18-8.18,7.75,7.75,0,0,1,8.18,8.18v5.5L88.68,88v.61C88.68,92.14,86.42,94.64,83.19,94.64Z"/><path class="cls-1" d="M82,35.49c-22.27,0-42.91,8.23-58.12,23.17C8.48,73.78,0,94.56,0,117.19s8.48,43.48,23.87,58.68c15.23,15,35.87,23.31,58.12,23.31s42.9-8.28,58.13-23.31c15.39-15.2,23.87-36,23.87-58.68s-8.48-43.41-23.87-58.53C124.91,43.72,104.27,35.49,82,35.49ZM82,193c-43.1,0-75.61-32.59-75.61-75.81S38.89,41.57,82,41.57s75.62,32.51,75.62,75.62S125.1,193,82,193Z"/><path class="cls-1" d="M376,140.64c-7.44,0-13.57-5.87-13.57-17.77s6.22-17.51,13.57-17.51,13.57,5.69,13.57,17.51S383.4,140.64,376,140.64Zm0,6.21c11.64,0,21-9.36,21-24,0-14.36-9.28-23.72-21-23.72s-21,9.36-21,23.72C355,137.49,364.32,146.85,376,146.85Zm-91.38-34.66c0,6.3,4.63,10.59,13,12.34l8,1.58c5.52,1.13,7.79,3.32,7.79,7.26,0,4.47-4.46,7.44-11.29,7.44-6.56,0-11.2-2.45-13.65-7.18L283,136.52c3.33,6.74,10.07,10.24,19.26,10.24,10.76,0,18.12-5.6,18.12-13.83,0-6.91-4.91-11.29-14.8-13.3l-6.74-1.31c-5.16-1-7.44-3.16-7.44-6.66,0-3.94,3.85-6.47,10.16-6.47,5.69,0,10,2.27,11.9,6.3l5.34-2.72c-2.45-6.12-8.84-9.62-17.16-9.62C291.75,99.15,284.58,104.57,284.58,112.19Zm-37.91,27.57c-11.11,0-20.48-8.75-20.48-26.35s9.1-25.47,20.48-25.47,20.4,7.88,20.4,25.47S257.7,139.76,246.67,139.76Zm101.19,6v-6a13.69,13.69,0,0,1-2.62.26c-3.86,0-6-2.19-6-6.13V81.64H332v52.61c0,7.79,4,12.16,11.47,12.16A14.61,14.61,0,0,0,347.86,145.8Zm-101.19,1c15.58,0,28.28-12.52,28.28-33.44,0-20.22-12.7-32.56-28.28-32.56s-28.36,12.34-28.36,32.56C218.31,134.33,231,146.85,246.67,146.85Z"/></g></g></svg>