<?xml version="1.0" encoding="UTF-8"?>
<svg id="Layer_1" xmlns="http://www.w3.org/2000/svg" width="256" height="256" viewBox="0 0 771 771">
  <defs>
    <style>
      .cls-1 {
        fill: #f9c66b;
      }

      .cls-1,
      .cls-2,
      .cls-3,
      .cls-4,
      .cls-5,
      .cls-6,
      .cls-7 {
        stroke-width: 0px;
      }

      .cls-2 {
        fill: #f8f0dd;
      }

      .cls-3 {
        fill: #6fe9ff;
      }

      .cls-4 {
        fill: #43f8b6;
      }

      .cls-5 {
        fill: #d0bfae;
      }

      .cls-6 {
        fill: #b3f5ff;
      }

      .cls-7 {
        fill: #ff8274;
      }
    </style>
  </defs>
  <path class="cls-7" d="m0,385.4979h128.49965v-128.49755h128.50175v256.9993H0v-128.50175Z" />
  <path class="cls-1"
    d="m256.9993,385.4979c0-70.93145,57.5682-128.49755,128.49965-128.49755s128.50175,57.56609,128.50175,128.49755c0,70.93566-57.5682,128.50175-128.50175,128.50175s-128.49965-57.56609-128.49965-128.50175Z" />
  <path class="cls-6"
    d="m513.9986,642.4972c0-70.93145,57.5682-128.49755,128.49965-128.49755s128.50175,57.56609,128.50175,128.49755c0,70.93566-57.5682,128.50175-128.50175,128.50175s-128.49965-57.56609-128.49965-128.50175Z" />
  <path class="cls-4"
    d="m0,642.4972C0,571.56574,57.5682,513.99965,128.49965,513.99965s128.50175,57.56609,128.50175,128.49755c0,70.93566-57.5682,128.50175-128.50175,128.50175S0,713.43286,0,642.4972Z" />
  <path class="cls-2" d="m385.50105,513.99965v128.49755h128.49755v128.50175h-256.9993v-256.9993h128.50175Z" />
  <rect class="cls-3" x="256.9993" y=".00105" width="256.9993" height="256.9993" />
  <rect class="cls-5" x="513.9986" y="257.00035" width="256.9993" height="256.9993" />
</svg>