<?xml version="1.0" encoding="UTF-8"?>
<svg width="48px" height="48px" viewBox="0 0 48 48" version="1.1" xmlns="http://www.w3.org/2000/svg" xmlns:xlink="http://www.w3.org/1999/xlink">
    <!-- Generator: Sketch 50.2 (55047) - http://www.bohemiancoding.com/sketch -->
    <title>Payment</title>
    <desc>Created with Sketch.</desc>
    <defs></defs>
    <g id="Payment" stroke="none" stroke-width="1" fill="none" fill-rule="evenodd">
        <g transform="translate(2.000000, 10.000000)" fill="#034B45">
            <path d="M0,15 L0,8 L0,0 L44,0 L44,8 L44,15 L44,29 L0,29 L0,15 Z M3,15 L3,26 L41,26 L41,15 L3,15 Z M3,8 L41,8 L41,3 L3,3 L3,8 Z" id="Combined-Shape"></path>
            <path d="M32,20.5 C32,21.881 30.881,23 29.5,23 C28.119,23 27,21.881 27,20.5 C27,19.119 28.119,18 29.5,18 C30.881,18 32,19.119 32,20.5" id="Fill-88"></path>
            <path d="M38,20.5 C38,21.881 36.881,23 35.5,23 C34.119,23 33,21.881 33,20.5 C33,19.119 34.119,18 35.5,18 C36.881,18 38,19.119 38,20.5" id="Fill-89"></path>
        </g>
    </g>
</svg>