<?xml version="1.0" encoding="UTF-8"?>
<svg width="48px" height="48px" viewBox="0 0 48 48" version="1.1" xmlns="http://www.w3.org/2000/svg" xmlns:xlink="http://www.w3.org/1999/xlink">
    <!-- Generator: Sketch 50.2 (55047) - http://www.bohemiancoding.com/sketch -->
    <title>Kid friendly</title>
    <desc>Created with Sketch.</desc>
    <defs></defs>
    <g id="Kid-friendly" stroke="none" stroke-width="1" fill="none" fill-rule="evenodd">
        <g id="Page-1" transform="translate(4.000000, 4.000000)">
            <path d="M20,0 C8.97142857,0 0,8.97142857 0,20 C0,31.0285714 8.97142857,40 20,40 C31.0285714,40 40,31.0285714 40,20 C40,8.97142857 31.0285714,0 20,0 M20,2.85714286 C29.4671429,2.85714286 37.1428571,10.5328571 37.1428571,20 C37.1428571,29.4671429 29.4671429,37.1428571 20,37.1428571 C10.5328571,37.1428571 2.85714286,29.4671429 2.85714286,20 C2.85714286,10.5328571 10.5328571,2.85714286 20,2.85714286" id="Fill-1" fill="#034B45"></path>
            <path d="M31.0714286,20.3571429 C31.0714286,26.4714286 26.1142857,31.4285714 20,31.4285714 C13.8857143,31.4285714 8.92857143,26.4714286 8.92857143,20.3571429" id="Stroke-3" stroke="#034B45" stroke-width="2.42857143"></path>
            <path d="M29.2857143,15.3571429 C29.2857143,16.7388095 28.1657143,17.8571429 26.7857143,17.8571429 C25.4057143,17.8571429 24.2857143,16.7388095 24.2857143,15.3571429 C24.2857143,13.9754762 25.4057143,12.8571429 26.7857143,12.8571429 C28.1657143,12.8571429 29.2857143,13.9754762 29.2857143,15.3571429" id="Fill-5" fill="#034B45"></path>
            <path d="M16.4285714,15.3571429 C16.4285714,16.7388095 15.3085714,17.8571429 13.9285714,17.8571429 C12.5485714,17.8571429 11.4285714,16.7388095 11.4285714,15.3571429 C11.4285714,13.9754762 12.5485714,12.8571429 13.9285714,12.8571429 C15.3085714,12.8571429 16.4285714,13.9754762 16.4285714,15.3571429" id="Fill-7" fill="#034B45"></path>
        </g>
    </g>
</svg>