<svg xmlns="http://www.w3.org/2000/svg" width="32" height="32" viewBox="0 0 32 32"><defs><style>.cls-1{fill-rule:evenodd;}</style></defs><g id="_24h" data-name="24h"><path id="Combined-Shape" class="cls-1" d="M15.34,0,22,3.85V6.16L15.34,10V6a12,12,0,1,0,9.19,3.53h0L26,8.15A14,14,0,1,1,15.34,4h0ZM12,13.18a2.94,2.94,0,0,1,3.24,2.88,3.92,3.92,0,0,1-1.52,2.88h0l-2,1.9h3.52v2H8.84V21l3.48-3.42a1.88,1.88,0,0,0,.73-1.94A1,1,0,0,0,12,15c-.95,0-1.16,1-1.19,1.24h0l-.05.3-2-.31,0-.29A3.18,3.18,0,0,1,12,13.18Zm10.3.23V19.1h1.23V21H22.34v1.83H20.27V21H16.21V19.27l3.88-5.86Zm-2.07,3L18.6,19.1h1.67Z"/></g></svg>