<?xml version="1.0" encoding="UTF-8"?><svg id="Adjust" xmlns="http://www.w3.org/2000/svg" viewBox="0 0 32 32"><path d="M10.01864,15.97252c0-1.86945-1.28796-3.4306-3.01855-3.8783V3.97252h-2v8.12158c-1.73145.44751-3.01953,2.00885-3.01953,3.87842,0,1.86877,1.28809,3.42999,3.01953,3.87744v8.12256h2v-8.12268c1.73059-.44763,3.01855-2.00873,3.01855-3.87732ZM6.00008,17.99107c-1.11328,0-2.01953-.90527-2.01953-2.01855s.90625-2.01953,2.01953-2.01953,2.01855.90625,2.01855,2.01953-.90527,2.01855-2.01855,2.01855Z"/><path d="M20.01864,7.97252c0-2.2168-1.80273-4.01953-4.01855-4.01953-2.2168,0-4.01953,1.80273-4.01953,4.01953,0,1.86877,1.28809,3.42999,3.01953,3.87744v16.12256h2V11.84983c1.73059-.44763,3.01855-2.00873,3.01855-3.87732ZM16.00008,9.99107c-1.11328,0-2.01953-.90527-2.01953-2.01855s.90625-2.01953,2.01953-2.01953,2.01855.90625,2.01855,2.01953-.90527,2.01855-2.01855,2.01855Z"/><path d="M27.00008,20.09422V3.97252h-2v16.12158c-1.73145.44751-3.01953,2.00885-3.01953,3.87842,0,2.21582,1.80273,4.01855,4.01953,4.01855,2.21582,0,4.01855-1.80273,4.01855-4.01855,0-1.86945-1.28796-3.4306-3.01855-3.8783ZM26.00008,25.99107c-1.11328,0-2.01953-.90527-2.01953-2.01855s.90625-2.01953,2.01953-2.01953,2.01855.90625,2.01855,2.01953-.90527,2.01855-2.01855,2.01855Z"/></svg>