<?xml version="1.0" encoding="UTF-8"?><svg id="Adjust" xmlns="http://www.w3.org/2000/svg" viewBox="0 0 32 32"><defs><style>.cls-1{fill-rule:evenodd;}</style></defs><path class="cls-1" d="M5,12.1V3.97h2v8.13c1.73.44,3,2.01,3,3.87s-1.27,3.43-3,3.87v8.13h-2v-8.13c-1.73-.44-3-2.01-3-3.87s1.27-3.43,3-3.87ZM8,15.97c0,1.1-.9,2-2,2s-2-.9-2-2,.9-2,2-2,2,.9,2,2Z"/><path class="cls-1" d="M15,11.85v16.13h2V11.85c1.73-.44,3-2.01,3-3.87,0-2.21-1.79-4-4-4s-4,1.79-4,4c0,1.86,1.27,3.43,3,3.87ZM18,7.97c0,1.1-.9,2-2,2s-2-.9-2-2,.9-2,2-2,2,.9,2,2Z"/><path class="cls-1" d="M30,23.97c0-1.86-1.27-3.43-3-3.87V3.97h-2v16.13c-1.73.44-3,2.01-3,3.87,0,2.21,1.79,4,4,4s4-1.79,4-4ZM26,25.97c1.1,0,2-.9,2-2s-.9-2-2-2-2,.9-2,2,.9,2,2,2Z"/></svg>