<svg width="33" height="32" viewBox="0 0 33 32" fill="none" xmlns="http://www.w3.org/2000/svg">
<path fill-rule="evenodd" clip-rule="evenodd" d="M5.82861 12.126V4H7.82861V12.126C9.55384 12.5701 10.8286 14.1362 10.8286 16C10.8286 17.8638 9.55384 19.4299 7.82861 19.874V28H5.82861V19.874C4.10339 19.4299 2.82861 17.8638 2.82861 16C2.82861 14.1362 4.10339 12.5701 5.82861 12.126ZM8.82861 16C8.82861 17.1046 7.93318 18 6.82861 18C5.72404 18 4.82861 17.1046 4.82861 16C4.82861 14.8954 5.72404 14 6.82861 14C7.93318 14 8.82861 14.8954 8.82861 16Z" fill="#2A2859"/>
<path fill-rule="evenodd" clip-rule="evenodd" d="M15.8286 11.874V28H17.8286V11.874C19.5538 11.4299 20.8286 9.86384 20.8286 8C20.8286 5.79086 19.0378 4 16.8286 4C14.6195 4 12.8286 5.79086 12.8286 8C12.8286 9.86384 14.1034 11.4299 15.8286 11.874ZM18.8286 8C18.8286 9.10457 17.9332 10 16.8286 10C15.724 10 14.8286 9.10457 14.8286 8C14.8286 6.89543 15.724 6 16.8286 6C17.9332 6 18.8286 6.89543 18.8286 8Z" fill="#2A2859"/>
<path fill-rule="evenodd" clip-rule="evenodd" d="M30.8286 24C30.8286 22.1362 29.5538 20.5701 27.8286 20.126V4H25.8286V20.126C24.1034 20.5701 22.8286 22.1362 22.8286 24C22.8286 26.2091 24.6195 28 26.8286 28C29.0378 28 30.8286 26.2091 30.8286 24ZM26.8286 26C27.9332 26 28.8286 25.1046 28.8286 24C28.8286 22.8954 27.9332 22 26.8286 22C25.724 22 24.8286 22.8954 24.8286 24C24.8286 25.1046 25.724 26 26.8286 26Z" fill="#2A2859"/>
</svg>
