<svg id="org" xmlns="http://www.w3.org/2000/svg" viewBox="0 0 32 32"><defs><style>.cls-1{stroke-width:0}</style></defs><path class="cls-1" d="M15 6.5h4v2h-4zM16 0h2v4h-2zM9.5 14.514h-2V17H5v2h2.5v2.514h2V19H12v-2H9.5v-2.486z"/><path class="cls-1" transform="rotate(-44.999 12.11 4.132)" d="M11.109 2.132h2v4h-2z"/><path class="cls-1" transform="rotate(-44.999 21.859 4.131)" d="M19.859 3.132h4v2h-4z"/><path class="cls-1" d="M32 20.012c0-1.655-1.346-3-3-3h-.846l-4.165-7H0v19.352h5.032a3.573 3.573 0 0 0 6.895 0h9.125a3.574 3.574 0 0 0 6.896 0H32v-9.352Zm-15-8h5.848l2.991 5H17v-5ZM9.745 29.364a1.563 1.563 0 1 1-2.466-1.92 1.563 1.563 0 0 1 2.466 1.92Zm16.02 0a1.563 1.563 0 1 1-2.467-1.918 1.563 1.563 0 0 1 2.467 1.918Zm4.234-2h-2.077a3.57 3.57 0 0 0-6.845 0h-9.174a3.57 3.57 0 0 0-6.846 0H2.001V12.012h13v7H29a1 1 0 0 1 1 1l-.001 7.352Z"/></svg>