<?xml version="1.0" encoding="UTF-8"?><svg id="Apple" xmlns="http://www.w3.org/2000/svg" viewBox="0 0 32 32"><defs><style>.cls-1{fill-rule:evenodd;}</style></defs><path class="cls-1" d="M14.85,8.65s-.05-.02-.08-.03c-.34-.11-.74-.24-1.14-.36-1.2-.35-2.75-.67-4.35-.36-4.51.89-6.78,5-6.78,9.6,0,2.95,1.32,6.23,2.87,8.74.78,1.26,1.64,2.38,2.48,3.19.42.41.85.76,1.28,1.01.42.25.91.45,1.44.45,1.24,0,2.19-.31,3-.58h.03c.82-.28,1.5-.5,2.4-.5s1.59.22,2.4.49h.03c.81.28,1.76.59,3,.59.52,0,1.02-.2,1.44-.45.43-.25.86-.6,1.28-1.01.84-.81,1.7-1.93,2.48-3.19,1.54-2.5,2.87-5.79,2.87-8.74,0-4.6-2.28-8.7-6.78-9.6-.42-.08-.83-.12-1.24-.13.62-.85.96-1.89.96-2.95v-2.32h-2.33c-1.35,0-2.65.53-3.6,1.48-.25.24-.46.51-.65.79-.65-1.39-1.61-2.55-3.03-3.67l-1.24,1.57c1.26,1,2.01,1.95,2.5,3.05.37.82.6,1.76.77,2.93ZM17,7.89h.33c.83,0,1.62-.32,2.2-.9.58-.58.9-1.35.9-2.16v-.32h-.33c-.83,0-1.61.33-2.2.9-.58.58-.91,1.35-.91,2.16v.32ZM17.4,10.68c-.42.13-.95.29-1.4.29s-.97-.16-1.4-.29c-.17-.05-.34-.11-.51-.17-.32-.11-.65-.22-1.02-.32-1.11-.32-2.28-.54-3.4-.32-3.25.64-5.17,3.62-5.17,7.63,0,2.43,1.12,5.34,2.57,7.69.72,1.16,1.48,2.13,2.17,2.8.35.33.65.57.91.72.27.16.4.17.42.17.91,0,1.59-.22,2.4-.49h.03c.81-.28,1.76-.59,3-.59s2.19.31,3,.58h.03c.82.28,1.5.5,2.4.5.02,0,.15-.01.42-.17.25-.15.56-.39.91-.72.69-.67,1.46-1.64,2.17-2.8,1.44-2.34,2.57-5.25,2.57-7.69,0-4.02-1.92-6.99-5.17-7.63-1.12-.22-2.29,0-3.4.32-.37.11-.7.22-1.02.32-.17.06-.34.11-.51.17Z"/></svg>