<?xml version="1.0" encoding="UTF-8"?><svg id="Apple" xmlns="http://www.w3.org/2000/svg" viewBox="0 0 32 32"><path d="M29.58468,16.37193c-.38867-4.59375-3.37695-7.10742-3.50586-7.21289-1.48071-1.21515-3.38281-1.40479-4.97705-1.27148.23669-.2644.45215-.5415.62451-.84375,1.08008-1.89453.41992-3.78516.39062-3.86426l-.23633-.6582-.7002-.00293h-.05078c-2.34863,0-4.07031.68359-5.11914,2.0332-.06714.0863-.12439.17542-.18359.26404-1.20691-2.20728-2.93335-3.63348-3.05273-3.72986l-1.25781,1.55566c.0365.02936,3.29175,2.72943,3.45776,6.14569-.54883-.13861-.91089-.32324-.9519-.34589l-.13184-.06348c-4.7334-1.83496-8.12207,1.1416-8.30176,1.30664-3.37207,3.37207-4.10742,7.8623-2.12695,12.98633,1.36035,3.52148,3.54199,6.15332,3.87109,6.53906.96289,1.37402,2.28223,1.81055,3.50098,1.81055,1.03906,0,2.00391-.31738,2.61426-.64062,2.46875-1.23145,4.39258-.29492,4.45703-.26367,3.31445,1.7793,5.68359.12598,6.41211-.91992,3.83984-4.44629,5.6123-8.76074,5.26758-12.82422ZM17.59054,5.77916c.54395-.70215,1.46875-1.11328,2.75488-1.22754.01562.41211-.04688.95801-.35645,1.50098-.49609.87012-1.5332,1.54297-3.02832,1.97363-.01465-.66895.09277-1.55664.62988-2.24707ZM22.74874,27.95787c-.13477.18359-1.3916,1.74219-3.90723.3916-.11523-.06055-2.86816-1.46191-6.30469.24902-.24023.12695-2.39551,1.17383-3.58691-.56543l-.07227-.09277c-.08691-.10059-8.64551-10.07129-1.91699-16.80176.08105-.07129,1.57129-1.35254,3.84668-1.35254.7002,0,1.47363.12109,2.30371.43555.4707.24512,2.85547,1.35547,5.58398.21289.03906-.01562,3.9707-1.48828,6.11328.26855.02441.02051,2.46484,2.07324,2.78418,5.83789.29688,3.50684-1.31445,7.32422-4.84375,11.41699Z"/></svg>