<svg width="32" height="32" viewBox="0 0 32 32" fill="none" xmlns="http://www.w3.org/2000/svg">
<path fill-rule="evenodd" clip-rule="evenodd" d="M14.8461 8.76223C14.8208 8.75391 14.7953 8.74547 14.7694 8.73693C14.428 8.62428 14.0311 8.49329 13.6303 8.37648C12.429 8.0264 10.8819 7.70242 9.28388 8.01908C4.77564 8.9124 2.5 13.0152 2.5 17.6154C2.5 20.5663 3.8217 23.8477 5.36627 26.3519C6.14527 27.6149 7.01023 28.7284 7.84836 29.5404C8.26684 29.9458 8.6987 30.2956 9.12884 30.5497C9.54579 30.796 10.041 31 10.5652 31C11.8083 31 12.7541 30.6885 13.5645 30.4215L13.5954 30.4114C14.4133 30.142 15.0944 29.9231 16 29.9231C16.9056 29.9231 17.5867 30.142 18.4046 30.4114L18.4354 30.4215C19.2459 30.6885 20.1917 31 21.4348 31C21.959 31 22.4542 30.796 22.8712 30.5497C23.3013 30.2956 23.7332 29.9458 24.1516 29.5404C24.9898 28.7284 25.8547 27.6149 26.6337 26.3519C28.1783 23.8477 29.5 20.5663 29.5 17.6154C29.5 13.0152 27.2244 8.9124 22.7161 8.01908C22.2977 7.93616 21.8827 7.89717 21.4766 7.89107C22.0951 7.03648 22.4348 6.0047 22.4348 4.93703V2.61539L20.1008 2.61539C18.7515 2.61635 17.4551 3.14778 16.4981 4.09589C16.2524 4.33937 16.0342 4.60523 15.8455 4.88869C15.198 3.49506 14.2323 2.33825 12.8168 1.21632L11.5745 2.78369C12.8334 3.78152 13.586 4.73052 14.0772 5.8313C14.443 6.65127 14.6803 7.59133 14.8461 8.76223ZM17 8.00001H17.3339C18.1593 8.00001 18.949 7.67507 19.5298 7.0996C20.1104 6.52445 20.4348 5.74637 20.4348 4.93703V4.61539L20.1015 4.61539C19.2763 4.61606 18.4865 4.94125 17.9058 5.51665C17.3253 6.09181 17.0006 6.86973 17 7.67909V8.00001ZM17.3983 10.786C16.9734 10.921 16.4524 11.0769 16 11.0769C15.5476 11.0769 15.0266 10.921 14.6017 10.786C14.4309 10.7317 14.2624 10.676 14.0916 10.6195C13.7702 10.5133 13.4404 10.4043 13.0708 10.2966C11.9623 9.97361 10.792 9.75913 9.67263 9.98093C6.42139 10.6252 4.5 13.6002 4.5 17.6154C4.5 20.0491 5.62395 22.96 7.06851 25.302C7.78407 26.4621 8.54955 27.4351 9.23995 28.1039C9.58573 28.4389 9.89266 28.678 10.1461 28.8277C10.4128 28.9853 10.546 29 10.5652 29C11.4708 29 12.1519 28.781 12.9698 28.5117L13.0007 28.5016C13.8111 28.2346 14.7569 27.9231 16 27.9231C17.2431 27.9231 18.1889 28.2346 18.9993 28.5016L19.0302 28.5117C19.848 28.781 20.5292 29 21.4348 29C21.454 29 21.5872 28.9852 21.8539 28.8277C22.1073 28.678 22.4143 28.4389 22.76 28.1039C23.4504 27.4351 24.2159 26.4621 24.9315 25.302C26.376 22.96 27.5 20.0491 27.5 17.6154C27.5 13.6002 25.5786 10.6252 22.3274 9.98093C21.208 9.75913 20.0377 9.97361 18.9292 10.2966C18.5596 10.4043 18.2298 10.5133 17.9084 10.6195C17.7376 10.676 17.5691 10.7317 17.3983 10.786Z" fill="#2A2859"/>
</svg>
