<svg xmlns="http://www.w3.org/2000/svg" width="32" height="32" viewBox="0 0 32 32"><g id="bath"><path d="M9.08,2.36H9.9a6.35,6.35,0,0,1,3.65,1.29,4.51,4.51,0,0,1,1.69,2.48,4.08,4.08,0,0,1,.15,1c0,.12,0,.12.13.12h1.69c.11,0,.11,0,.11.1V9.4c0,.1,0,.1-.11.1H11.5c-.1,0-.1,0-.1-.11V7.34c0-.12,0-.1.11-.1h1.68a.2.2,0,0,0,.13,0,2.43,2.43,0,0,0-.65-1.57,3.49,3.49,0,0,0-1.57-1,4.93,4.93,0,0,0-2-.23,4.65,4.65,0,0,0-1.63.4A3.16,3.16,0,0,0,6.12,6a2.72,2.72,0,0,0-.35.84,3.81,3.81,0,0,0-.09.82c0,1.51,0,3,0,4.52v4.07c0,.11,0,.1.11.1H17.06c.14,0,.12,0,.12-.13V15c0-.12,0-.11.11-.11h7.8c.15,0,.13,0,.13.13V16.3c0,.1,0,.1.1.1h6v2.15h-1s0,0,0,.05v.1c0,1.05,0,2.1,0,3.16a6.12,6.12,0,0,1-3.18,5.25,5.76,5.76,0,0,1-1.85.61c-.24,0-.48,0-.72.06a.08.08,0,0,0-.08,0l.71,1.74-.24,0c-.49,0-1,0-1.48.06a.13.13,0,0,1-.15-.1c-.24-.54-.49-1.08-.72-1.62a.17.17,0,0,0-.18-.13H9.44c-.09,0-.14,0-.18.1-.24.53-.5,1.05-.75,1.57a.87.87,0,0,0-.07.17s-.07,0-.11,0H8.17l-.53,0-.95,0,.83-1.82-.58-.08a5.47,5.47,0,0,1-2.13-.84,6,6,0,0,1-2.57-3.68,6.37,6.37,0,0,1-.18-1.51c0-1.07,0-2.14,0-3.21,0-.16,0-.14-.13-.14H.66v-.6q0-.69,0-1.38a.18.18,0,0,1,.1,0H3.58s.07,0,.06-.06V10.82c0-.91,0-1.82,0-2.73,0-.23,0-.45,0-.67a4.61,4.61,0,0,1,.94-2.83,5.39,5.39,0,0,1,2.1-1.65,6.65,6.65,0,0,1,1.7-.5Zm7.09,23.26h8.27A3.47,3.47,0,0,0,26,25.24a3.92,3.92,0,0,0,2.09-3.41c0-1.06,0-2.11,0-3.17v-.05s0-.05-.06-.05H25.37c-.17,0-.15,0-.15.15v5.36c0,.16,0,.14-.14.14H17.33c-.15,0-.15,0-.15-.14V18.43c0-.07,0-.08-.08-.08H4.34c-.12,0-.11,0-.11.11V21.7a4,4,0,0,0,.65,2.22A3.56,3.56,0,0,0,8,25.62Zm6.89-6.06V17.19c0-.16,0-.14-.14-.14H19.41c-.05,0-.07,0-.07.07s0,.24,0,.36v4.46c0,.14,0,.12.13.12H23c.11,0,.11,0,.11-.11V19.56Z"/></g></svg>