<svg id="Layer_1" data-name="Layer 1" xmlns="http://www.w3.org/2000/svg" width="32" height="32" viewBox="0 0 32 32"><title>Artboard 3</title><path d="M.63046,16.33076l.02313-.0012q.01137.692-.00006,1.38394-.01155,0-.02307.001Z"/><path d="M31.34648,16.40366a.01831.01831,0,0,1,.02306.00123v1.11194a.0412.0412,0,0,0-.01967-.00232Z"/><path d="M31.34987,17.51451a.0412.0412,0,0,1,.01967.00232v1.03782l-.02653-.003c.00063-.04939.00153-.09878.00182-.14817Q31.34747,17.959,31.34987,17.51451Z"/><path d="M9.89666,2.345a.01755.01755,0,0,0,.002.02216l-.69777-.00344A.015.015,0,0,1,9.20479,2.345Z"/><path d="M.63046,17.71451q.01152-.00107.02308-.001l.00227.59394-.02535.00011Z"/><path d="M9.08121,2.3638l.11966-.00011.69777.00344a6.35588,6.35588,0,0,1,3.656,1.29106,4.5879,4.5879,0,0,1,1.689,2.48443,4.16447,4.16447,0,0,1,.14463.97382c.00325.12161.00428.12177.1305.12179q.84621.0001,1.69241.00007c.10833,0,.10643-.01408.1064.10637Q17.31735,8.37,17.31731,9.39533c0,.106-.00116.107-.10882.107q-2.85363.0003-5.70726,0c-.10409,0-.10495-.00113-.105-.11086q-.0004-1.02533-.00011-2.05066c0-.1161-.00483-.10248.11017-.1025q.84-.00014,1.68006-.00062a.25547.25547,0,0,0,.136-.01374,2.42381,2.42381,0,0,0-.6492-1.57142,3.54825,3.54825,0,0,0-1.57084-.98176,5.08473,5.08473,0,0,0-1.982-.23318,4.6864,4.6864,0,0,0-1.62721.403A3.18025,3.18025,0,0,0,6.12467,5.9752a2.62309,2.62309,0,0,0-.35647.84736,3.49013,3.49013,0,0,0-.08934.8176q.00423,2.26049.007,4.521.00322,2.02584.007,4.05168c0,.00412,0,.00823,0,.01235-.00041.11872-.00215.10239.11005.10272q.55587.00163,1.11174.00277,2.60037.00134,5.20074.00219,1.8159.00129,3.63178.00494.65463.00113,1.30925.00481c.143.00057.12416.0013.12426-.129q.00045-.60532.00022-1.21063c.00009-.12343-.01167-.11206.11248-.11208q1.76036-.00033,3.52072-.00014,2.13713,0,4.27427.00031c.153.00006.133-.019.13332.1279.00094.42825.00013.8565.00049,1.28475.00009.09983.001.10105.09931.101q1.92091-.001,3.84183-.00277c.67115-.00069,1.34229-.00316,2.01344-.00278a.45053.45053,0,0,1,.1697.00451l.00339,1.11085q-.00249.44448-.005.88894c-.00029.04939-.00119.09878-.00182.14817l-.9263.004c-.02883.00013-.05774.00145-.08646-.00024-.03752-.0022-.05129.015-.04968.051.00148.03288.00021.06588.00019.09883-.00051,1.05426.01873,2.109-.00561,3.16269a6.10046,6.10046,0,0,1-3.17552,5.2488,5.53166,5.53166,0,0,1-1.848.60979c-.241.03456-.48277.04638-.72483.06133a.1185.1185,0,0,0-.08028.01763l.71,1.73978c-.08666.008-.1619.01811-.23744.02125-.4935.02055-.98719.03711-1.48049.06144a.13422.13422,0,0,1-.15213-.101c-.23741-.54159-.4818-1.08011-.71983-1.62143a.164.164,0,0,0-.17944-.12105c-.33334.00884-.66706.00332-1.00064.00332H9.51372a.47478.47478,0,0,1-.074-.00059c-.08987-.01434-.13664.02138-.17655.10641-.246.52421-.49947,1.04493-.74969,1.56717a.8004.8004,0,0,0-.07375.16825c-.03214.03678-.07448.02383-.11429.02361-.05282-.0003-.10563-.00025-.15845-.00035-.176-.01683-.35248-.02335-.52918-.02779-.30816-.00775-.61627-.018-.946-.02785l.82686-1.81772c-.19992-.026-.39027-.04446-.579-.0767a5.46143,5.46143,0,0,1-2.13447-.84653A6.03781,6.03781,0,0,1,2.2395,23.184a6.10054,6.10054,0,0,1-.17716-1.51544c.00277-1.07044.00113-2.14089.00052-3.21133-.00009-.15386.02269-.1395-.13617-.13974-.37877-.00056-.75755.00007-1.13632-.00051a.3663.3663,0,0,1-.13456-.00958L.65354,17.7135q.01161-.692,0-1.38394a.134.134,0,0,1,.09487-.01637q1.24081.005,2.48162.0106c.11525.00049.23052-.001.34576.00059.04521.00062.07061-.013.06679-.06278-.00189-.02455-.00022-.04937-.00024-.07407q-.00129-1.698-.00263-3.3959-.00091-.98789-.00264-1.97575-.00278-1.36438-.0067-2.72877c-.00062-.22222-.0071-.44451-.00363-.66665A4.68738,4.68738,0,0,1,4.56612,4.5938,5.34574,5.34574,0,0,1,6.66653,2.94241a6.40792,6.40792,0,0,1,1.70439-.50147C8.60684,2.40524,8.84341,2.38,9.08121,2.3638Zm7.09028,23.2586q4.13213,0,8.26426-.00028a3.43788,3.43788,0,0,0,1.58776-.38533,3.92441,3.92441,0,0,0,2.0841-3.41038c.01757-1.05383.00505-2.10817.00592-3.16228,0-.01648-.00095-.033-.00005-.04941.00237-.043-.019-.0579-.05991-.0558-.06161.00316-.12334.00512-.185.0053q-1.24751.00374-2.495.00694c-.17724.00054-.15109-.01731-.15114.15014q-.00087,2.68063-.00073,5.36127c-.00006.15637.023.13481-.13819.13484q-3.87889.00076-7.75778.00035c-.14481,0-.14486-.00006-.14486-.14125q0-2.77945,0-5.55892a.65636.65636,0,0,1,.00062-.08638c.009-.0669-.02075-.0844-.084-.08384-.16869.00149-.33743-.00442-.50616-.00509q-.8893-.00351-1.77862-.00538-.95732-.00227-1.91463-.0035-2.56326-.00155-5.12653-.00222c-.66294-.00041-1.32588-.00275-1.98883-.00357q-.72265-.00088-1.44532.00005c-.122.00011-.10926-.01312-.10928.11518-.00025,1.08707-.002,2.17416.00049,3.26123a3.92762,3.92762,0,0,0,.65156,2.21546,3.55912,3.55912,0,0,0,3.1136,1.70276Q12.0826,25.6229,16.17149,25.6224Zm6.89036-6.06535q0-1.186-.00029-2.372c-.00012-.156.01965-.13644-.13846-.1365q-1.71722-.00075-3.43444-.00027c-.02471,0-.04962.002-.07408-.0004-.05244-.0052-.07334.0146-.07191.06932.0031.11934.00093.23882.00093.35824q0,2.22991,0,4.45983c0,.14281-.00716.12522.12658.12525q1.74192.00039,3.48385.00023c.10922,0,.10921.0082.10783-.107-.00024-.02058,0-.04118,0-.06177Z"/></svg>