<svg xmlns="http://www.w3.org/2000/svg" width="32" height="32" viewBox="0 0 32 32"><g id="Children-bathroom"><rect x="15.18" y="1.87" width="2" height="28.06"/><circle cx="7.6" cy="10.1" r="2.5"/><path d="M12.63,23.74,11.5,14.49H3.7L2.57,23.74l2,.18v6h2V23.15h2v6.78h2v-6ZM4.9,21.15l.57-4.66H9.73l.57,4.66Z"/><path d="M28.65,14.49H20.86l-1.13,9.25,1.13.12v3.29h.89v2.78h2V27.15h2v2.78h2V27.15h.89V23.87l1.14-.13Zm-5.79,2h3.78v8.66H22.86Z"/><circle cx="24.75" cy="10.1" r="2.5"/><path d="M28,11.1h-.56v.57a1.74,1.74,0,0,0,1.74,1.74h.56v-.57A1.74,1.74,0,0,0,28,11.1Z"/><path d="M19.76,12.84v.57h.56a1.74,1.74,0,0,0,1.74-1.74V11.1h-.57A1.73,1.73,0,0,0,19.76,12.84Z"/></g></svg>