<svg id="Layer_1" data-name="Layer 1" xmlns="http://www.w3.org/2000/svg" width="32" height="32" viewBox="0 0 32 32"><title>Artboard 2</title><path d="M31.36,22.46959v.02578c-.0614.0338-.03.09179-.0301.1368q-.00316,1.76427-.00173,3.52854c0,.164.01207.14651-.14309.1466q-.93364.00051-1.86729.00027c-.11351,0-.11355.00081-.11472.10839-.00024.02146,0,.04293,0,.06439q0,1.423-.00037,2.846a.51244.51244,0,0,1-.00805.15354l-2.08637-.00107c-.00222-.047-.00636-.09408-.00637-.14111q-.00057-1.43037-.00029-2.86074c0-.16948,0-.16949-.16958-.16949H5.15434a.66174.66174,0,0,1-.0901-.00068c-.06634-.00921-.083.02277-.07607.08134a.66334.66334,0,0,1,.00049.07726q0,1.05666.00014,2.11333c.00021.30916.002.61833.00309.92748H2.87832l.00162-3.10544a.23047.23047,0,0,1,.00011-.02576c.00531-.047-.00916-.074-.0627-.068a.696.696,0,0,1-.07727.00044q-.95356,0-1.90714-.00049c-.17158-.00034-.16048.03183-.16052-.15462C.67218,25.0141.67385,23.87582.67023,22.73755A.846.846,0,0,0,.641,22.334c-.00388-.0077.004-.02395.01033-.03373a.25791.25791,0,0,0,.02058-.15066q.00086-.85049.00062-1.701c.0002-.16652-.01887-.14654.14073-.14689.35222-.0008.7045-.00383,1.05662.00223a.19221.19221,0,0,0,.18483-.10165q.4967-.75147,1.0013-1.4977a.43921.43921,0,0,0,.079-.26191q-.00289-7.8541-.00244-15.70819a.6369.6369,0,0,1,.02991-.21422c.04723-.00028.09445-.00082.14168-.00082q12.32717,0,24.65432-.00008c.03433,0,.06866-.00065.103-.001.04936.0134.08658.03344.07448.097a.55893.55893,0,0,0-.00109.10285q0,7.723-.00177,15.446a.371.371,0,0,0,.08355.24473q.70524.903,1.40349,1.81151a.19069.19069,0,0,0,.17166.08249c.46374-.0031.92752-.00156,1.39129-.00154.03,0,.06013.00081.09017.00006.03646-.00091.05667.01312.05511.05248-.00119.03-.00008.06011-.00008.09017q0,.934.0008,1.868C31.32919,22.36558,31.31072,22.42492,31.36,22.46959Zm-5.35495-6.92006.02271-.00724V4.77148c0-.16391,0-.16392-.15973-.16392H5.40492a.67175.67175,0,0,1-.09011-.00066c-.06674-.00912-.08291.02444-.076.082a.32522.32522,0,0,1,.00019.03863q0,5.27687.00056,10.55373a.17566.17566,0,0,0,.01981.12025c.03939-.05749.07513-.10858.10978-.16039.3267-.48853.65449-.97632.97822-1.46681a.17247.17247,0,0,1,.16612-.08847c.50666.00686,1.01337.00958,1.52008.01283.18616.0012.18617.00019.18617-.17954q0-1.8105,0-3.621c0-.10858-.015-.11464.1107-.113.01288.00018.02577,0,.03865,0q2.9316,0,5.86318,0c.14729,0,.14734.00007.14734.15087q0,1.83627.00011,3.67255c0,.11927.00068.11975.11658.1201q.89553.00274,1.79107.00475c.14107.00022.121.01522.12243-.124.00063-.06013.0001-.12027.0001-.18041q0-1.73963.00011-3.47925c0-.11964-.01491-.11307.1081-.11307q2.97025,0,5.9405,0c.12381,0,.1102-.00628.11044.11107.00005.02148,0,.043,0,.06443v3.60811c0,.03007.00143.06021-.00024.09019-.00219.03933.01621.05325.05357.05115.03-.00168.06012-.00044.09018-.0002.60544.00486,1.21087.01123,1.81631.01281a.18993.18993,0,0,1,.16975.08688c.13049.17569.26667.34717.40078.52018Q25.55213,14.96552,26.00505,15.54953ZM4.648,20.22766c7.43115.03106,14.85723.08984,22.30185.07181-.03735-.05194-.06294-.08993-.09091-.12608q-.46889-.606-.9384-1.21159-1.1514-1.48647-2.30146-2.974a.16906.16906,0,0,0-.14921-.07874c-.03.001-.06006-.00171-.0901-.00191-.45517-.00316-.91034-.00864-1.36551-.00879-1.8725-.00061-3.74493-.01454-5.6174-.02411-1.85094-.00945-3.70192-.01151-5.55285-.02668-1.05657-.00866-2.11324-.0041-3.16984-.00938a.18316.18316,0,0,0-.17564.09437q-1.39481,2.09392-2.79377,4.18507A.242.242,0,0,0,4.648,20.22766Zm11.348,2.21718v-.00368H3.00543c-.02577,0-.05155-.00012-.07732,0-.12088.00065-.11194-.01159-.112.10919q-.00022.72171-.00007,1.4434c0,.17408,0,.17408.17849.17408h26.0198c.02148,0,.043-.00017.06444,0,.11618.001.11083.0051.11076-.11339q-.00042-.72815-.00012-1.45629c0-.01718-.00113-.03444.00006-.05153.0032-.04583-.02241-.06025-.06286-.05985-.02147.00021-.04295-.00007-.06443-.00024-.66991-.00531-1.33981-.01458-2.00971-.01521-1.82546-.00171-3.65084-.015-5.47625-.02442C19.71622,22.43739,17.8561,22.44484,15.996,22.44484Zm-4.69545-8.89347c.31748,0,.635-.00136.95242.00119.06083.00048.081-.01607.08075-.07937q-.00357-.77867-.00012-1.55734c.00029-.06662-.01972-.08822-.08735-.088-.62637.00217-1.25274.001-1.87911.00159-.0887.00008-.09049.002-.09059.09323-.00062.51483.001,1.02966-.00186,1.54447-.00038.06832.02.08627.08632.08561C10.67418,13.54965,10.98739,13.55137,11.30057,13.55137Zm8.17666.004q.46352,0,.927,0c.11366,0,.10771.01174.10769-.09972q-.00014-.73389.00007-1.46777c.00005-.11068.00541-.10748-.10273-.10738q-.92056.00078-1.84115.00045c-.09953.00007-.10134.00131-.10146.09563-.00064.49784.00082.99569-.00164,1.49352-.00032.06588.01634.08771.08521.0869C18.8592,13.55327,19.16823,13.55533,19.47723,13.55534Z"/><path d="M3.16247,2.52034l-.00062-.02658H28.06076l.00071.02468c-.03434.00035-.06867.001-.103.001q-12.32716.00007-24.65432.00008C3.25692,2.51952,3.2097,2.52006,3.16247,2.52034Z"/><path d="M29.19461,29.47992l.00027.02632h-2.0878l.00116-.02739Z"/></svg>