<svg xmlns="http://www.w3.org/2000/svg" width="32" height="32" viewBox="0 0 32 32"><defs><style>.cls-1{fill-rule:evenodd;}</style></defs><g id="bike"><path id="Combined-Shape" class="cls-1" d="M24.33,4.38l.48,1.94-2.94.73L24,13.17A6.43,6.43,0,0,1,25.5,13a6.51,6.51,0,1,1-3.33.92h0L21,10.54l-.2,0-3,9.92H12.92a6.52,6.52,0,1,1,0-2h1.61l-5-8.28,10.8-1.59-1-3ZM6.5,15A4.5,4.5,0,1,0,11,19.5,4.51,4.51,0,0,0,6.5,15Zm19,0A4.5,4.5,0,1,0,30,19.5,4.51,4.51,0,0,0,25.5,15Zm-19,3A1.5,1.5,0,1,1,5,19.5,1.5,1.5,0,0,1,6.5,18Zm19,0A1.5,1.5,0,1,1,24,19.5,1.5,1.5,0,0,1,25.5,18Zm-6.91-7.1-5.81.85,3.68,6.09ZM12,6V8H6V6Z"/></g></svg>