<svg xmlns="http://www.w3.org/2000/svg" viewBox="0 0 32 32"><path d="m24.33 4.38.48 1.94-2.94.73L24 13.17a6.43 6.43 0 0 1 1.5-.17 6.51 6.51 0 1 1-3.33.92L21 10.54h-.2l-3 9.92h-4.88a6.52 6.52 0 1 1 0-2h1.61l-5-8.28 10.8-1.59-1-3zM6.5 15a4.5 4.5 0 1 0 4.5 4.5A4.51 4.51 0 0 0 6.5 15zm19 0a4.5 4.5 0 1 0 4.5 4.5 4.51 4.51 0 0 0-4.5-4.5zm-19 3A1.5 1.5 0 1 1 5 19.5 1.5 1.5 0 0 1 6.5 18zm19 0a1.5 1.5 0 1 1-1.5 1.5 1.5 1.5 0 0 1 1.5-1.5zm-6.91-7.1-5.81.85 3.68 6.09zM12 6v2H6V6z" fill-rule="evenodd"/></svg>