<svg xmlns="http://www.w3.org/2000/svg" viewBox="0 0 32 32"><path d="m26.44 8.62-1.58-.08.53-.54 3 .11V6.73l-2.8-.14-.14-2.81L24 3.76l.1 2.7-.53.54-.07-1.33h-1.38l.09 2.54a10.76 10.76 0 1 0 1.72 1.72l2.53.09zM15.54 25.3a8.73 8.73 0 1 1 5.34-15.61l-1.48 1.48a6.54 6.54 0 0 0-3.86-1.25 6.68 6.68 0 1 0 5.3 2.64l1.47-1.48a8.71 8.71 0 0 1-6.77 14.22zm4.66-8.73a4.66 4.66 0 1 1-4.66-4.65 4.58 4.58 0 0 1 2.41.69l-2 2.06a2.2 2.2 0 0 0-.36 0 1.94 1.94 0 1 0 1.94 1.94 2.11 2.11 0 0 0-.09-.56l2-2a4.68 4.68 0 0 1 .76 2.52z"/></svg>