<?xml version="1.0" encoding="UTF-8"?><svg id="cogwheel" xmlns="http://www.w3.org/2000/svg" viewBox="0 0 32 32"><path d="M13.26,31.08l-.69-3.62c-.83-.25-1.61-.57-2.34-.96l-2.91,2.06-3.78-3.78,1.87-3.2c-.36-.68-.65-1.4-.87-2.12l-3.65-.73.16-5.33,3.49-.86c.24-.8.57-1.57.97-2.3l-2.02-2.88,3.81-3.75,3.08,1.83c.69-.37,1.42-.67,2.17-.9l.7-3.68,5.35.12.83,3.56c.75.23,1.48.53,2.18.9l3.08-1.82,3.81,3.75-2.01,2.88c.42.76.75,1.54.99,2.35l3.47.81.16,5.34-3.64.73c-.22.74-.52,1.46-.88,2.14l1.85,3.18-3.78,3.79-2.91-2.06c-.73.4-1.5.72-2.3.96l-.84,3.5-5.35.12ZM10.1,24.14l.61.33c.87.55,1.86.96,2.96,1.22l.63.15.61,3.2,2.12-.05.76-3.15.57-.16c1.09-.27,2.04-.68,2.92-1.23l.53-.33.63.39,2.01,1.43,1.5-1.5-1.62-2.77.25-.58c.51-.86.89-1.78,1.12-2.75l.16-.66.83-.12,2.37-.47-.06-2.12-3.12-.73-.18-.61c-.24-1.02-.63-1.96-1.21-2.89l-.35-.56.35-.58,1.42-2.02-1.51-1.49-2.78,1.65-.52-.33c-.88-.52-1.78-.89-2.72-1.12l-.58-.14-.18-.69-.59-2.55-2.11-.05-.61,3.26-.75.18c-.91.23-1.79.59-2.6,1.07l-.51.3-.58-.26-2.25-1.33-1.51,1.49,1.8,2.57-.35.56c-.57.93-.98,1.88-1.22,2.89l-.14.59-3.17.78-.06,2.13,3.21.61.16.65c.23.93.61,1.88,1.11,2.73l.31.52-.39.62-1.3,2.23,1.5,1.5,2.56-1.82Z"/><path d="M16,22.93c-3.84,0-6.96-3.12-6.96-6.96s3.12-6.96,6.96-6.96,6.96,3.12,6.96,6.96-3.12,6.96-6.96,6.96ZM16,11.01c-2.74,0-4.96,2.23-4.96,4.96s2.23,4.96,4.96,4.96,4.96-2.23,4.96-4.96-2.23-4.96-4.96-4.96Z"/></svg>