<svg width="33" height="32" viewBox="0 0 33 32" fill="none" xmlns="http://www.w3.org/2000/svg">
<path fill-rule="evenodd" clip-rule="evenodd" d="M16.8286 9C12.9626 9 9.82861 12.134 9.82861 16C9.82861 19.866 12.9626 23 16.8286 23C20.6946 23 23.8286 19.866 23.8286 16C23.8286 12.134 20.6946 9 16.8286 9ZM11.8286 16C11.8286 13.2386 14.0672 11 16.8286 11C19.59 11 21.8286 13.2386 21.8286 16C21.8286 18.7614 19.59 21 16.8286 21C14.0672 21 11.8286 18.7614 11.8286 16Z" fill="#2A2859"/>
<path fill-rule="evenodd" clip-rule="evenodd" d="M14.1619 1H19.4953L20.2735 4.50179C21.06 4.7371 21.8127 5.05092 22.5223 5.43415L25.5495 3.50778L29.3207 7.27902L27.3944 10.3061C27.7776 11.0158 28.0915 11.7685 28.3268 12.5552L31.8286 13.3333V18.6667L28.3268 19.4448C28.0915 20.2315 27.7777 20.9842 27.3944 21.6939L29.3207 24.721L25.5495 28.4922L22.5223 26.5658C21.8127 26.9491 21.06 27.2629 20.2735 27.4982L19.4953 31H14.1619L13.3838 27.4982C12.5972 27.2629 11.8445 26.9491 11.1348 26.5658L8.1076 28.4922L4.33636 24.721L6.26278 21.6938C5.87954 20.9841 5.56572 20.2314 5.3304 19.4448L1.82861 18.6667V13.3333L5.3304 12.5552C5.56573 11.7685 5.87958 11.0158 6.26284 10.3061L4.33649 7.27902L8.10773 3.50778L11.1349 5.43415C11.8445 5.05092 12.5972 4.7371 13.3838 4.50179L14.1619 1ZM13.957 6.41788L15.0815 6.08146L15.7663 3H17.8909L18.5757 6.08146L19.7002 6.41788C20.3545 6.61363 20.981 6.87477 21.572 7.19395L22.6053 7.75196L25.2697 6.05644L26.7721 7.55879L25.0766 10.2232L25.6346 11.2565C25.9538 11.8476 26.215 12.474 26.4107 13.1284L26.7472 14.2529L29.8286 14.9377V17.0623L26.7472 17.7471L26.4107 18.8716C26.215 19.526 25.9538 20.1524 25.6346 20.7435L25.0766 21.7768L26.7721 24.4412L25.2697 25.9436L22.6053 24.248L21.572 24.806C20.981 25.1252 20.3545 25.3864 19.7002 25.5821L18.5757 25.9185L17.8909 29H15.7663L15.0815 25.9185L13.957 25.5821C13.3027 25.3864 12.6762 25.1252 12.0851 24.806L11.0518 24.248L8.38737 25.9436L6.88502 24.4412L8.58059 21.7767L8.02258 20.7434C7.70339 20.1524 7.44225 19.5259 7.24649 18.8716L6.91008 17.7471L3.82861 17.0623V14.9377L6.91007 14.2529L7.24649 13.1284C7.44226 12.474 7.70342 11.8476 8.02263 11.2565L8.58065 10.2232L6.88515 7.55879L8.3875 6.05644L11.0519 7.75196L12.0852 7.19395C12.6763 6.87477 13.3027 6.61363 13.957 6.41788Z" fill="#2A2859"/>
</svg>
