<svg xmlns="http://www.w3.org/2000/svg" viewBox="0 0 32 32"><path d="M7.5 12.5c4.21 0 7.5 2 7.5 4.5v10.5C15 30 11.71 32 7.5 32S0 30 0 27.5V17c0-2.52 3.29-4.5 7.5-4.5zM13 27.08a10.27 10.27 0 0 1-5.5 1.42A10.27 10.27 0 0 1 2 27.08v.42C2 28.68 4.35 30 7.5 30s5.5-1.32 5.5-2.5zm0-3.5A10.27 10.27 0 0 1 7.5 25 10.27 10.27 0 0 1 2 23.58V24c0 1.18 2.35 2.5 5.5 2.5S13 25.18 13 24zM24.5 0C28.71 0 32 2 32 4.5V22c0 2.52-3.29 4.5-7.5 4.5S17 24.52 17 22V4.5C17 2 20.29 0 24.5 0zM30 21.58A10.27 10.27 0 0 1 24.5 23a10.27 10.27 0 0 1-5.5-1.42V22c0 1.18 2.35 2.5 5.5 2.5S30 23.18 30 22zm-17-1.5a10.27 10.27 0 0 1-5.5 1.42A10.27 10.27 0 0 1 2 20.08v.42C2 21.68 4.35 23 7.5 23s5.5-1.32 5.5-2.5zm17-2a10.27 10.27 0 0 1-5.5 1.42 10.27 10.27 0 0 1-5.5-1.42v.42c0 1.18 2.35 2.5 5.5 2.5s5.5-1.32 5.5-2.5zM7.5 14.5C4.35 14.5 2 15.82 2 17s2.35 2.5 5.5 2.5S13 18.18 13 17s-2.35-2.5-5.5-2.5zm22.5.08A10.27 10.27 0 0 1 24.5 16a10.27 10.27 0 0 1-5.5-1.42V15c0 1.18 2.35 2.5 5.5 2.5S30 16.18 30 15zm0-3.5a10.27 10.27 0 0 1-5.5 1.42 10.27 10.27 0 0 1-5.5-1.42v.42c0 1.18 2.35 2.5 5.5 2.5s5.5-1.32 5.5-2.5zm0-3.5A10.27 10.27 0 0 1 24.5 9 10.27 10.27 0 0 1 19 7.58V8c0 1.18 2.35 2.5 5.5 2.5S30 9.18 30 8zM24.5 2C21.35 2 19 3.32 19 4.5S21.35 7 24.5 7 30 5.68 30 4.5 27.65 2 24.5 2z" fill-rule="evenodd"/></svg>