<svg xmlns="http://www.w3.org/2000/svg" width="32" height="32" viewBox="0 0 32 32"><defs><style>.cls-1{fill-rule:evenodd;}</style></defs><g id="coin-stacks"><path id="Combined-Shape" class="cls-1" d="M7.5,12.5c4.21,0,7.5,2,7.5,4.5h0V27.5C15,30,11.71,32,7.5,32S0,30,0,27.5H0V17C0,14.48,3.29,12.5,7.5,12.5ZM13,27.08A10.27,10.27,0,0,1,7.5,28.5,10.27,10.27,0,0,1,2,27.08H2v.42C2,28.68,4.35,30,7.5,30S13,28.68,13,27.5h0Zm0-3.5A10.27,10.27,0,0,1,7.5,25,10.27,10.27,0,0,1,2,23.58H2V24c0,1.18,2.35,2.5,5.5,2.5S13,25.18,13,24h0ZM24.5,0C28.71,0,32,2,32,4.5h0V22c0,2.52-3.29,4.5-7.5,4.5S17,24.52,17,22h0V4.5C17,2,20.29,0,24.5,0ZM30,21.58A10.27,10.27,0,0,1,24.5,23,10.27,10.27,0,0,1,19,21.58h0V22c0,1.18,2.35,2.5,5.5,2.5S30,23.18,30,22h0Zm-17-1.5A10.27,10.27,0,0,1,7.5,21.5,10.27,10.27,0,0,1,2,20.08H2v.42C2,21.68,4.35,23,7.5,23S13,21.68,13,20.5h0Zm17-2a10.27,10.27,0,0,1-5.5,1.42A10.27,10.27,0,0,1,19,18.08h0v.42c0,1.18,2.35,2.5,5.5,2.5S30,19.68,30,18.5h0ZM7.5,14.5C4.35,14.5,2,15.82,2,17s2.35,2.5,5.5,2.5S13,18.18,13,17,10.65,14.5,7.5,14.5Zm22.5.08A10.27,10.27,0,0,1,24.5,16,10.27,10.27,0,0,1,19,14.58h0V15c0,1.18,2.35,2.5,5.5,2.5S30,16.18,30,15h0Zm0-3.5a10.27,10.27,0,0,1-5.5,1.42A10.27,10.27,0,0,1,19,11.08h0v.42c0,1.18,2.35,2.5,5.5,2.5S30,12.68,30,11.5h0Zm0-3.5A10.27,10.27,0,0,1,24.5,9,10.27,10.27,0,0,1,19,7.58h0V8c0,1.18,2.35,2.5,5.5,2.5S30,9.18,30,8h0ZM24.5,2C21.35,2,19,3.32,19,4.5S21.35,7,24.5,7,30,5.68,30,4.5,27.65,2,24.5,2Z"/></g></svg>