<svg data-name="Layer 1" xmlns="http://www.w3.org/2000/svg" viewBox="0 0 32 32"><circle cx="16" cy="16" r="1.5"/><circle cx="16.07" cy="19.933" r="1"/><circle cx="16.07" cy="12.067" r="1"/><path d="M20.342 18.467a1 1 0 1 0-1.366.366 1 1 0 0 0 1.366-.366Zm-7.178-5.3a1 1 0 1 0 .366 1.366 1 1 0 0 0-.366-1.366Zm6.812 1.733a1 1 0 1 0-1.366-.367 1 1 0 0 0 1.366.366Zm-7.812 2.2a1 1 0 1 0 1.366.367 1 1 0 0 0-1.366-.366Z"/><path d="M31.252 17v-2h-1.94a13.24 13.24 0 0 0-1.286-4.788l1.683-.972-1-1.732-1.675.967a13.472 13.472 0 0 0-3.509-3.509l.967-1.675-1.732-1-.972 1.683A13.24 13.24 0 0 0 17 2.687V.747h-2v1.94a13.24 13.24 0 0 0-4.788 1.287L9.24 2.291l-1.732 1 .967 1.675a13.472 13.472 0 0 0-3.509 3.509l-1.675-.967-1 1.732 1.683.972A13.24 13.24 0 0 0 2.687 15H.747v2h1.94a13.24 13.24 0 0 0 1.287 4.788l-1.683.972 1 1.732 1.675-.967a13.473 13.473 0 0 0 3.509 3.509l-.967 1.675 1.732 1 .972-1.683A13.24 13.24 0 0 0 15 29.313v1.94h2v-1.94a13.24 13.24 0 0 0 4.788-1.287l.972 1.683 1.732-1-.967-1.675a13.473 13.473 0 0 0 3.509-3.509l1.675.967 1-1.732-1.683-.972A13.24 13.24 0 0 0 29.313 17ZM16 27.363A11.363 11.363 0 1 1 27.363 16 11.376 11.376 0 0 1 16 27.363Z"/><circle cx="16" cy="8.134" r="1.5"/><circle cx="16" cy="23.866" r="1.5"/><path d="M11.498 11.498a1.5 1.5 0 1 0-2.121 0 1.5 1.5 0 0 0 2.121 0Zm9.004 9.004a1.5 1.5 0 1 0 2.121 0 1.5 1.5 0 0 0-2.121 0Z"/><circle cx="8.134" cy="16" r="1.5"/><circle cx="23.866" cy="16" r="1.5"/><path d="M9.377 20.502a1.5 1.5 0 1 0 2.121 0 1.5 1.5 0 0 0-2.121 0Zm13.246-9.004a1.5 1.5 0 1 0-2.121 0 1.5 1.5 0 0 0 2.121 0Z"/></svg>