<svg xmlns="http://www.w3.org/2000/svg" viewBox="0 0 32 32"><path d="M27.82 5.12C27.82 2 20.39 1.17 16 1.17S4.18 2 4.18 5.12v22.2l.46.29a20.46 20.46 0 0 0 11 3.21H16c5.26 0 9.91-2 11.53-3.4l.34-.29v-22zm-2 13.49a18.85 18.85 0 0 1-9.88 2.64 18.46 18.46 0 0 1-9.75-2.63v-5a20.45 20.45 0 0 0 9.51 2.34h.3a22.07 22.07 0 0 0 9.82-2.32zm0-7.32A18.73 18.73 0 0 1 16 13.93a18.64 18.64 0 0 1-9.8-2.63V7.49C8.7 8.69 13 9.07 16 9.07s7.31-.38 9.82-1.59zM16 3.17c5.91 0 9.54 1.3 9.83 1.9-.29.7-3.92 2-9.83 2S6.55 5.8 6.19 5.19v-.05c.36-.7 3.96-1.97 9.81-1.97zm-.06 25.65a18.74 18.74 0 0 1-9.75-2.61v-5.29a20.69 20.69 0 0 0 9.51 2.33 22.86 22.86 0 0 0 10.12-2.32v5.25a18.92 18.92 0 0 1-9.88 2.64z"/></svg>