<svg xmlns="http://www.w3.org/2000/svg" width="32" height="32" viewBox="0 0 32 32">
  <g fill="none" fill-rule="evenodd">
    <g fill="#000" fill-rule="nonzero" transform="translate(-1 1)">
      <path d="M30.335,3.665 C26.7814972,0.112790939 21.0215028,0.112790939 17.468,3.665 L17,4.133 L16.532,3.665 C14.248692,1.29283644 10.8620998,0.339061486 7.67641797,1.17097893 C4.49073613,2.00289637 2.00289637,4.49073613 1.17097893,7.67641797 C0.339061486,10.8620998 1.29283644,14.248692 3.665,16.532 L15.586,28.453 L17,29.867 L18.414,28.453 L30.335,16.532 C33.8872091,12.9784972 33.8872091,7.21850284 30.335,3.665 Z M28.921,15.118 L17,27.039 L5.079,15.118 C3.22682985,13.3368249 2.4816277,10.6938793 3.13052443,8.20750602 C3.77942117,5.72113276 5.72113276,3.77942117 8.20750602,3.13052443 C10.6938793,2.4816277 13.3368249,3.22682985 15.118,5.079 L17,6.961 L18.882,5.079 C20.6631751,3.22682985 23.3061207,2.4816277 25.792494,3.13052443 C28.2788672,3.77942117 30.2205788,5.72113276 30.8694756,8.20750602 C31.5183723,10.6938793 30.7731701,13.3368249 28.921,15.118 Z"/>
      <polygon points="18 8.039 12 16.039 16 16.039 16 24.039 22 16.039 18 16.039"/>
    </g>
  </g>
</svg>
