<?xml version="1.0" encoding="UTF-8"?><svg id="Document-PDF" xmlns="http://www.w3.org/2000/svg" viewBox="0 0 32 32"><path d="M21.65.97H5.03v30.06h21.95V7.47L21.65.97ZM21.47,3.74l2.7,3.3h-2.7v-3.3ZM6.85,29.03V2.97h12.79v6.07h5.5v19.99H6.85Z"/><path d="M13.23,15.22c0,1.09-.81,1.82-2.06,1.82h-.76v1.55h-1.09v-5.18h1.89c1.24,0,2.02.7,2.02,1.81ZM12.11,15.26c0-.59-.34-.87-.88-.87h-.82v1.69h.83c.52,0,.86-.29.86-.82Z"/><path d="M14.03,13.41h1.99c1.35,0,2.41,1.03,2.41,2.59s-1.06,2.59-2.39,2.59h-2v-5.18ZM15.96,17.57c.78,0,1.32-.47,1.32-1.57s-.54-1.57-1.32-1.57h-.84v3.14h.84Z"/><path d="M19.34,18.59v-5.18h3.33v.99h-2.24v1.26h1.89v.99h-1.89v1.93h-1.09Z"/></svg>