<svg width="33" height="32" viewBox="0 0 33 32" fill="none" xmlns="http://www.w3.org/2000/svg">
<path d="M12.6513 14.82H10.8003V20H11.8698V18.446H12.6102C13.8374 18.446 14.6258 17.718 14.6258 16.626C14.6258 15.52 13.8648 14.82 12.6513 14.82ZM12.6856 17.494H11.8698V15.8H12.6719C13.1998 15.8 13.5289 16.08 13.5289 16.675C13.5289 17.207 13.1998 17.494 12.6856 17.494Z" fill="#2A2859"/>
<path d="M15.4065 20H17.3672C18.6767 20 19.7119 18.95 19.7119 17.41C19.7119 15.849 18.6767 14.82 17.3535 14.82H15.4065V20ZM16.476 18.978V15.842H17.2987C18.0597 15.842 18.5876 16.29 18.5876 17.41C18.5876 18.509 18.0597 18.978 17.2987 18.978H16.476Z" fill="#2A2859"/>
<path d="M21.6848 20V18.068H23.5358V17.074H21.6848V15.814H23.8786V14.82H20.6153V20H21.6848Z" fill="#2A2859"/>
<path fill-rule="evenodd" clip-rule="evenodd" d="M28.933 7L24.036 1H5.42749V31H28.933V7ZM26.9742 29H7.38628V3H22.0772V9H26.9742V29ZM26.3832 7L24.036 4.1241V7H26.3832Z" fill="#2A2859"/>
</svg>
