<svg width="32" height="32" viewBox="0 0 32 32" fill="none" xmlns="http://www.w3.org/2000/svg">
<path d="M8.83519 14H12.7528V16H8.83519V14Z" fill="#2A2859"/>
<path d="M8.83519 18H12.7528V20H8.83519V18Z" fill="#2A2859"/>
<path d="M8.83519 22H12.7528V24H8.83519V22Z" fill="#2A2859"/>
<path d="M14.7116 14H18.6292V16H14.7116V14Z" fill="#2A2859"/>
<path d="M14.7116 18H18.6292V20H14.7116V18Z" fill="#2A2859"/>
<path d="M14.7116 22H18.6292V24H14.7116V22Z" fill="#2A2859"/>
<path d="M20.588 14H24.5055V16H20.588V14Z" fill="#2A2859"/>
<path d="M20.588 18H24.5055V20H20.588V18Z" fill="#2A2859"/>
<path d="M20.588 22H24.5055V24H20.588V22Z" fill="#2A2859"/>
<path fill-rule="evenodd" clip-rule="evenodd" d="M28.4231 7L23.5261 1H4.9176V31H28.4231V7ZM26.4643 29H6.8764V3H21.5673V9H26.4643V29ZM25.8733 7L23.5261 4.1241V7H25.8733Z" fill="#2A2859"/>
</svg>
