<svg xmlns="http://www.w3.org/2000/svg" width="32" height="32" viewBox="0 0 32 32"><defs><style>.cls-1{fill-rule:evenodd;}</style></defs><g id="dog"><path id="Combined-Shape" class="cls-1" d="M24.77,6.27l1.31.57-.75,2.32,6.67,1v1.45a4.09,4.09,0,0,1-3.1,4h0l-2.34.37-.95,1.26,1.1,1.11-1.42,1.41-.9-.9-.39.53V30H22V25.76L9.38,23,6,27.54V30H4V16.25L.48,12.7l1.06-1L5.48,15l13.28,0,.91-.92-1.38-1.37,1.42-1.41,1.17,1.17,2.2-2.91Zm-3.68,9.22L19.71,17,6,17v7.5l2.67-3.72L22,23.7V18.65l1-1.29Zm3.35-4.43-2.13,2.82,1.87,1.87,1.26-1.69,3.06-.48A2.06,2.06,0,0,0,30,11.85h0ZM9.69,1.26l8.51,8.5-1.42,1.42-8.5-8.5Z"/></g></svg>