<svg xmlns="http://www.w3.org/2000/svg" width="32" height="32" viewBox="0 0 32 32"><defs><style>.cls-1{fill-rule:evenodd;}</style></defs><g id="dtone"><path id="Combined-Shape" class="cls-1" d="M10,8V9L6,9.8V12H26V9.8L22,9V8H32V9l-4,.8V12h2v5l-4.92,1.15L27,24.72,25,25.27l-1.9-6.65L22,18.9,21,23H11l-1-4.08-1.14-.28L7,25.27,5,24.72l1.87-6.56L2,17V12H4V9.8L0,9V8Zm18.05,6H4l0,1.38L10.48,17l1.17.29.29,1.17L12.57,21h6.86l.63-2.57.28-1.18L21.52,17,28,15.37ZM16,17a1,1,0,1,1-1,1A1,1,0,0,1,16,17Z"/></g></svg>