<svg xmlns="http://www.w3.org/2000/svg" width="32" height="32" viewBox="0 0 32 32"><g id="HC-elevator"><polygon points="27.77 3.13 25.77 3.13 25.77 9 21.77 9 26.77 14.51 31.77 9 27.77 9 27.77 3.13"/><polygon points="4.62 14.89 6.62 14.89 6.62 9.02 10.62 9.02 5.62 3.51 0.62 9.02 4.62 9.02 4.62 14.89"/><circle cx="17.5" cy="4.5" r="2.5"/><path d="M19.89,18a7.86,7.86,0,0,0-.89-.73V9H13.31l-2.39,6.22.71,1.65a7,7,0,1,0,9.88,3.57l1.49.35V28h2V19.21Zm-6.81-2.81L14.69,11H17v5.29A6.91,6.91,0,0,0,15,16a7.49,7.49,0,0,0-1.5.16ZM15,28a5,5,0,0,1-2.57-9.26l1.65,3.85,1.84-.78-1.6-3.74A5.05,5.05,0,0,1,15,18a5,5,0,0,1,0,10Z"/></g></svg>