<svg xmlns="http://www.w3.org/2000/svg" viewBox="0 0 32 32"><path d="M3 1.08v10.58c0 7.66 4.68 14.76 12.52 19l.48.25.48-.25C24.32 26.42 29 19.32 29 11.66V1.08zm13 27.55a24.23 24.23 0 0 1-5.56-4.26 6.19 6.19 0 0 1-1.56-6c.46-2.43 2.29-3.68 4-4.94 1.38-1 2.68-1.93 3.16-3.35a5.6 5.6 0 0 0 .31-1.57 5 5 0 0 1 .65 2.68 7.55 7.55 0 0 1-1.85 4.16 7.46 7.46 0 0 0-1.19 1.94 3.81 3.81 0 0 0 .6 3.85 4.14 4.14 0 0 0 3.91 1.23 4.43 4.43 0 0 0 3.3-3.14 6.55 6.55 0 0 0 .3-2.15 4.85 4.85 0 0 1 1 2.68v.54C23 23 21.92 24 21.92 24A24.06 24.06 0 0 1 16 28.63zm11-17a17.22 17.22 0 0 1-2 8 7.27 7.27 0 0 0-2.52-5l-.28-.26h-2.93l.49 1.35a4.37 4.37 0 0 1 .06 2.9 2.45 2.45 0 0 1-1.8 1.8 2.14 2.14 0 0 1-2-.6 1.81 1.81 0 0 1-.21-1.82 6.3 6.3 0 0 1 .89-1.4 9.4 9.4 0 0 0 2.3-5.24 8.54 8.54 0 0 0-2.62-6.26l-.3-.32H13.5l.5 1.35a5 5 0 0 1 .17 3.31c-.27.81-1.27 1.53-2.44 2.36-1.86 1.35-4.13 2.92-4.82 6.2a5.42 5.42 0 0 0-.09 1.29A17.15 17.15 0 0 1 5 11.66V3.08h22z" fill-rule="evenodd"/></svg>