<svg xmlns="http://www.w3.org/2000/svg" width="32" height="32" viewBox="0 0 32 32"><g id="garbage"><circle cx="10" cy="2.75" r="2.5"/><path d="M6.08,7,5,19.92l2,.16V32H9V19h2V32h2V19h1.92l-.73-8.72,5,5.47,1.48-1.34L13.92,7H6.08ZM7.25,17l.67-8h4.16l.66,8Z"/><polygon points="27.56 18.99 25.5 19 24.24 30 19.79 30 18.53 18.99 16.47 19 18.01 32 19.2 32 20.02 32 24.34 32 24.34 31.99 26.02 31.99 27.56 18.99"/><circle cx="21" cy="20" r="1"/><rect x="22" y="22" width="2" height="2"/><rect x="21" y="27" width="2" height="2"/></g></svg>