<svg xmlns="http://www.w3.org/2000/svg" width="32" height="32" viewBox="0 0 32 32"><defs><style>.cls-1{fill-rule:evenodd;}</style></defs><g id="handicap"><path id="Combined-Shape" class="cls-1" d="M19,9v8.26a7.86,7.86,0,0,1,.89.73h0L25,19.21V28H23V20.79l-1.49-.35a7,7,0,1,1-9.88-3.57h0l-.71-1.65L13.31,9Zm-4,9a5.05,5.05,0,0,0-.68.07h0l1.6,3.74-1.84.78-1.65-3.86A5,5,0,1,0,15,18Zm2-7H14.69l-1.61,4.18.42,1A7.49,7.49,0,0,1,15,16a6.91,6.91,0,0,1,2,.29h0Zm.5-9A2.5,2.5,0,1,1,15,4.5,2.5,2.5,0,0,1,17.5,2Z"/></g></svg>