<svg xmlns="http://www.w3.org/2000/svg" width="32" height="32" viewBox="0 0 32 32"><g id="heart-plus"><path d="M26.94,16.56l1.47-1.46A8.85,8.85,0,0,0,15.9,2.59l-.4.4-.4-.4A8.85,8.85,0,0,0,2.59,15.1l1.82,1.81,9.68,9.68L15.5,28l1.06-1.07A8,8,0,1,0,26.94,16.56ZM15.5,25.18,5.82,15.5,4,13.68A6.85,6.85,0,0,1,13.69,4L15.5,5.82,17.32,4A6.84,6.84,0,0,1,27,13.68L25.18,15.5l-.53.53c-.22,0-.43,0-.65,0a8,8,0,0,0-8,8c0,.22,0,.43,0,.65ZM24,30a6,6,0,1,1,6-6A6,6,0,0,1,24,30Z"/><polygon points="25 20 23 20 23 23 20 23 20 25 23 25 23 28 25 28 25 25 28 25 28 23 25 23 25 20"/></g></svg>