<svg xmlns="http://www.w3.org/2000/svg" width="32" height="32" viewBox="0 0 32 32"><defs><style>.cls-1{fill-rule:evenodd;}</style></defs><g id="house-heart"><path id="Combined-Shape" class="cls-1" d="M16,1,28,11V32H4V2H9.78l.87,3.46Zm0,2.6L6,11.94V30H26V11.94ZM10.18,14.18a4.06,4.06,0,0,1,5.72,0h0l.1.1.1-.1a4,4,0,0,1,5.72,5.72h0L16,25.72,10.18,19.9A4.06,4.06,0,0,1,10.18,14.18ZM20.4,15.6a2,2,0,0,0-2.89,0h0L16,17.11,14.49,15.6A2.05,2.05,0,0,0,13,15a2,2,0,0,0-1.44,3.49h0l4.4,4.4,4.4-4.4A2,2,0,0,0,20.4,15.6ZM8.22,4H6V9.33L8.94,6.88Z"/></g></svg>