<svg xmlns="http://www.w3.org/2000/svg" viewBox="0 0 32 32"><path d="M17.19 3c2.43 0 2.92 0 4.13.08a9.46 9.46 0 0 1 3.15.6 6.37 6.37 0 0 1 2.29 1.5 6.37 6.37 0 0 1 1.5 2.29 9.46 9.46 0 0 1 .6 3.15c.06 1.3.08 1.77.08 4.71v1.28c0 2.94 0 3.41-.08 4.71a9.46 9.46 0 0 1-.6 3.15 6.61 6.61 0 0 1-3.79 3.79 9.46 9.46 0 0 1-3.15.6c-1.3.06-1.77.08-4.71.08h-1.28c-2.94 0-3.41 0-4.71-.08a9.46 9.46 0 0 1-3.15-.6 6.37 6.37 0 0 1-2.29-1.5 6.37 6.37 0 0 1-1.5-2.29 9.46 9.46 0 0 1-.6-3.15C3 20.11 3 19.62 3 17.19v-2.44c0-2.43 0-2.92.08-4.13a9.46 9.46 0 0 1 .6-3.15 6.37 6.37 0 0 1 1.5-2.29 6.37 6.37 0 0 1 2.29-1.5 9.46 9.46 0 0 1 3.15-.6C11.83 3 12.32 3 14.75 3zM16 5.34c-3.46 0-3.87 0-5.24.07a7.1 7.1 0 0 0-2.41.45 4.3 4.3 0 0 0-2.49 2.46 7.1 7.1 0 0 0-.45 2.41c-.06 1.37-.07 1.78-.07 5.24s0 3.87.07 5.24a7.1 7.1 0 0 0 .45 2.41 4.3 4.3 0 0 0 2.46 2.46 7.1 7.1 0 0 0 2.41.45c1.28.06 1.72.07 4.61.07h1.26c2.89 0 3.33 0 4.61-.07a7.1 7.1 0 0 0 2.41-.45 4.32 4.32 0 0 0 2.46-2.46 7.1 7.1 0 0 0 .45-2.41c.06-1.28.07-1.72.07-4.61v-1.26c0-2.89 0-3.33-.07-4.61a7.1 7.1 0 0 0-.45-2.41 4.3 4.3 0 0 0-2.46-2.46 7.1 7.1 0 0 0-2.41-.45c-1.37-.06-1.78-.07-5.21-.07zm0 4a6.66 6.66 0 1 1-6.15 4.11A6.66 6.66 0 0 1 16 9.31zm0 2.34A4.33 4.33 0 1 0 20.29 16 4.31 4.31 0 0 0 16 11.65zm6.92-4.16a1.56 1.56 0 1 1 0 3.11 1.56 1.56 0 0 1 0-3.11z" fill-rule="evenodd"/></svg>