<?xml version="1.0" encoding="UTF-8"?>
<svg width="32px" height="32px" viewBox="0 0 32 32" version="1.1" xmlns="http://www.w3.org/2000/svg" xmlns:xlink="http://www.w3.org/1999/xlink">
    <!-- Generator: Sketch 61.2 (89653) - https://sketch.com -->
    <title>Atoms/Ikoner/Social/Instagram</title>
    <desc>Created with Sketch.</desc>
    <g id="Atoms/Ikoner/Social/Instagram" stroke="none" stroke-width="1" fill="none" fill-rule="evenodd">
        <g id="Instagram" transform="translate(3.000000, 3.000000)" fill="#2A2859">
            <path d="M14.1884715,0.000817175817 C16.6223196,0.00465515748 17.1128462,0.0230733184 18.3177414,0.0780360396 C19.3937381,0.0995926687 20.4582903,0.303442183 21.4661329,0.680916832 C22.3315738,1.00658705 23.115559,1.51711958 23.7634182,2.17691307 C24.4232118,2.82477173 24.9337436,3.60875715 25.2594119,4.47419842 C25.6368923,5.48203881 25.8407454,6.54659058 25.862303,7.62258733 C25.9213394,8.91673645 25.9382145,9.38676034 25.9401462,12.3257814 L25.9401463,13.6145473 C25.9382158,16.5535677 25.921349,17.0235874 25.862303,18.3177414 C25.8407457,19.393739 25.6368926,20.4582917 25.2594119,21.4661329 C24.5856038,23.2083299 23.2083384,24.5855991 21.4661432,25.2594119 C20.458302,25.6368926 19.3937493,25.8407457 18.3177517,25.862303 C17.023605,25.9213587 16.5535767,25.938217 13.6145572,25.9401465 L12.3257922,25.9401465 C9.38677351,25.938217 8.91675157,25.9213587 7.62259762,25.862303 C6.54660088,25.8407454 5.48204911,25.6368923 4.47420871,25.2594119 C3.60876744,24.9337436 2.82478202,24.4232118 2.17692337,23.7634182 C1.517132,23.1155572 1.0065998,22.3315725 0.680927129,21.4661329 C0.303448965,20.4582909 0.0995959655,19.3937387 0.0780360396,18.3177414 C0.0230733184,17.1128462 0.00465515748,16.6223254 0.000817175817,14.1884738 L0.000817153696,11.7518551 C0.00465498604,9.31800386 0.0230719898,8.82748479 0.0780257426,7.62258733 C0.099585661,6.54659082 0.303438666,5.48203945 0.680916832,4.47419842 C1.00658705,3.60875751 1.51711958,2.82477232 2.17691307,2.17691307 C2.82477333,1.5171233 3.60875845,1.00659433 4.47419842,0.680927129 C5.48203945,0.303448963 6.54659082,0.099595958 7.62258733,0.0780360396 C8.82748479,0.0230733184 9.31801168,0.00465515748 11.7518581,0.000817175817 Z M12.9701644,2.33696495 C9.50697723,2.33696495 9.09677446,2.35017347 7.72909723,2.41257089 C6.90664841,2.42233116 6.09199779,2.5733985 5.32073267,2.85917366 C4.75736965,3.06709526 4.24776724,3.39863251 3.82939069,3.82941129 C3.39862185,4.24778341 3.06709263,4.7573786 2.85917624,5.32073267 C2.57339871,6.09200347 2.42233048,6.90666027 2.41257089,7.72911525 C2.35017347,9.09677446 2.33696495,9.50697465 2.33696495,12.9701644 C2.33696495,16.4333541 2.35017347,16.8435568 2.41257089,18.2112315 C2.42233195,19.0336819 2.57339925,19.8483341 2.85917366,20.6196012 C3.0670963,21.1829629 3.39863345,21.6925643 3.82941129,22.1109406 C4.24778274,22.5417103 4.75737813,22.8732396 5.32073267,23.081155 C6.09200408,23.3669333 6.906662,23.5180007 7.72911782,23.5277578 C9.00835552,23.5861296 9.44983398,23.6014547 12.3368759,23.6031892 L13.603458,23.6031892 C16.4904999,23.6014547 16.9319785,23.5861296 18.2112186,23.5277578 C19.0336743,23.5179993 19.848332,23.366932 20.6196038,23.081155 C21.7507526,22.6448122 22.6448148,21.75075 23.0811576,20.6196012 C23.3669346,19.8483294 23.5180019,19.0336717 23.5277604,18.211216 C23.5861322,16.9317929 23.6014573,16.4902664 23.6031917,13.603413 L23.6031917,12.3369157 C23.6014573,9.45006251 23.5861322,9.00853721 23.5277604,7.72909723 C23.5180015,6.90664828 23.3669341,6.09199743 23.0811576,5.32073267 C22.8732371,4.75736914 22.5416997,4.24776651 22.11092,3.82939069 C21.6925479,3.39862298 21.1829539,3.06709391 20.6196012,2.85917624 C19.8483291,2.57340058 19.0336716,2.42233327 18.211216,2.41257347 C16.8435568,2.35017604 16.4333541,2.33696495 12.9701644,2.33696495 Z M12.9701644,6.30981129 C16.6485748,6.30981129 19.6305149,9.29175393 19.6305149,12.9701644 C19.6305149,15.6640259 18.0077716,18.0926325 15.518968,19.1235285 C13.0301643,20.1544244 10.1654275,19.5845924 8.26058005,17.6797443 C6.35573262,15.7748961 5.78590172,12.9101591 6.81679864,10.4213558 C7.84769556,7.93255251 10.2763028,6.30981129 12.9701644,6.30981129 Z M12.9701695,8.64677366 C10.5824282,8.64677366 8.64677881,10.5824179 8.64677881,12.9701592 C8.64677881,15.3579005 10.582423,17.2935499 12.9701644,17.2935499 C14.1167982,17.2935499 15.2164691,16.8380527 16.0272622,16.0272607 C16.8380552,15.2164686 17.293555,14.1167982 17.293555,12.9701644 C17.293555,10.582423 15.3579108,8.64677366 12.9701695,8.64677366 Z M19.8936735,4.49023861 C20.7532601,4.49023861 21.4500927,5.18707123 21.4500927,6.04665782 C21.4500927,6.90624441 20.7532601,7.60307703 19.8936735,7.60307703 C19.0340869,7.60307703 18.3372543,6.90624441 18.3372543,6.04665782 C18.3372543,5.18707123 19.0340869,4.49023861 19.8936735,4.49023861 Z" id="Combined-Shape"></path>
        </g>
    </g>
</svg>