<svg xmlns="http://www.w3.org/2000/svg" width="32" height="32" viewBox="0 0 32 32"><g id="language"><path d="M28,15.94a12,12,0,1,0-12,12,13.2,13.2,0,0,0,1.42-.09l0,0,0,0A12,12,0,0,0,28,15.94Zm-2.52,4H22a15,15,0,0,0,.11-8h3.36a10.36,10.36,0,0,1,0,8ZM12.05,12h8a12.77,12.77,0,0,1-.14,8h-8A12.82,12.82,0,0,1,12.05,12Zm12.29-2H21.42A17.38,17.38,0,0,0,19.2,6.18,10.3,10.3,0,0,1,24.34,10ZM16.12,5.66A17.34,17.34,0,0,1,19.23,10H12.87a18.94,18.94,0,0,1,2.89-4.3h.36Zm-3.36.52A19.25,19.25,0,0,0,10.65,10h-3A10.23,10.23,0,0,1,12.76,6.18ZM6.5,12H10a15,15,0,0,0-.14,8H6.51a10.24,10.24,0,0,1,0-8Zm1.14,10H10.5a17.14,17.14,0,0,0,2.17,3.73A10.27,10.27,0,0,1,7.64,21.93Zm8.11,4.28a17.26,17.26,0,0,1-3.06-4.28H19.1a18.74,18.74,0,0,1-2.86,4.28h-.49Zm3.49-.53a19.09,19.09,0,0,0,2.07-3.75h3A10.19,10.19,0,0,1,19.24,25.68Z"/></g></svg>