<?xml version="1.0" encoding="UTF-8"?><svg id="law-paragrapgh" xmlns="http://www.w3.org/2000/svg" viewBox="0 0 32 32"><defs><style>.cls-1{fill-rule:evenodd;}</style></defs><path class="cls-1" d="M16.46.98c-2.25-.34-4.04.41-5.23,1.62-1.15,1.18-1.73,2.8-1.61,4.22.11,1.32.63,2.34,1.37,3.13-.26.14-.52.3-.77.48-1.13.83-2.15,2.2-2.11,4.21.04,1.98.96,3.34,2.23,4.3,1.22.92,2.79,1.5,4.2,2.02l.1.04h0c1.38.5,2.61.96,3.57,1.58v.03s.03,0,.04,0c.03.02.05.04.08.05.94.65,1.52,1.42,1.61,2.59.07.81-.28,1.87-1.05,2.66-.74.76-1.89,1.29-3.5,1.04-1.2-.18-2.28-.82-2.92-1.65-.62-.81-.8-1.74-.38-2.67l-1.82-.83c-.78,1.72-.37,3.43.62,4.71.97,1.26,2.52,2.16,4.21,2.41,2.25.34,4.04-.41,5.23-1.62,1.15-1.18,1.73-2.8,1.61-4.22-.11-1.32-.63-2.34-1.37-3.13.26-.14.52-.3.77-.48,1.13-.83,2.15-2.2,2.11-4.21-.04-1.98-.96-3.34-2.23-4.3-1.22-.92-2.79-1.5-4.2-2.02l-.1-.04h0c-1.38-.51-2.61-.96-3.57-1.58v-.03s-.03,0-.04,0c-.03-.02-.05-.04-.08-.05-.94-.65-1.52-1.42-1.61-2.59-.07-.81.28-1.87,1.05-2.66.74-.76,1.89-1.29,3.5-1.04,1.2.18,2.28.82,2.92,1.65.62.81.8,1.74.38,2.67l1.82.83c.78-1.72.37-3.43-.62-4.71-.97-1.26-2.52-2.16-4.21-2.41ZM12.85,11.37c-.09.02-.2.05-.31.09-.36.12-.77.32-1.14.59-.73.54-1.31,1.35-1.29,2.55.03,1.27.57,2.09,1.44,2.75.94.71,2.22,1.2,3.69,1.74l.21.08c1.07.39,2.24.82,3.27,1.39.09-.02.2-.05.31-.09.36-.12.77-.32,1.14-.59.73-.54,1.31-1.35,1.29-2.55-.03-1.27-.57-2.09-1.44-2.75-.94-.71-2.22-1.2-3.69-1.74l-.21-.08h0c-1.07-.39-2.24-.82-3.27-1.39Z"/><path d="M22.52,20.17c1.66-2.09.77-4.44.73-4.54-1.17-3.01-4.62-4.07-4.71-4.1-4.83-1.76-5.8-2.79-5.81-2.79l-.13-.15c-1.86-1.82-.71-3.67-.53-3.93,1.22-2.05,3.25-1.88,3.4-1.87,2.3.09,3.21,1.12,3.86,2.21.73,1.24.31,2.24.29,2.28l.91.41.9.43c.04-.08.9-1.96-.39-4.13-.84-1.42-2.22-3.07-5.42-3.19-.14-.01-3.37-.36-5.23,2.78-.79,1.13-1.63,3.85.64,6.25-1.25.89-2.02,1.92-2.04,1.95-1.66,2.09-.77,4.44-.73,4.54,1.17,3.01,4.62,4.07,4.71,4.1,4.83,1.76,5.8,2.79,5.81,2.79l.13.15c1.86,1.82.71,3.67.53,3.93-1.22,2.05-3.24,1.88-3.4,1.87-2.3-.09-3.21-1.12-3.86-2.21-.73-1.24-.31-2.24-.29-2.28l-.91-.41-.9-.43c-.04.08-.9,1.96.39,4.13.77,1.31,2.18,3.07,5.42,3.19.03,0,.17.02.39.02.94,0,3.34-.27,4.84-2.79.79-1.13,1.63-3.85-.64-6.25,1.25-.89,2.02-1.92,2.04-1.95ZM20.92,18.96s-.85,1.13-2.12,1.86c-1.01-.59-2.63-1.36-5.21-2.3-.03,0-2.67-.84-3.48-2.92-.02-.06-.5-1.4.46-2.61,0-.01.85-1.13,2.12-1.86,1.01.59,2.63,1.36,5.21,2.3.03,0,2.67.84,3.48,2.92.02.06.5,1.4-.46,2.61Z"/></svg>