<?xml version="1.0" encoding="UTF-8"?><svg id="law-paragrapgh" xmlns="http://www.w3.org/2000/svg" viewBox="0 0 32 32"><path d="M20.66179,21.9238c2.58936-1.54468,2.98535-3.93457,2.77124-5.11353-.41992-3.44922-4.29004-4.86426-4.45117-4.92188-.47168-.16895-3.74023-1.69043-5.71582-2.62109-2.52051-1.10156-1.49902-3.82812-1.3916-4.09473,1.02344-2.20703,3.51562-2.20703,3.69238-2.20801,1.77051-.11328,3.35352,1.42871,3.36914,1.44336,1.30664,1.30078.61621,2.7168.5332,2.87402l.87891.47656.87402.48535c.54297-.97559,1.05762-3.33008-.87402-5.25195-.08887-.08887-2.2041-2.17285-4.81445-2.02539-.16992.00293-3.89453-.04102-5.48926,3.40039-.56604,1.35986-.92249,3.98004.86914,5.71777-2.5896,1.54529-2.9856,3.9353-2.77148,5.11426.41992,3.44922,4.29004,4.86328,4.4502,4.91992.47266.1709,3.74121,1.69141,5.7168,2.62207,2.52051,1.10156,1.49902,3.82812,1.3916,4.09473-1.02344,2.20703-3.51562,2.20703-3.69238,2.20801-1.81934.10352-3.35449-1.42871-3.36914-1.44336-1.30664-1.2998-.61523-2.71582-.53223-2.87305l-.87891-.47754-.87402-.48633c-.54297.97656-1.05859,3.33203.87305,5.25293.08496.08594,2.06152,2.03223,4.5498,2.03223.08789,0,.17578-.00195.26465-.00684.1709-.00879,3.89453.04102,5.48926-3.40039.56592-1.3598.92236-3.9798-.8689-5.71753ZM13.26701,18.23606c-.02832-.00977-2.87207-1.08008-3.14746-3.33594-.00464-.0246-.3772-2.36542,2.823-3.57538,1.34497.63232,4.75464,2.22784,5.36255,2.44647.02832.00977,2.87305,1.06641,3.15039,3.33789.00464.0246.37732,2.36536-2.823,3.57452-1.34497-.63196-4.75439-2.22644-5.36548-2.44757Z"/></svg>