<svg width="33" height="32" viewBox="0 0 33 32" fill="none" xmlns="http://www.w3.org/2000/svg">
<g clip-path="url(#clip0_1785_2155)">
<path fill-rule="evenodd" clip-rule="evenodd" d="M17.2873 0.982286C15.036 0.644375 13.2448 1.39129 12.0571 2.60723C10.9031 3.78861 10.3264 5.40744 10.4434 6.82894C10.5522 8.15113 11.07 9.16631 11.8104 9.96279C11.5527 10.0988 11.2931 10.2584 11.0405 10.4436C9.90963 11.2728 8.89197 12.6472 8.93493 14.6516C8.97736 16.6316 9.89042 17.9869 11.1694 18.9517C12.3856 19.869 13.9604 20.4525 15.3711 20.9693L15.4706 21.0058L15.4706 21.0058C16.8496 21.5108 18.081 21.9618 19.0385 22.5868L19.0373 22.6138C19.0521 22.6144 19.0669 22.6149 19.0819 22.6153C19.1087 22.6331 19.1354 22.6511 19.1618 22.6692C20.1024 23.3146 20.6785 24.0918 20.7748 25.2615C20.8412 26.0685 20.4994 27.1274 19.7236 27.9217C18.9815 28.6814 17.8316 29.208 16.221 28.9663C15.0203 28.786 13.9413 28.1419 13.3028 27.3117C12.6814 26.5038 12.5006 25.5713 12.9219 24.6459L11.1017 23.8172C10.3207 25.5326 10.7286 27.2455 11.7175 28.531C12.6891 29.7943 14.2417 30.6916 15.9241 30.9441C18.1754 31.282 19.9666 30.5351 21.1543 29.3192C22.3083 28.1378 22.885 26.519 22.768 25.0975C22.6592 23.7753 22.1414 22.7601 21.401 21.9636C21.6587 21.8276 21.9183 21.668 22.1709 21.4828C23.3018 20.6537 24.3194 19.2792 24.2765 17.2748C24.234 15.2948 23.321 13.9395 22.042 12.9747C20.8258 12.0574 19.251 11.4739 17.8403 10.9571L17.7408 10.9206L17.7408 10.9206C16.3619 10.4156 15.1304 9.96456 14.1729 9.33965L14.1741 9.31263C14.1594 9.31198 14.1445 9.31147 14.1295 9.31111C14.1027 9.29328 14.076 9.27531 14.0496 9.25718C13.109 8.61181 12.5329 7.83457 12.4366 6.66491C12.3702 5.85787 12.712 4.79901 13.4878 4.00475C14.2299 3.24504 15.3798 2.71837 16.9904 2.96013C18.1911 3.14036 19.2701 3.78452 19.9086 4.61471C20.53 5.42256 20.7108 6.35513 20.2895 7.28048L22.1097 8.10922C22.8907 6.39382 22.4828 4.68096 21.4939 3.39536C20.5223 2.13211 18.9697 1.23482 17.2873 0.982286ZM13.676 11.3715C13.5847 11.3937 13.4808 11.4234 13.3659 11.4626C13.0043 11.5859 12.5977 11.7818 12.2231 12.0565C11.489 12.5947 10.9086 13.4017 10.9345 14.6088C10.9617 15.8781 11.4996 16.6956 12.3738 17.355C13.3108 18.0617 14.5913 18.5537 16.0591 19.0914L16.2663 19.1672C17.3393 19.5595 18.5052 19.9857 19.5354 20.5549C19.6267 20.5327 19.7306 20.503 19.8455 20.4638C20.2071 20.3405 20.6137 20.1446 20.9883 19.87C21.7224 19.3317 22.3028 18.5247 22.2769 17.3176C22.2497 16.0483 21.7118 15.2308 20.8376 14.5714C19.9006 13.8647 18.6201 13.3727 17.1523 12.835L16.9451 12.7592L16.9451 12.7592C15.8721 12.3669 14.7062 11.9407 13.676 11.3715Z" fill="#2A2859"/>
</g>
<defs>
<clipPath id="clip0_1785_2155">
<rect width="32" height="32" fill="white" transform="translate(0.828613)"/>
</clipPath>
</defs>
</svg>
