<?xml version="1.0" encoding="UTF-8"?><svg id="Link" xmlns="http://www.w3.org/2000/svg" viewBox="0 0 32 32"><path d="M8.8,29.78c-2.01,0-3.81-1.28-4.7-2.25-3.2-3.64-1.69-6.82-.45-8l3.47-3.52c.39-.39,1.02-.4,1.41-.01s.4,1.02.01,1.41l-3.49,3.55c-.24.24-2.1,2.23.54,5.23.09.09,2.57,2.7,4.86,1l8.26-7.94c.2-.22,2.17-2.53-1.04-5.54-.4-.38-.42-1.01-.05-1.41.38-.4,1.01-.42,1.41-.05,1.58,1.48,2.4,3.07,2.45,4.72.06,2.18-1.3,3.62-1.36,3.68l-8.42,8.08c-.97.74-1.96,1.02-2.91,1.02Z"/><path d="M14.27,19.08c-.25,0-.49-.09-.68-.27-1.5-1.4-2.27-2.91-2.31-4.48-.05-2.07,1.24-3.44,1.3-3.5l7.91-7.59c2.86-2.18,5.97-.2,7.22,1.16,3.03,3.45,1.6,6.48.42,7.59l-3.25,3.3c-.39.39-1.02.4-1.41.01-.39-.39-.4-1.02-.01-1.41l3.28-3.33c.22-.22,1.93-2.05-.51-4.83-.08-.08-2.37-2.49-4.48-.94l-7.75,7.45c-.18.2-1.99,2.33.97,5.11.4.38.42,1.01.05,1.41-.2.21-.46.32-.73.32Z"/></svg>