<svg xmlns="http://www.w3.org/2000/svg" width="32" height="32" viewBox="0 0 32 32"><defs><style>.cls-1{fill-rule:evenodd;}</style></defs><g id="linked-in"><path id="Shape" class="cls-1" d="M27.08,3H4.92A1.89,1.89,0,0,0,3,4.88V27.12A1.89,1.89,0,0,0,4.92,29H27.08A1.89,1.89,0,0,0,29,27.12V4.88A1.89,1.89,0,0,0,27.08,3ZM10.71,25.16H6.85V12.75h3.86ZM8.78,11.05A2.24,2.24,0,0,1,6.7,9.68,2.24,2.24,0,0,1,9.63,6.74,2.26,2.26,0,0,1,11,8.81a2.23,2.23,0,0,1-2.23,2.24ZM25.16,25.16H21.3v-6c0-1.44,0-3.29-2-3.29S17,17.4,17,19v6.14H13.11V12.75h3.7v1.69h.05a4,4,0,0,1,3.65-2c3.9,0,4.63,2.57,4.63,5.91Z"/></g></svg>