<svg xmlns="http://www.w3.org/2000/svg" width="32" height="32" viewBox="0 0 32 32"><g id="livingroom"><path d="M.64,17H2.86C3,17,3,17,3,16.84V12.27c0-.09,0-.09.09-.1H19.72c.16,0,.16,0,.16.16v4.49c0,.14,0,.14.13.14h2.15c.14,0,.13,0,.13.13v8.8c0,.14,0,.13-.13.13H20.32c-.13,0-.13,0-.13.13v2.77a.06.06,0,0,0,0,0h-2V26.07s0-.05-.05-.05H4.86c-.14,0-.12,0-.12.13v2.66a.76.76,0,0,1,0,.15H2.82V26.08s0-.07-.07-.06H.67a1.09,1.09,0,0,1,0-.18V17.06s0,0,0-.06Zm6.14,2.87H16c.15,0,.13,0,.13-.13V17.1c0-.17,0-.14.14-.14h1.55c.11,0,.1,0,.1-.1V14.25c0-.19,0-.16-.16-.16H5c-.11,0-.1,0-.1.11v2.7c0,.05,0,.07.07.06H6.72s.07,0,.06.07v2.8Zm4.73,4.28h4.57c.06,0,.09,0,.08-.08V21.87c0-.16,0-.13-.14-.13H6.93s0,0,0,.05V24c0,.14,0,.14.13.14Zm8.88-2.62V19c0-.09,0-.09-.1-.09H18.18c-.12,0-.11,0-.11.1v5c0,.1,0,.1.1.1h2.12c.09,0,.09,0,.1-.09V21.49ZM2.57,18.88a.28.28,0,0,0,0,.13v5c0,.11,0,.11.09.11H4.79c.07,0,.1,0,.09-.08V18.92s0-.06,0-.05H2.67A.17.17,0,0,0,2.57,18.88Z"/><path d="M31.36,10.26h-5c-.17,0-.15,0-.15.15V17c0,1.52,0,3,0,4.56v5.28c0,.13,0,.12.12.12h1.48c.1,0,.1,0,.1.1v1.7c0,.12,0,.12-.12.12H22.69c-.1,0-.1,0-.1-.1V27.09c0-.12,0-.11.11-.11h1.55s.05,0,.05-.05V15.83c0-1.5,0-3,0-4.51v-1c0-.11,0-.1-.1-.1H19.37a.3.3,0,0,1,0-.1q1.27-3.53,2.53-7s0,0,0,0h6.74a.24.24,0,0,1,.05.1L31.1,9.55l.26.69Zm-2.89-2a.29.29,0,0,0,0-.09l-1.12-3c0-.1,0-.1-.14-.1H23.46c-.13,0-.11,0-.15.11-.36,1-.72,2-1.07,3a.11.11,0,0,0,0,.08Z"/><path d="M.67,26h0V17s0,0,0,.06v8.77A1.09,1.09,0,0,0,.67,26Z"/><path d="M28.68,3s0,0,0,0H21.94V3Z"/></g></svg>