<svg id="Layer_1" data-name="Layer 1" xmlns="http://www.w3.org/2000/svg" width="32" height="32" viewBox="0 0 32 32"><title>Artboard 1</title><path d="M.64,16.95626a.55964.55964,0,0,0,.1536.005q1.00383.00129,2.00765.00058c.01992,0,.03984-.00012.05975,0,.1304.0009.11413.001.11414-.1177q.00021-1.76267.00008-3.52534,0-.52581.00024-1.05162c.00015-.091.00147-.0911.08971-.09258.02389-.0004.0478-.00006.0717-.00006h16.587c.15792,0,.15793,0,.15793.15712q0,2.24666,0,4.49332c0,.13424,0,.13431.12979.13431q1.07553,0,2.151.00014c.137,0,.13129-.01684.13128.12575q-.00012,4.40368-.0001,8.80737c0,.14074.00981.1245-.13138.12458q-.92018.00051-1.84035.00015c-.1319,0-.13194.00007-.132.13342q-.00065,1.38621-.001,2.77242a.1839.1839,0,0,0,.00646.03427H18.18746a.1152.1152,0,0,0,.00484-.0233q-.00069-1.38647-.00185-2.77294c0-.03187-.00116-.06379.00006-.09561.00136-.03542-.01421-.05051-.04944-.04844-.02382.0014-.0478.00019-.0717.00017q-1.08169-.001-2.16338-.00183-3.59776-.00035-7.19551.0001-1.92431.00049-3.84859.004c-.138.00017-.12611-.01611-.12614.12983q-.00028,1.33272-.00041,2.66545a.49238.49238,0,0,1-.00731.14258H2.8155L2.817,26.11485a.34763.34763,0,0,1,.00012-.03581c.005-.04734-.01718-.06438-.06256-.06-.02367.00227-.04774.00037-.07163.00037q-.94356,0-1.88711-.00026c-.0436,0-.0872-.00379-.1308-.00581-.00029-.05972-.00082-.11943-.00083-.17915q-.00006-4.33554,0-8.6711l-.00036-.10748A.05735.05735,0,0,0,.64,17.00408ZM6.7825,19.835h.1332q4.55984,0,9.11966,0c.153,0,.13616.01039.1362-.1327q.00039-1.30281.00027-2.60562c.00005-.1633-.01176-.1366.14224-.1369q.77092-.00152,1.54186-.00043c.11237,0,.10189.00859.10231-.10272.00006-.01594,0-.03188,0-.04781q0-1.27892-.0003-2.55782c-.00015-.18668.02088-.15809-.15755-.15811Q12.33218,14.092,6.864,14.0924q-.93229,0-1.86458-.00013c-.10842,0-.10426-.00563-.10356.10391.00005.008,0,.01593,0,.0239v2.61758a.47172.47172,0,0,1-.00037.05971c-.00714.05563.02216.0687.07.06477.02374-.002.04778-.00031.07168-.00031H6.63875c.02789,0,.05592.00186.08364-.00028.04874-.00379.06286.02126.06038.06482-.00158.0278-.00027.05576-.00027.08365q0,1.29684,0,2.59367Zm4.72931,4.27243h4.49373a.58613.58613,0,0,1,.07165.00047c.05992.00744.0909-.01181.08006-.07726a.29572.29572,0,0,1-.00038-.04774q0-1.05771-.00034-2.1154c-.00017-.15335.01968-.129-.13489-.12907Q11.516,21.73759,7.01027,21.738c-.02789,0-.05584.00124-.08365-.00021-.0347-.00181-.05153.01195-.05.04785.00117.02783,0,.05576,0,.08365q0,1.05173,0,2.10344c0,.13456.00005.13464.1295.13464Q9.259,24.1074,11.51181,24.10738ZM20.38642,21.486q0-1.26106-.00013-2.52211c0-.0968-.00088-.09788-.09507-.09792q-1.05786-.00048-2.11571-.00028c-.11759,0-.105-.00109-.105.1014q0,2.52211.00016,5.04422c0,.09717.001.0984.09617.09845q1.06383.00054,2.12766,0c.0904-.00005.09046-.00134.09188-.08969.00032-.01992.00005-.03985.00005-.05977ZM2.57317,18.87871A.41807.41807,0,0,0,2.567,19.007q-.00075,1.30832-.00037,2.61662,0,1.19479.00014,2.3896c0,.10552.0009.10725.08952.10731.71289.00049,1.4258-.00038,2.13869.00145.06071.00015.0906-.01475.08243-.0793A.47707.47707,0,0,1,4.877,23.983q0-2.49117,0-4.98232c0-.02788-.00139-.05584.0002-.08362.002-.03459-.01068-.0523-.04729-.04991-.01983.00129-.03981.00014-.05972.00014q-1.05143,0-2.10285.00043A.15575.15575,0,0,0,2.57317,18.87871Z"/><path d="M31.36,10.26241q-2.49189.0002-4.98378.00076c-.16983.00007-.14813-.02364-.14822.1424q-.002,3.305-.00287,6.61-.001,2.283-.00245,4.56605-.00116,2.26509-.00223,4.53019c-.00014.251-.00187.502-.00159.753.00014.12773-.01578.11094.11648.1111q.74109.00091,1.48219.00039c.10147.00007.10231.00093.10237.10494q.00044.84867,0,1.69735c-.00007.12633.01735.12108-.12325.12108q-2.02605,0-4.05211,0-.52595,0-1.05188-.00018c-.10384-.00014-.10469-.00113-.10474-.10333q-.00045-.85465-.00019-1.7093c0-.11665-.00848-.11081.10881-.11077q.73512.00026,1.47023.00006c.02789,0,.05581-.0009.08367,0,.03522.00109.051-.01489.04959-.05014-.0011-.02785-.00011-.05578-.00009-.08367q.00126-3.2034.00255-6.40681.001-2.301.00247-4.6019.00114-2.25912.00222-4.51824.00027-.47811.0019-.95621c.00026-.10626.00356-.09641-.09669-.0964q-1.18337.00012-2.36673,0-1.20129,0-2.40258-.00015c-.02372,0-.04743-.002-.07185-.00311a.18025.18025,0,0,1,.02341-.10358q1.26249-3.52293,2.5263-7.0454a.43071.43071,0,0,1,.02074-.04286c.05568-.00034.11137-.001.16705-.001q3.216-.00008,6.43208-.00013c.0477,0,.09541-.00139.14312-.00212a.23378.23378,0,0,1,.044.09608q1.18738,3.1969,2.37361,6.39423c.08479.22841.17222.45584.25843.68373ZM28.46583,8.25459a.14227.14227,0,0,0-.01821-.08976q-.55713-1.5024-1.11426-3.0048c-.03528-.09508-.036-.09517-.14618-.09518q-1.86395-.00014-3.72788-.00008c-.13313,0-.1077-.00563-.14853.10779q-.53874,1.49634-1.0737,2.994c-.00968.02706-.02969.05435-.015.088Z"/><path d="M.665,26.0133l-.025.00357V17.00408a.05735.05735,0,0,1,.02378.05149l.00036.10748q0,4.33555,0,8.6711C.66419,25.89387.66472,25.95358.665,26.0133Z"/><path d="M28.68246,3.04261a.04008.04008,0,0,1,.00146.02186c-.04771.00073-.09542.00211-.14312.00212q-3.216.00015-6.43208.00013c-.05568,0-.11137.00065-.16705.001l-.00088-.0251Z"/></svg>