<svg width="32" height="32" viewBox="0 0 32 32" fill="none" xmlns="http://www.w3.org/2000/svg">
<path d="M7.33662 6.50596C6.46095 8.17676 6 10.0714 6 12H7.84996C7.84996 10.4282 8.22563 8.88404 8.93931 7.52234C9.65298 6.16063 10.6796 5.02926 11.9161 4.24166C13.1527 3.45406 14.5558 3.03792 15.9847 3.03497C17.4136 3.03202 18.8181 3.44236 20.0573 4.22484L20.9783 2.45998C19.4578 1.49988 17.7345 0.996399 15.9812 1.00002C14.228 1.00364 12.5064 1.51424 10.9892 2.48061C9.47191 3.44699 8.21229 4.83517 7.33662 6.50596Z" fill="#2A2859"/>
<path d="M17.6501 20.65C17.6501 21.271 17.307 21.8119 16.8 22.0935V25.4H15.2V22.0934C14.6931 21.8118 14.3501 21.271 14.3501 20.65C14.3501 19.7387 15.0888 19 16.0001 19C16.9114 19 17.6501 19.7387 17.6501 20.65Z" fill="#2A2859"/>
<path fill-rule="evenodd" clip-rule="evenodd" d="M3 13V31H29V13H3ZM27 15H5V29H27V15Z" fill="#2A2859"/>
</svg>
