<svg width="33" height="32" viewBox="0 0 33 32" fill="none" xmlns="http://www.w3.org/2000/svg">
<path d="M23.8997 4.22183C25.775 6.28473 26.8286 9.08262 26.8286 12H24.9787C24.9787 9.62232 24.12 7.34203 22.5916 5.66075C21.0631 3.97948 18.9901 3.03495 16.8286 3.03495C14.6671 3.03495 12.5941 3.97948 11.0657 5.66075C9.53723 7.34202 8.67857 9.62232 8.67857 12L6.82861 12C6.82861 9.08262 7.88218 6.28472 9.75755 4.22182C11.6329 2.15892 14.1764 1 16.8286 1C19.4808 1 22.0243 2.15893 23.8997 4.22183Z" fill="#2A2859"/>
<path d="M18.4787 20.65C18.4787 21.271 18.1356 21.8119 17.6286 22.0935V25.4H16.0286V22.0934C15.5217 21.8118 15.1787 21.271 15.1787 20.65C15.1787 19.7387 15.9174 19 16.8287 19C17.74 19 18.4787 19.7387 18.4787 20.65Z" fill="#2A2859"/>
<path fill-rule="evenodd" clip-rule="evenodd" d="M3.82861 13V31H29.8286V13H3.82861ZM27.8286 15H5.82861V29H27.8286V15Z" fill="#2A2859"/>
</svg>
