<svg xmlns="http://www.w3.org/2000/svg" xmlns:xlink="http://www.w3.org/1999/xlink" width="32" height="32" viewBox="0 0 32 32">
  <g id="map">
    <path d="M15.58,5.5a2,2,0,0,1,.15,4h-.15a2,2,0,1,1,0-4Zm0-2.84a5,5,0,0,0-4.19,7.57l4.24,6.12,4.12-6.09a5,5,0,0,0,.77-2.37V7.61A5,5,0,0,0,15.58,2.66Zm4.9,10.1L18,16.44,25.8,22l2.85-3.41Zm-7.69,3-4.24.6L19,23.82l4.92-.7-7-5L15.65,19.9ZM6.33,17.24,3.22,21l11.17,8,3.11-3.73ZM15.58.66a6.94,6.94,0,0,1,6,10.43l10,7.13-5.51,6.61-6.4.91-4.92,5.91L.31,21.34l5.51-6.61,5.69-.81L9.72,11.34A6.89,6.89,0,0,1,8.65,7.92V7.61A7,7,0,0,1,15.58.66Z"/>
  </g>
</svg>
