<?xml version="1.0" encoding="UTF-8"?>
<svg width="32px" height="32px" viewBox="0 0 32 32" version="1.1" xmlns="http://www.w3.org/2000/svg" xmlns:xlink="http://www.w3.org/1999/xlink">
    <!-- Generator: Sketch 61.2 (89653) - https://sketch.com -->
    <title>Atoms/Ikoner/Ui/Smilies/Neutral</title>
    <desc>Created with Sketch.</desc>
    <g id="Atoms/Ikoner/Ui/Smilies/Neutral" stroke="none" stroke-width="1" fill="none" fill-rule="evenodd">
        <g id="Neutral" fill-rule="nonzero">
            <path d="M16,1 C24.2842712,1 31,7.71572875 31,16 C31,24.2842712 24.2842712,31 16,31 C7.71572875,31 1,24.2842712 1,16 C1,7.71572875 7.71572875,1 16,1 Z M16,3 C8.82029825,3 3,8.82029825 3,16 C3,23.1797017 8.82029825,29 16,29 C23.1797017,29 29,23.1797017 29,16 C29,8.82029825 23.1797017,3 16,3 Z M25,19 L25,21 L7,21 L7,19 L25,19 Z" id="Combined-Shape" fill="#2A2859"></path>
            <circle id="Oval" fill="#2A2859" cx="12" cy="14" r="2"></circle>
            <circle id="Oval" fill="#2A2859" cx="20" cy="14" r="2"></circle>
        </g>
    </g>
</svg>
