<svg xmlns="http://www.w3.org/2000/svg" width="32" height="32" viewBox="0 0 32 32"><g id="No-Dog"><path d="M25.33,9.16l.76-2.32-1.32-.57L23.08,9.54l-2.2,2.91-1.21,1.61-.91.92L5.48,15,1.54,11.71l-1.06,1L4,16.25V30H6V27.54L9.38,23,22,25.77V30h2V19.32l.39-.53,1.22-1.62.95-1.26,2.34-.37a4.1,4.1,0,0,0,3.1-4V10.12ZM22,18.65V23.7L8.67,20.78,6,24.5V17l13.71,0,1.38-1.49L23,17.36Zm6.5-5.07-3.06.48-1.26,1.69-1.87-1.87,2.13-2.82,5.54.79A2.06,2.06,0,0,1,28.5,13.58Z"/><polygon points="9.7 11.18 13.24 7.64 16.78 11.18 18.2 9.77 14.65 6.22 18.2 2.68 16.78 1.26 13.24 4.81 9.7 1.26 8.28 2.68 11.82 6.22 8.28 9.77 9.7 11.18"/></g></svg>