<svg xmlns="http://www.w3.org/2000/svg" width="32" height="32" viewBox="0 0 32 32"><g id="Nursery"><path d="M24,16.3s-.27-1.88-.41-2.83l-2,.29c.13.85.25,1.68.37,2.53H16.44v2.05H25v-2Z"/><path d="M11.92,6.68A2.58,2.58,0,1,0,9.35,4.12,2.58,2.58,0,0,0,11.92,6.68Z"/><path d="M27.77,18.35A1.87,1.87,0,1,0,26,16.48,1.88,1.88,0,0,0,27.77,18.35Z"/><path d="M14.71,13.75l4.81-1.39-.44-1.94-3.95,1.13-2.64-2s.3-.76.37-1L7.57,6.3l-.13-.06-.07.16L3.09,15.25,2.27,17l2.36,1s-.07,8,0,11.75v.17H6.8c0-3.67,0-7.31,0-11l1.9.81c1-2.75,2-5.38,3-8.12l0-.08Zm-7.26,3-2.22-.95c1.09-2.26,2.18-4.5,3.27-6.77l1.59.69Z"/><rect x="11.77" y="19.5" width="17.96" height="2"/></g></svg>