<svg xmlns="http://www.w3.org/2000/svg" width="32" height="32" viewBox="0 0 32 32"><defs><style>.cls-1{fill-rule:evenodd;}</style></defs><g id="park"><path id="Combined-Shape" class="cls-1" d="M5,29v3H3V29Zm14,0v3H17V29ZM25,0a7,7,0,0,1,1,13.92h0v3.17l1.79-1.8,1.42,1.42L26,19.91V32H24V13.92A7,7,0,0,1,25,0ZM22,26v2H0V26Zm0-7v2H19v1h3v2H19v1H17V24H5v1H3V24H0V22H3V21H0V19Zm-5,2H5v1H17ZM25,2a5,5,0,1,0,5,5A5,5,0,0,0,25,2ZM12,4V6A4,4,0,0,0,8.8,7.6h0L8.5,8h-1l-.3-.4A4,4,0,0,0,4,6H4V4A6,6,0,0,1,8,5.53,6,6,0,0,1,12,4Z"/></g></svg>