<?xml version="1.0" encoding="UTF-8"?><svg id="Placeholder" xmlns="http://www.w3.org/2000/svg" viewBox="0 0 32 32"><polygon points="30.95473 30.96846 27.45473 30.96846 27.45473 28.96846 28.95473 28.96846 28.95473 27.46846 30.95473 27.46846 30.95473 30.96846"/><path d="M22.85512,30.96846h-4.59961v-2h4.59961v2ZM13.65493,30.96846h-4.59961v-2h4.59961v2Z"/><polygon points="4.45473 30.96846 .95473 30.96846 .95473 27.46846 2.95473 27.46846 2.95473 28.96846 4.45473 28.96846 4.45473 30.96846"/><path d="M2.95473,22.86788H.95473v-4.59961h2v4.59961ZM2.95473,13.66768H.95473v-4.59961h2v4.59961Z"/><polygon points="2.95473 4.46846 .95473 4.46846 .95473 .96846 4.45473 .96846 4.45473 2.96846 2.95473 2.96846 2.95473 4.46846"/><path d="M22.85415,2.96846h-4.59961V.96846h4.59961v2ZM13.65395,2.96846h-4.59961V.96846h4.59961v2Z"/><polygon points="30.95473 4.46846 28.95473 4.46846 28.95473 2.96846 27.45473 2.96846 27.45473 .96846 30.95473 .96846 30.95473 4.46846"/><path d="M30.95473,22.86788h-2v-4.59961h2v4.59961ZM30.95473,13.66768h-2v-4.59961h2v4.59961Z"/></svg>