<?xml version="1.0" encoding="UTF-8"?><svg id="qr-code" xmlns="http://www.w3.org/2000/svg" viewBox="0 0 32 32"><path d="M1,1h14v2H1V1Z"/><path d="M21,1h10v2h-10V1Z"/><path d="M21,9h10v2h-10v-2Z"/><path d="M15,3h6v2h-6v-2Z"/><path d="M11,5h7v2h-7v-2Z"/><path d="M5,5h2v2h-2v-2Z"/><path d="M25,5h2v2h-2v-2Z"/><path d="M1,9h10v2H1v-2Z"/><path d="M3,21h6v2H3v-2Z"/><path d="M11,22h4v2h-4v-2Z"/><path d="M17,15h4v2h-4v-2Z"/><path d="M3,29h6v2H3v-2Z"/><path d="M5,13h4v2h-4v-2Z"/><path d="M11,11h4v2h-4v-2Z"/><path d="M3,3v6H1V3h2Z"/><path d="M11,3v6h-2V3h2Z"/><path d="M31,3v6h-2V3h2Z"/><path d="M23,3v6h-2V3h2Z"/><path d="M23,11v4h-2v-4h2Z"/><path d="M29,11v8h-2v-8h2Z"/><path d="M25,15v4h-2v-4h2Z"/><path d="M27,19v2h-2v-2h2Z"/><path d="M19,22v2h-2v-2h2Z"/><path d="M21,20v2h-2v-2h2Z"/><path d="M25,21v2h-2v-2h2Z"/><path d="M17,24v2h-2v-2h2Z"/><path d="M7,25v2h-2v-2h2Z"/><path d="M13,27v2h-2v-2h2Z"/><path d="M21,29v2h-8v-2h8Z"/><path d="M31,19v4h-2v-4h2Z"/><path d="M29,21v5h-2v-5h2Z"/><path d="M31,26v5h-2v-5h2Z"/><path d="M25,26v4h-2v-4h2Z"/><path d="M27,26v2h-2v-2h2Z"/><path d="M23,20v6h-2v-6h2Z"/><path d="M21,24v5h-2v-5h2Z"/><path d="M5,11v4h-2v-4h2Z"/><path d="M11,15v6h-2v-6h2Z"/><path d="M11,21v10h-2v-10h2Z"/><path d="M3,21v10H1v-10h2Z"/><path d="M15,9v2h-2v-2h2Z"/><path d="M15,13v9h-2v-9h2Z"/><path d="M17,13v8h-2v-8h2Z"/><path d="M20,7v4h-2v-4h2Z"/></svg>