<svg xmlns="http://www.w3.org/2000/svg" width="32" height="32" viewBox="0 0 32 32"><defs><style>.cls-1{fill-rule:evenodd;}</style></defs><g id="recycling"><path id="Combined-Shape" class="cls-1" d="M27.65,12.13,32,19.38,26.21,30h-7l-4-4L19,21.61l4.57-.12-3-5.08Zm-18.44.15,1.13,5.33-2.14,4,5.9-.05L14.27,30H5.79L0,19.87l3.7-6.72ZM27.56,23.36l-7.64.21-2,2.29L20,28h5Zm-15.41.16-5,0L5.8,26l1.14,2h5.3Zm-4.49-9L5,15l-2.7,4.89L4.64,24l3.62-6.67ZM27,14.86l-3.69,2.23,2.55,4.34,2.83-.08,1.06-1.93ZM21.67,2l3.86,6.09L23.4,13.25l-4.9-1.07L16.12,8.29l-2.91,5.13L6,9.44,10.08,2ZM20.58,4H15.82l3.93,6.4L22.2,11l1.11-2.65ZM13.49,4H11.25L8.67,8.66l3.78,2.08,2.49-4.37Z"/></g></svg>