<svg xmlns="http://www.w3.org/2000/svg" viewBox="0 0 32 32"><path d="M27.65 12.13 32 19.38 26.21 30h-7l-4-4L19 21.61l4.57-.12-3-5.08zm-18.44.15 1.13 5.33-2.14 4 5.9-.05.17 8.44H5.79L0 19.87l3.7-6.72zm18.35 11.08-7.64.21-2 2.29L20 28h5zm-15.41.16h-5L5.8 26l1.14 2h5.3zm-4.49-9L5 15l-2.7 4.89L4.64 24l3.62-6.67zm19.34.34-3.69 2.23 2.55 4.34 2.83-.08 1.06-1.93zM21.67 2l3.86 6.09-2.13 5.16-4.9-1.07-2.38-3.89-2.91 5.13L6 9.44 10.08 2zm-1.09 2h-4.76l3.93 6.4 2.45.6 1.11-2.65zm-7.09 0h-2.24L8.67 8.66l3.78 2.08 2.49-4.37z" fill-rule="evenodd"/></svg>