<?xml version="1.0" encoding="UTF-8"?>
<svg width="32px" height="32px" viewBox="0 0 32 32" version="1.1" xmlns="http://www.w3.org/2000/svg" xmlns:xlink="http://www.w3.org/1999/xlink">
    <!-- Generator: Sketch 61.2 (89653) - https://sketch.com -->
    <title>Atoms/Ikoner/Skilt/Resturant</title>
    <desc>Created with Sketch.</desc>
    <g id="Atoms/Ikoner/Skilt/Resturant" stroke="none" stroke-width="1" fill="none" fill-rule="evenodd">
        <g id="Restaurant">
            <polygon id="Path" points="0 0 32 0 32 32 0 32"></polygon>
            <g id="Group" transform="translate(8.000000, 1.000000)" fill="#2A2859">
                <path d="M1.5,0.25 L1.5,8 L2.25,8 L2.25,0.25 L3.75,0.25 L3.75,8 L4.5,8 L4.5,0.25 L6,0.25 L6,8.75 C6,10.054 5.163,11.153 4,11.566 L4,11.566 L4,30 L2,30 L2,11.566 C0.837,11.153 0,10.054 0,8.75 L0,8.75 L0,0.25 L1.5,0.25 Z M16,0 L16,30 L14,30 L14,17 L10,17 L10,6 C10,2.686 12.686,0 16,0 L16,0 Z M14,2.537 C12.805,3.229 12,4.522 12,6 L12,6 L12,15 L14,15 Z" id="Combined-Shape"></path>
            </g>
        </g>
    </g>
</svg>