<?xml version="1.0" encoding="UTF-8"?><svg id="Ruler" xmlns="http://www.w3.org/2000/svg" viewBox="0 0 32 32"><defs><style>.cls-1{fill-rule:evenodd;}</style></defs><path class="cls-1" d="M24.45.09l7.46,7.68L7.77,31.91.09,24.45,24.45.09ZM2.93,24.43l4.81,4.68L29.11,7.75l-4.68-4.81-.67.67,2.55,2.55-1.41,1.41-2.55-2.55-1.71,1.71,1.58,1.57-1.41,1.42-1.58-1.58-1.71,1.71,2.55,2.55-1.41,1.41-2.55-2.55-1.71,1.71,1.83,1.83-1.41,1.41-1.83-1.83-1.71,1.71,2.55,2.55-1.41,1.41-2.55-2.55-1.71,1.71,1.58,1.58-1.42,1.41-1.57-1.58-1.71,1.71,2.55,2.55-1.41,1.41-2.55-2.55-.67.67Z"/></svg>