<svg width="32" height="32" viewBox="0 0 32 32" fill="none" xmlns="http://www.w3.org/2000/svg">
<path fill-rule="evenodd" clip-rule="evenodd" d="M24.3641 0L31.8286 7.68055L7.68055 31.8286L0 24.3641L24.3641 0ZM2.84875 24.3438L7.66051 29.0202L29.0202 7.66051L24.3438 2.84875L23.6726 3.51995L26.2238 6.07113L24.8096 7.48535L22.2584 4.93416L20.5506 6.64198L22.1302 8.21602L20.7185 9.63274L19.1364 8.05619L17.4264 9.76613L19.9776 12.3173L18.5634 13.7315L16.0122 11.1803L14.3034 12.8892L16.1315 14.7173L14.7173 16.1315L12.8892 14.3034L11.1803 16.0123L13.7315 18.5634L12.3173 19.9777L9.7661 17.4265L8.05624 19.1363L9.63276 20.7185L8.216 22.1302L6.64202 20.5505L4.93413 22.2584L7.48529 24.8096L6.07107 26.2238L3.51992 23.6727L2.84875 24.3438Z" fill="#2A2859"/>
</svg>
