<svg xmlns="http://www.w3.org/2000/svg" viewBox="0 0 32 32"><path d="M23.35 19.41a4.82 4.82 0 0 0-3.77 1.83l-7.34-4a4.69 4.69 0 0 0 .12-3.39l7-4A4.84 4.84 0 1 0 18.5 7a4.19 4.19 0 0 0 .1 1l-7.24 4.15a4.81 4.81 0 0 0-3.59-1.65 4.85 4.85 0 1 0 0 9.7 4.81 4.81 0 0 0 3.3-1.32L18.68 23a4.51 4.51 0 0 0-.18 1.23 4.85 4.85 0 1 0 4.85-4.85zm0-15.24A2.85 2.85 0 1 1 20.5 7a2.86 2.86 0 0 1 2.85-2.83zM7.77 18.2a2.85 2.85 0 1 1 2.85-2.85 2.86 2.86 0 0 1-2.85 2.85zm15.58 8.91a2.85 2.85 0 1 1 2.85-2.85 2.86 2.86 0 0 1-2.85 2.85z"/></svg>