<svg xmlns="http://www.w3.org/2000/svg" width="32" height="32" viewBox="0 0 32 32"><g id="Shower"><path d="M7.64,9.8c0-1.51,0-3,0-4.52a3.75,3.75,0,0,1,.09-.82,2.66,2.66,0,0,1,.36-.85A3.18,3.18,0,0,1,9.44,2.48a4.89,4.89,0,0,1,1.63-.41,5.09,5.09,0,0,1,2,.24,3.44,3.44,0,0,1,1.57,1,2.43,2.43,0,0,1,.65,1.57.2.2,0,0,1-.13,0H13.46c-.12,0-.11,0-.11.11V7c0,.11,0,.11.1.11h5.71c.11,0,.11,0,.11-.11V5c0-.12,0-.11-.11-.11H17.47c-.13,0-.13,0-.13-.12a4.54,4.54,0,0,0-.14-1,4.64,4.64,0,0,0-1.69-2.49A6.4,6.4,0,0,0,11.85,0H11c-.24,0-.47,0-.71.08a5.94,5.94,0,0,0-1.7.5,5.3,5.3,0,0,0-2.1,1.65,4.74,4.74,0,0,0-.94,2.83c0,.22,0,.44,0,.66,0,.91,0,1.82,0,2.73V31.92H7.64Z"/><circle cx="13.45" cy="9.91" r="1"/><circle cx="16.45" cy="9.91" r="1"/><circle cx="19.3" cy="9.91" r="1"/><circle cx="11.95" cy="13.91" r="1"/><circle cx="14.95" cy="13.91" r="1"/><circle cx="17.95" cy="13.91" r="1"/><circle cx="20.95" cy="13.91" r="1"/></g></svg>