<svg data-name="Layer 1" xmlns="http://www.w3.org/2000/svg" viewBox="0 0 32 32"><path d="M25.018 25.746H6.982a5.71 5.71 0 0 1-.342-.01A6.01 6.01 0 0 1 3.938 14.57 8.799 8.799 0 0 1 19.928 10a6.016 6.016 0 0 1 7.192 4.116 6.01 6.01 0 0 1-1.794 11.62c-.1.006-.204.01-.308.01ZM12.724 8.253a6.806 6.806 0 0 0-6.8 6.8l.017.762-.598.274a4.01 4.01 0 0 0 1.42 7.65c.074.005.147.007.22.007h18.035q.098 0 .196-.006a4.01 4.01 0 0 0 .811-7.878l-.608-.161-.117-.618a4.012 4.012 0 0 0-5.429-2.969l-.808.325-.433-.756a6.82 6.82 0 0 0-5.906-3.43Z"/></svg>