<svg xmlns="http://www.w3.org/2000/svg" width="32" height="32" viewBox="0 0 32 32">
  <g fill="none" fill-rule="evenodd">
    <path fill="#000" fill-rule="nonzero" d="M32,19 L27,19 L27,11.444 C28.19,10.75 29,9.474 29,8 L29,0 L3,0 L3,8 C3,9.474 3.81,10.75 5,11.444 L5,24.142 C3.278,24.587 2,26.138 2,28 C2,30.209 3.791,32 6,32 C7.862,32 9.412,30.722 9.859,29 L25,29 L25,32 L27,32 L27,29 L27,28 L27,21 L32,21 L32,19 Z M23,2 L27,2 L27,8 C27,9.103 26.103,10 25,10 C23.897,10 23,9.103 23,8 L23,2 Z M17,2 L21,2 L21,8 C21,9.103 20.103,10 19,10 C17.897,10 17,9.103 17,8 L17,2 Z M11,2 L15,2 L15,8 C15,9.103 14.103,10 13,10 C11.897,10 11,9.103 11,8 L11,2 Z M5,2 L9,2 L9,8 C9,9.103 8.103,10 7,10 C5.897,10 5,9.103 5,8 L5,2 Z M10,10.618 C10.734,11.458 11.8,12 13,12 C14.2,12 15.266,11.458 16,10.618 C16.734,11.458 17.8,12 19,12 C20.201,12 21.266,11.458 22,10.618 C22.734,11.458 23.799,12 25,12 L25,19 L7,19 L7,12 C8.2,12 9.266,11.458 10,10.618 Z M6,30 C4.897,30 4,29.103 4,28 C4,26.897 4.897,26 6,26 C7.103,26 8,26.897 8,28 C8,29.103 7.103,30 6,30 Z M25,27 L9.859,27 C9.496,25.599 8.401,24.504 7,24.141 L7,21 L25,21 L25,27 Z"/>
  </g>
</svg>
