<svg xmlns="http://www.w3.org/2000/svg" width="32" height="32" viewBox="0 0 32 32"><defs><style>.cls-1{fill:#1d1d1b;}</style></defs><g id="Stroller"><path class="cls-1" d="M22.31,20.64a4,4,0,1,0,4,4A4,4,0,0,0,22.31,20.64Zm0,6.06a2.06,2.06,0,1,1,2.06-2.06A2.06,2.06,0,0,1,22.31,26.7Z"/><path class="cls-1" d="M12.13,20.64a4,4,0,1,0,4,4A4,4,0,0,0,12.13,20.64Zm0,6.06a2.06,2.06,0,1,1,2.06-2.06A2.06,2.06,0,0,1,12.13,26.7Z"/><path class="cls-1" d="M27.25,11.31v0l-.07-.56-.81-6.65H17.75v6.65H9.84l-.4-3.24H4.84v2H7.66l.23,1.8h0l1,8H26.27l.82-6.66.11-.91Zm-7.5-5.25h4.84l.57,4.65H19.75ZM24.5,17.27H10.66l-.57-4.67h15Z"/></g></svg>