<?xml version="1.0" encoding="UTF-8"?>
<svg width="32px" height="32px" viewBox="0 0 32 32" version="1.1" xmlns="http://www.w3.org/2000/svg" xmlns:xlink="http://www.w3.org/1999/xlink">
    <!-- Generator: Sketch 61.2 (89653) - https://sketch.com -->
    <title>Atoms/Ikoner/Tjenester/Swingset</title>
    <desc>Created with Sketch.</desc>
    <g id="Atoms/Ikoner/Tjenester/Swingset" stroke="none" stroke-width="1" fill="none" fill-rule="evenodd">
        <g id="Barnehage">
            <path d="M27,2 L27,4 L29,4 L29,6 L3,6 L3,4 L5,4 L5,2 L1,2 L1,30 L3,30 L3,8 L6,8 L6,26 L14,26 L14,8 L20.5,8 L20.5,18.12 C18.498,18.576 17,20.36 17,22.5 C17,24.985 19.015,27 21.5,27 C23.985,27 26,24.985 26,22.5 C26,20.36 24.502,18.576 22.5,18.12 L22.5,8 L29,8 L29,30 L31,30 L31,2 L27,2 Z M24,22.5 C24,23.878 22.878,25 21.5,25 C20.122,25 19,23.878 19,22.5 C19,21.121 20.122,20 21.5,20 C22.878,20 24,21.121 24,22.5 Z M8,24 L8,22 L12,22 L12,24 L8,24 Z M12,20 L8,20 L8,8 L12,8 L12,20 Z" id="Shape" fill="#2A2859"></path>
        </g>
    </g>
</svg>
