<svg xmlns="http://www.w3.org/2000/svg" width="32" height="32" viewBox="0 0 32 32"><g id="thumbs-up"><path id="Combined-Shape" d="M24.33,2a2.84,2.84,0,0,1,2.07.89A3,3,0,0,1,27.26,5h0v.14l-1.48,5.12,3.27-.22a3,3,0,0,1,2.24,1.11h0l.12.16a3,3,0,0,1,.41,2.62h0l-4.21,14.2H11.46V30H2V11.29h9.46v2.38L22.38,2.76A2.82,2.82,0,0,1,24.11,2ZM9.46,13.29H4V28H9.46ZM24.33,4a.86.86,0,0,0-.65.3h0L11.46,16.49v9.65H26.11l3.8-12.79a1,1,0,0,0-.07-.76h0l-.07-.12a1,1,0,0,0-.68-.42h0l-6,.4,2.19-7.57v0a1,1,0,0,0-.2-.49h0L25,4.26A.87.87,0,0,0,24.33,4Z"/></g></svg>