<svg xmlns="http://www.w3.org/2000/svg" viewBox="0 0 32 32"><path d="M28.32 1.86A2.32 2.32 0 0 1 23.77 1L21.91.61a2.34 2.34 0 0 1-2 1.75V0h-4a2.48 2.48 0 0 1-2.48 2.36A2.48 2.48 0 0 1 11 0H9a2.49 2.49 0 0 1-2.53 2.36A2.48 2.48 0 0 1 4 0H0v32h4a2.48 2.48 0 0 1 5 0h2a2.48 2.48 0 0 1 4.95 0h4v-3.36a2.34 2.34 0 0 1 2 .63 2.31 2.31 0 0 1 .67 2l3.68.72L32 2.58zM17.92 30h-.53a4.46 4.46 0 0 0-7.43-.7 4.49 4.49 0 0 0-3.91-1.66A4.44 4.44 0 0 0 2.53 30H2V2h.55a4.46 4.46 0 0 0 3.92 2.36A4.47 4.47 0 0 0 10 2.68a4.44 4.44 0 0 0 3.48 1.68A4.48 4.48 0 0 0 17.38 2h.54v28zm6.8-.31-.3-.06a4.29 4.29 0 0 0-4.51-3V13.17a1.5 1.5 0 1 0 0-2.84v-6a4.31 4.31 0 0 0 2.41-.91 4.27 4.27 0 0 0 3.35 2.16 4.3 4.3 0 0 0 3.69-1.48l.3.06z"/><ellipse cx="4.98" cy="11.49" rx="1.49" ry="1.5"/><ellipse cx="9.96" cy="11.49" rx="1.49" ry="1.5"/><ellipse cx="14.94" cy="11.49" rx="1.49" ry="1.5"/><ellipse cx="25.02" cy="12.66" rx="1.49" ry="1.5"/></svg>