<?xml version="1.0" encoding="UTF-8"?>
<svg width="32px" height="32px" viewBox="0 0 32 32" version="1.1" xmlns="http://www.w3.org/2000/svg" xmlns:xlink="http://www.w3.org/1999/xlink">
    <!-- Generator: Sketch 61.2 (89653) - https://sketch.com -->
    <title>Atoms/Ikoner/Skilt/Toilet</title>
    <desc>Created with Sketch.</desc>
    <g id="Atoms/Ikoner/Skilt/Toilet" stroke="none" stroke-width="1" fill="none" fill-rule="evenodd">
        <g id="Toalett">
            <polygon id="Path" points="0 0 32 0 32 32 0 32"></polygon>
            <g id="Group" transform="translate(2.000000, 0.000000)" fill="#2A2859">
                <path d="M8.918,7 L9.995,19.917 L8.002,20.083 L8,20.062 L8,32 L6,32 L6,19 L4,19 L4,32 L2,32 L2,20.021 L1.995,20.083 L0.002,19.917 L1.078,7 L8.918,7 Z M26.832,7 L28.98,18.821 L27.014,19.178 L27.001,19.106 L27.001,23 L26.001,23 L26.001,32 L24.001,32 L24.001,23 L22.001,23 L22.001,32 L20.001,32 L20.001,23 L19.001,23 L19.001,19.068 L18.981,19.178 L17.014,18.821 L19.162,7 L26.832,7 Z M15,0 L15,32 L13,32 L13,0 L15,0 Z M25,9 L21,9 L21,21 L25,21 L25,9 Z M7.079,9 L2.919,9 L2.252,17 L7.746,17 L7.079,9 Z M26.256,4 C27.217,4 27.996,4.779 27.996,5.74 L27.996,5.74 L27.996,6.306 L27.43,6.306 C26.47,6.306 25.691,5.527 25.69,4.566 L25.69,4.566 L25.69,4 Z M22.997,0.5 C24.3777119,0.5 25.497,1.61928813 25.497,3 C25.497,4.38071187 24.3777119,5.5 22.997,5.5 C21.6162881,5.5 20.497,4.38071187 20.497,3 C20.497,1.61928813 21.6162881,0.5 22.997,0.5 Z M4.998,0.25 C6.37871187,0.25 7.498,1.36928813 7.498,2.75 C7.498,4.13071187 6.37871187,5.25 4.998,5.25 C3.61728813,5.25 2.498,4.13071187 2.498,2.75 C2.498,1.36928813 3.61728813,0.25 4.998,0.25 Z" id="Combined-Shape"></path>
            </g>
        </g>
    </g>
</svg>