<svg xmlns="http://www.w3.org/2000/svg" width="32" height="32" viewBox="0 0 32 32"><g id="Toilet"><circle cx="7" cy="2.75" r="2.5"/><path d="M3.08,7,2,19.92l2,.16V32H6V19H8V32h2V20.08l2-.16L10.92,7ZM4.25,17l.67-8H9.08l.67,8Z"/><rect x="15" width="2" height="32"/><circle cx="25" cy="3" r="2.5"/><path d="M31,18.82,28.83,7H21.16L19,18.82l2,.36,0-.11V27h1v5h2V27h2v5h2V27h1V19.18ZM23,9h4V25H23Zm6.43-2.69H30V5.74A1.74,1.74,0,0,0,28.26,4h-.57v.57A1.74,1.74,0,0,0,29.43,6.31Z"/><path d="M22.3,4.57V4h-.56A1.74,1.74,0,0,0,20,5.74v.57h.56A1.74,1.74,0,0,0,22.3,4.57Z"/></g></svg>