<svg xmlns="http://www.w3.org/2000/svg" viewBox="0 0 32 32"><path d="m7.63 29.14-4.9-4.9 11.5-11.5c-.21-.71-.32-1.45-.32-2.2 0-4.23 3.44-7.68 7.68-7.68.98 0 1.94.18 2.84.54l1.45.58-4.14 3.94.64 1.61 1.65.66 4.11-3.9.55 1.36c.37.92.56 1.89.56 2.89 0 4.23-3.44 7.68-7.68 7.68-.9 0-1.77-.15-2.6-.45L7.63 29.14Zm-2.07-4.9 2.07 2.07 10.04-10.04.98-.83.58.27c.74.34 1.54.52 2.37.52 3.13 0 5.68-2.55 5.68-5.68 0-.21-.01-.42-.03-.62l-2.75 2.61-3.64-1.46-1.47-3.66 2.66-2.53c-.15-.01-.3-.02-.45-.02-3.13 0-5.68 2.55-5.68 5.68 0 .74.14 1.46.42 2.13l.27.66-1.05.91-10 9.99Z" style="fill:#211414"/></svg>