<svg xmlns="http://www.w3.org/2000/svg" width="32" height="32" viewBox="0 0 32 32"><g id="Trail"><path d="M9.09,30.89l3.71-8.84-1.5-3L1.16,16.79v-2l2.91.66V9.49a5.79,5.79,0,0,1-.68-.29A4.12,4.12,0,0,1,1.7,7.66,4.26,4.26,0,1,1,6.18,9.6l-.12,0v6.23L11,17l0-1.82-.11,0a3.36,3.36,0,0,1-2.27-2.63,3.44,3.44,0,1,1,4.52,2.62l-.14,0V17h6V9.1l5-4.69,5,4.67v8h2v2H18.08l1.31,3-3.2,6.84H14l3.14-6.84-1.36-3H13.59l1.46,3-3.9,8.84ZM24,7.1l-2.94,3V17h6l0-6.94ZM4.57,3.28A2.16,2.16,0,0,0,3.28,4.52,2.28,2.28,0,0,0,7.48,6.3a2.23,2.23,0,0,0,.18-.88A2.29,2.29,0,0,0,4.57,3.28Zm7,7.24a1.34,1.34,0,0,0-.75.67,1.44,1.44,0,1,0,1.94-.61A1.42,1.42,0,0,0,11.55,10.52Z"/></g></svg>