<svg xmlns="http://www.w3.org/2000/svg" viewBox="0 0 32 32"><path d="M9.09 30.89l3.71-8.84-1.5-3-10.14-2.26v-2l2.91.66V9.49a5.79 5.79 0 01-.68-.29A4.12 4.12 0 011.7 7.66 4.26 4.26 0 116.18 9.6h-.12v6.23L11 17v-1.82h-.11a3.36 3.36 0 01-2.27-2.63 3.44 3.44 0 114.52 2.62H13V17h6V9.1l5-4.69 5 4.67v8h2v2H18.08l1.31 3-3.2 6.84H14l3.14-6.84-1.36-3h-2.19l1.46 3-3.9 8.84zM24 7.1l-2.94 3V17h6v-6.94zM4.57 3.28a2.16 2.16 0 00-1.29 1.24 2.28 2.28 0 004.2 1.78 2.23 2.23 0 00.18-.88 2.29 2.29 0 00-3.09-2.14zm7 7.24a1.34 1.34 0 00-.75.67 1.44 1.44 0 101.94-.61 1.42 1.42 0 00-1.21-.06z"/></svg>