<svg xmlns="http://www.w3.org/2000/svg" viewBox="0 0 32 32"><path data-name="Twitter" d="M29 7.6a10.27 10.27 0 0 1-3.06.88 5.57 5.57 0 0 0 2.34-3.07 10.54 10.54 0 0 1-3.39 1.34A5.2 5.2 0 0 0 21 5a5.45 5.45 0 0 0-5.33 5.55 5.32 5.32 0 0 0 .14 1.27A14.92 14.92 0 0 1 4.81 6a5.74 5.74 0 0 0-.72 2.8 5.61 5.61 0 0 0 2.37 4.62A5.27 5.27 0 0 1 4 12.74v.07a5.5 5.5 0 0 0 4.28 5.44 4.93 4.93 0 0 1-1.4.2 5.67 5.67 0 0 1-1-.1 5.37 5.37 0 0 0 5 3.85 10.46 10.46 0 0 1-6.63 2.38A10.69 10.69 0 0 1 3 24.51 14.72 14.72 0 0 0 11.18 27c9.82 0 15.17-8.46 15.17-15.8v-.72A10.92 10.92 0 0 0 29 7.6" fill-rule="evenodd"/></svg>