<svg xmlns="http://www.w3.org/2000/svg" width="32" height="32" viewBox="0 0 32 32"><g id="Urinal"><path d="M15.24,3.56H19V5.41H17.29V6.59H22c.1.47,1.45,6.75,2,9.42a15.54,15.54,0,0,1,.42,2.62,7.05,7.05,0,0,1-1,3.83A9.06,9.06,0,0,1,20,26c-.41.22-.85.37-1.27.56a.31.31,0,0,0-.17.17,2.44,2.44,0,0,1-4.65.09.33.33,0,0,0-.17-.16,8.57,8.57,0,0,1-5.43-4.5,7.13,7.13,0,0,1-.7-2.56A9.27,9.27,0,0,1,8,16.14C8.75,13,10.32,6.6,10.33,6.59h4.91Zm5.21,4.95H11.83s0,0-.06.24c-.68,2.79-1.36,5.58-2.06,8.37a6.55,6.55,0,0,0-.14,2.75,5.8,5.8,0,0,0,1.81,3.27,6.53,6.53,0,0,0,7,1.48A6.31,6.31,0,0,0,21.51,22a5.45,5.45,0,0,0,.87-4.46l-1.5-7C20.74,9.85,20.6,9.19,20.45,8.51Z"/><path d="M16,22.14a1.49,1.49,0,1,1,0-3,1.49,1.49,0,1,1,0,3Z"/></g></svg>