<svg xmlns="http://www.w3.org/2000/svg" width="32" height="32" viewBox="0 0 32 32">
  <g fill="none" fill-rule="evenodd">
    <rect width="32" height="32"/>
    <path fill="#000" fill-rule="nonzero" d="M16.846,10.49 L16.846,8.89 C19.1420541,8.36668068 20.6463214,6.16162642 20.2959013,3.83290717 C19.9454811,1.50418793 17.8589005,-0.160524017 15.5105171,0.0150406568 C13.1621337,0.19060533 11.346271,2.14706315 11.346,4.502 L13.346,4.502 C13.346,3.12128813 14.4652881,2.002 15.846,2.002 C17.2267119,2.002 18.346,3.12128813 18.346,4.502 C18.346,5.88271187 17.2267119,7.002 15.846,7.002 L14.846,7.002 L14.846,10.492 L0,21.244 L0,27 L32,27 L32,21.49 L16.846,10.49 Z M30,25 L2,25 L2,22.266 L15.845,12.236 L30,22.51 L30,25 Z" transform="translate(0 2)"/>
  </g>
</svg>
