<svg xmlns="http://www.w3.org/2000/svg" width="32" height="32" viewBox="0 0 32 32"><g id="Girl-wardrobe"><path d="M17,6.59V4.75H16a1.32,1.32,0,1,1,1.31-1.32h2A3.31,3.31,0,1,0,15,6.59L2.87,13v5.46h7v-2h-5V14.23L16,8.32l11.13,5.91v2.26h-5v2h7V13Z"/><path d="M12.1,16.47,11,25.72l1.14.12v3.3H13v2.77h2V29.14h2v2.77h2V29.14h.89V25.85L21,25.72,19.9,16.47Zm5.79,10.67H14.11V18.47h3.78Z"/><circle cx="16" cy="13.08" r="2.5"/><path d="M21,15.39v-.57a1.74,1.74,0,0,0-1.74-1.74h-.57v.57a1.74,1.74,0,0,0,1.74,1.74Z"/><path d="M13.31,13.65v-.57h-.57A1.74,1.74,0,0,0,11,14.82v.57h.57A1.74,1.74,0,0,0,13.31,13.65Z"/></g></svg>