<?xml version="1.0" encoding="UTF-8"?>
<svg width="32px" height="32px" viewBox="0 0 32 32" version="1.1" xmlns="http://www.w3.org/2000/svg" xmlns:xlink="http://www.w3.org/1999/xlink">
    <!-- Generator: Sketch 61.2 (89653) - https://sketch.com -->
    <title>Atoms/Ikoner/Tjenester/Water-faucet</title>
    <desc>Created with Sketch.</desc>
    <g id="Atoms/Ikoner/Tjenester/Water-faucet" stroke="none" stroke-width="1" fill="none" fill-rule="evenodd">
        <g id="Vann-og-avlop">
            <path d="M15.5,0 C22.117,0 27.5,5.383 27.5,12 L27.5,12 L27.5,17 L21.5,17 L21.5,12 C21.5,8.691 18.809,6 15.5,6 C12.191,6 9.5,8.691 9.5,12 L9.5,12 L9.5,32 L3.5,32 L3.5,12 C3.5,5.383 8.883,0 15.5,0 Z M15.5,2 C9.986,2 5.5,6.486 5.5,12 L5.5,12 L5.5,30 L7.5,30 L7.5,12 C7.5,7.589 11.089,4 15.5,4 C19.572,4 22.936,7.06 23.43,11 L23.43,11 L25.449,11 C24.946,5.954 20.676,2 15.5,2 Z M24.5,18.344 L27.328,21.172 C28.084,21.927 28.5,22.932 28.5,24 C28.5,25.068 28.084,26.073 27.328,26.828 C26.573,27.584 25.568,28 24.5,28 C23.432,28 22.427,27.584 21.672,26.828 C20.916,26.073 20.5,25.068 20.5,24 C20.5,22.932 20.916,21.927 21.672,21.172 L21.672,21.172 L24.5,18.344 Z M24.5,21.172 L23.086,22.586 C22.708,22.964 22.5,23.466 22.5,24 C22.5,24.534 22.708,25.036 23.086,25.414 C23.842,26.17 25.158,26.17 25.914,25.414 C26.292,25.036 26.5,24.534 26.5,24 C26.5,23.466 26.292,22.964 25.914,22.586 L25.914,22.586 L24.5,21.172 Z M25.5,13 L23.5,13 L23.5,15 L25.5,15 L25.5,13 Z" id="Combined-Shape" fill="#2A2859"></path>
        </g>
    </g>
</svg>
