<svg xmlns="http://www.w3.org/2000/svg" width="32" height="32" viewBox="0 0 32 32">
  <g fill="none" fill-rule="evenodd">
    <g fill="#000" fill-rule="nonzero" transform="translate(0 4)">
      <path d="M.151 7.16L1.66 8.67C9.58436814.761361532 22.4156319.761361532 30.34 8.67L31.849 7.16C23.0958094-1.59308962 8.90419057-1.59308962.151 7.16zM7.7 14.707L9.209 16.216C12.9628932 12.470644 19.0401068 12.470644 22.794 16.216L24.3 14.707C19.7153444 10.1247078 12.2846556 10.1247078 7.7 14.707z"/>
      <path d="M3.924,10.933 L5.433,12.442 C11.2724144,6.61616076 20.7255856,6.61616076 26.565,12.442 L28.074,10.933 C21.4050767,4.26436667 10.5929233,4.26436667 3.924,10.933 Z"/>
      <circle cx="16" cy="20.405" r="3"/>
    </g>
  </g>
</svg>
