<?xml version="1.0" encoding="UTF-8"?>
<svg width="192px" height="302px" viewBox="0 0 192 302" version="1.1" xmlns="http://www.w3.org/2000/svg" xmlns:xlink="http://www.w3.org/1999/xlink">
    <!-- Generator: Sketch 50.2 (55047) - http://www.bohemiancoding.com/sketch -->
    <title>EGC_Winner_Oslo_NO_white</title>
    <desc>Created with Sketch.</desc>
    <defs></defs>
    <g id="EGC_Winner_Oslo_NO_white" stroke="none" stroke-width="1" fill="none" fill-rule="evenodd">
        <polyline id="Fill-1" fill="#FFFFFE" points="154.867 176.839 157.221 169.606 151.062 165.128 158.675 165.128 161.024 157.892 163.378 165.128 170.986 165.128 164.83 169.606 167.183 176.839 161.024 172.37 154.867 176.839"></polyline>
        <polyline id="Fill-2" fill="#FFFFFE" points="167.175 204.411 170.661 193.676 161.529 187.044 172.82 187.044 176.307 176.305 179.794 187.044 191.083 187.044 181.953 193.676 185.435 204.411 176.307 197.777 167.175 204.411"></polyline>
        <polyline id="Fill-3" fill="#FFFFFE" points="174.011 156.096 175.56 151.323 171.501 148.375 176.52 148.375 178.069 143.605 179.619 148.375 184.636 148.375 180.579 151.325 182.126 156.096 178.069 153.148 174.011 156.096"></polyline>
        <path d="M187.168,98.128 C180.228,102.606 155.853,117.083 123.708,121.7 C90.754,126.421 68.246,128.278 36.731,147.388 C3.502,167.64 0.07,190.826 0,200.427 C0,201.716 0.189,203.567 0.189,203.567 C40.878,172.323 64.405,189.913 108.845,175.035 C167.358,155.447 184.089,108.755 187.194,98.135 L187.168,98.128" id="Fill-4" fill="#FFFFFE"></path>
        <path d="M51.894,133.821 C46.235,136.426 40.387,139.53 34.23,143.272 C27.054,147.614 21.172,152.146 16.356,156.7 L16.342,156.687 L16.342,114.868 L34.125,90.007 L51.884,114.868 L51.884,133.8" id="Fill-5" fill="#FFFFFE"></path>
        <path d="M156.014,108.236 C146.7,111.811 135.779,114.966 123.594,116.775 L123.596,94.77 L139.818,78.305 L156.018,94.77 L156.014,108.236" id="Fill-6" fill="#FFFFFE"></path>
        <path d="M119.371,117.375 C112.387,118.356 105.793,119.247 99.412,120.255 L99.412,81.774 L119.367,81.774 L119.367,117.351 L119.371,117.375" id="Fill-7" fill="#FFFFFE"></path>
        <path d="M95.188,120.947 C87.984,122.173 81.005,123.614 73.982,125.586 L73.984,99.376 L95.185,99.376 L95.188,120.947" id="Fill-8" fill="#FFFFFE"></path>
        <path d="M69.703,126.849 C65.172,128.262 60.672,129.919 55.988,131.907 L55.988,97.366 L62.847,61.03 L69.701,97.366 L69.703,126.849" id="Fill-9" fill="#FFFFFE"></path>
        <polyline id="Fill-10" fill="#FFFFFE" points="55.988 97.366 62.847 61.03 69.701 97.366"></polyline>
        <path d="M71.44,60.539 L73.054,60.52 C73.638,62.092 74.382,63.94 75.288,66.066 L75.464,66.169 C75.734,67.379 76.948,69.545 79.104,72.667 L79.42,72.619 C79.419,70.485 79.966,67.912 81.061,64.899 C82.345,61.427 83.8,59.297 85.427,58.512 C85.816,58.518 86.031,58.658 86.073,58.931 C86.123,59.268 85.737,60.124 84.911,61.5 C84.358,62.405 83.814,63.294 83.28,64.173 L83.324,64.039 C82.23,66.208 81.461,68.46 81.018,70.791 C81.024,71.546 80.951,72.547 80.795,73.801 C80.766,73.891 80.586,74.199 80.256,74.723 C80.195,74.884 80.059,74.98 79.848,75.012 C79.215,75.108 78.259,74.208 76.98,72.31 C75.925,70.767 74.865,68.891 73.796,66.682 C72.789,64.592 72.243,63.199 72.159,62.499 L71.44,60.539" id="Fill-11" fill="#FFFFFE"></path>
        <path d="M88.988,68.966 C88.831,69.077 88.477,69.152 87.922,69.194 C87.846,70.11 87.716,69.613 87.534,67.699 C87.351,65.788 87.236,64.532 87.188,63.936 C87.141,63.34 87.077,62.843 86.995,62.446 C86.913,62.048 86.829,61.425 86.743,60.576 C87.323,60.703 87.686,60.896 87.834,61.154 C87.98,61.412 88.149,62.023 88.338,62.985 C88.528,63.949 88.688,64.797 88.822,65.531 C88.955,66.266 89.01,67.411 88.988,68.966 Z M87.373,57.699 L86.835,57.78 C86.501,57.701 86.294,57.624 86.218,57.55 C85.94,57.419 85.755,56.985 85.665,56.244 C85.698,55.894 86.051,55.668 86.726,55.565 C86.953,55.64 87.244,55.713 87.6,55.788 C87.637,55.891 87.752,56.003 87.943,56.125 L88.024,56.662 C88.043,56.789 87.827,57.133 87.373,57.699 Z" id="Fill-12" fill="#FFFFFE"></path>
        <path d="M100.491,70.389 C99.713,69.667 99.028,68.283 98.437,66.238 C97.847,64.194 97.38,62.571 97.035,61.373 C96.692,60.175 96.455,59.436 96.326,59.152 C95.839,58.213 95.304,57.998 94.723,58.505 C94.143,59.015 93.666,59.815 93.293,60.906 C92.941,64.41 92.499,66.967 91.969,68.579 L91.449,68.561 C91.043,68.45 90.829,68.311 90.802,68.142 C91.194,66.746 91.55,64.406 91.871,61.122 C91.497,56.955 91.645,54.883 92.318,54.911 L93.129,55.563 C93.26,56.428 93.255,57.182 93.117,57.829 C93.032,58.833 93.011,59.473 93.053,59.747 C93.747,58.067 94.513,56.938 95.351,56.357 C96.102,56.049 96.64,56.14 96.962,56.63 C97.284,57.121 97.548,57.965 97.751,59.163 C98.087,60.944 98.474,62.611 98.914,64.161 C99.354,65.711 99.842,67.076 100.378,68.256 C100.912,69.436 101.562,69.99 102.328,69.917 C103.093,69.844 103.79,69.188 104.422,67.949 C104.995,67.043 105.218,67.051 105.089,67.977 C104.96,68.901 104.47,69.72 103.618,70.432 C102.767,71.142 101.724,71.129 100.491,70.389" id="Fill-13" fill="#FFFFFE"></path>
        <path d="M112.692,68.536 C111.914,67.814 111.23,66.43 110.64,64.385 C110.049,62.34 109.581,60.718 109.237,59.519 C108.894,58.322 108.657,57.583 108.528,57.299 C108.04,56.36 107.507,56.145 106.926,56.652 C106.346,57.162 105.869,57.962 105.496,59.052 C105.144,62.557 104.702,65.114 104.171,66.726 L103.65,66.708 C103.246,66.597 103.03,66.457 103.005,66.289 C103.396,64.892 103.753,62.552 104.073,59.269 C103.698,55.101 103.848,53.03 104.521,53.057 L105.331,53.71 C105.463,54.575 105.458,55.329 105.319,55.975 C105.234,56.98 105.214,57.62 105.255,57.893 C105.949,56.214 106.715,55.085 107.554,54.504 C108.305,54.196 108.842,54.287 109.164,54.777 C109.485,55.267 109.749,56.112 109.953,57.31 C110.288,59.091 110.676,60.757 111.116,62.307 C111.557,63.858 112.044,65.222 112.579,66.403 C113.114,67.582 113.765,68.136 114.529,68.063 C115.294,67.991 115.992,67.335 116.623,66.095 C117.197,65.189 117.42,65.198 117.291,66.124 C117.161,67.048 116.671,67.867 115.82,68.578 C114.969,69.289 113.926,69.276 112.692,68.536" id="Fill-14" fill="#FFFFFE"></path>
        <path d="M118.98,59.043 C118.091,59.436 117.657,60.342 117.68,61.763 C117.454,62.832 118.11,63.11 119.649,62.596 C122.244,62.504 123.115,61.639 122.263,60 C121.969,59.484 121.608,59.134 121.182,58.951 C120.755,58.768 120.367,58.697 120.018,58.74 C119.668,58.782 119.322,58.883 118.98,59.043 Z M124.215,66.042 C123.571,66.917 122.89,67.504 122.171,67.808 C121.451,68.112 120.739,68.246 120.033,68.213 C119.327,68.179 118.631,67.893 117.946,67.349 C117.535,66.916 117.195,66.456 116.928,65.968 C116.659,65.48 116.423,64.854 116.221,64.086 C115.135,64.316 114.548,64.287 114.461,63.998 C114.323,63.372 114.856,63.054 116.063,63.043 C116.023,62.078 116.13,61.184 116.383,60.358 C116.635,59.534 117.149,58.846 117.929,58.296 C118.708,57.747 119.421,57.472 120.067,57.471 C120.714,57.469 121.224,57.559 121.596,57.739 C122.422,58.067 123.115,58.802 123.678,59.946 C123.901,60.71 123.96,61.305 123.852,61.732 C123.876,62.741 121.849,63.448 117.771,63.851 C117.946,65.01 118.366,65.901 119.032,66.522 C119.698,67.143 120.45,67.374 121.289,67.214 C122.126,67.054 122.798,66.65 123.304,66.003 C123.809,65.355 124.24,65.143 124.599,65.37 L124.215,66.042 Z" id="Fill-15" fill="#FFFFFE"></path>
        <path d="M130.486,54.74 C129.564,56.195 129.23,57.54 129.482,58.774 C129.734,60.008 129.631,60.681 129.174,60.793 C128.559,60.714 128.203,60.327 128.108,59.628 C128.013,58.932 127.94,58.243 127.891,57.559 C127.841,56.878 127.7,56.167 127.47,55.425 C127.238,54.684 126.755,54.38 126.021,54.513 C124.911,55.436 123.918,56.849 123.042,58.749 C121.804,59.11 121.761,58.507 122.913,56.941 C124.066,55.376 124.88,54.379 125.354,53.951 C125.828,53.523 126.397,53.367 127.061,53.482 C127.85,53.707 128.479,54.582 128.947,56.106 C129.291,55.105 129.82,54.081 130.535,53.036 C131.249,51.989 132.514,51.123 134.328,50.437 C134.939,51.337 134.795,51.805 133.896,51.846 C132.996,51.885 131.859,52.85 130.486,54.74" id="Fill-16" fill="#FFFFFE"></path>
        <path d="M153.466,58.269 L153.182,58.312 C152.992,58.341 152.592,58.261 151.98,58.074 L150.464,58.304 C150.147,58.352 149.636,58.603 148.929,59.055 C148.419,59.391 147.909,59.727 147.399,60.064 C147.046,60.289 146.795,60.413 146.647,60.435 L145.73,60.575 C145.474,60.442 145.234,60.284 145.013,60.101 L144.964,59.786 C144.888,59.28 145.177,58.277 145.833,56.775 C146.306,55.776 146.771,54.789 147.227,53.815 C148.812,50.339 149.483,47.521 149.241,45.359 C149.153,45.351 148.952,45.371 148.636,45.419 C148.403,45.454 147.737,46.104 146.637,47.372 C145.624,48.517 144.972,49.327 144.677,49.804 L143.603,49.967 C143.484,49.899 143.384,49.805 143.302,49.689 L143.191,48.961 C143.733,48.275 144.279,47.611 144.829,46.967 C145.559,46.101 146.141,45.528 146.572,45.247 C147.008,44.426 147.489,43.975 148.017,43.895 L149.818,43.622 C150.32,44.085 150.622,44.653 150.725,45.327 C151.063,47.561 150.122,51.304 147.902,56.558 C147.774,56.858 147.594,57.295 147.358,57.87 L148.687,57.248 C149.477,56.913 149.986,56.726 150.219,56.691 L151.483,56.499 C151.777,56.454 152.162,56.569 152.635,56.842 C153.034,57.061 153.374,57.311 153.654,57.593 L153.466,58.269" id="Fill-17" fill="#FFFFFE"></path>
        <path d="M159.782,44.921 C159.637,44.814 159.501,44.707 159.377,44.596 C158.737,44.499 158.122,44.635 157.531,45.006 C157.353,45.248 157.233,45.385 157.173,45.416 C157.044,45.565 156.912,45.757 156.775,45.994 C156.646,46.422 156.481,47.04 156.281,47.846 C156.088,48.567 155.896,49.286 155.703,50.005 C155.283,51.643 155.197,53.272 155.443,54.895 C155.562,55.675 155.981,56.517 156.7,57.421 C156.92,57.453 157.052,57.465 157.094,57.459 L157.694,57.368 C158.642,56.362 159.368,54.688 159.875,52.347 C160.365,50.181 160.487,48.287 160.241,46.664 C160.129,45.926 159.976,45.346 159.782,44.921 Z M161.342,47.951 C161.302,48.54 161.234,49.445 161.14,50.667 C160.597,55.751 159.313,58.447 157.291,58.754 C157.08,58.786 156.74,58.751 156.272,58.65 C156.096,58.484 155.905,58.361 155.699,58.285 C155.149,57.506 154.778,56.904 154.585,56.48 C154.378,55.973 154.207,55.277 154.073,54.392 C153.83,52.79 154.009,50.844 154.609,48.554 C155.264,46.19 156.144,44.601 157.249,43.787 C158.315,43.431 159.24,43.344 160.023,43.527 C160.351,43.844 160.674,44.333 160.99,44.997 C161.188,45.313 161.363,45.964 161.514,46.956 C161.533,47.082 161.515,47.246 161.459,47.448 C161.407,47.673 161.368,47.84 161.342,47.951 Z" id="Fill-18" fill="#FFFFFE"></path>
        <path d="M167.813,49.458 L167.86,49.775 C168.508,54.463 168.696,57.27 168.428,58.194 L167.922,58.271 C167.654,58.075 167.434,57.828 167.26,57.532 C166.63,51.397 166.116,46.667 165.719,43.341 L165.313,43.435 C165.08,44.031 164.741,44.643 164.298,45.271 C163.908,45.827 163.583,46.103 163.324,46.098 L162.947,45.961 L162.748,45.927 L162.713,45.479 C162.732,45.326 162.813,45.077 162.955,44.732 C163.271,44.253 163.664,43.513 164.138,42.514 C164.662,41.422 165.044,40.674 165.285,40.271 L165.948,40.169 C165.97,40.167 166.146,40.257 166.476,40.445 C166.544,40.608 166.629,40.745 166.732,40.858 C167.003,42.78 167.363,45.646 167.813,49.458" id="Fill-19" fill="#FFFFFE"></path>
        <path d="M174.706,43.109 L174.137,43.195 C173.428,44.057 172.962,44.688 172.743,45.087 C172.438,45.631 172.167,46.339 171.934,47.215 C171.725,47.96 171.623,48.364 171.633,48.426 L171.815,49.628 C171.844,49.818 171.972,50.013 172.196,50.216 L172.733,50.134 C173.422,50.269 173.96,49.625 174.349,48.208 C174.675,47.662 175.011,46.89 175.354,45.888 C175.749,44.794 175.92,44.003 175.867,43.514 L174.706,43.109 Z M174.776,52.089 C174.655,52.43 174.58,52.927 174.55,53.578 C174.512,54.469 174.482,54.979 174.46,55.111 C174.306,55.523 174.167,55.954 174.041,56.404 C174.115,56.89 174.19,57.384 174.267,57.89 C174.277,58.385 174.146,58.869 173.873,59.34 L173.493,59.398 C173.24,59.436 172.887,59.382 172.435,59.236 C172.219,59.096 172.087,58.868 172.039,58.552 L171.981,58.173 C172.598,56.979 173.11,54.682 173.521,51.276 C172.257,51.468 171.479,51.457 171.188,51.242 C170.929,50.958 170.684,50.662 170.454,50.352 C170.223,50.042 170.077,49.686 170.017,49.286 C169.856,48.232 170.134,46.865 170.849,45.182 C171.596,43.429 172.466,42.273 173.459,41.712 C174.041,41.711 174.784,41.846 175.688,42.118 C176.779,42.491 177.502,42.705 177.855,42.759 L178.132,43.946 C177.397,45.783 176.279,48.497 174.776,52.089 Z" id="Fill-20" fill="#FFFFFE"></path>
        <path d="M11.284,4.902 C6.591,4.902 5.24,7.853 5.24,13.896 C5.24,20.652 6.627,23.496 11.284,23.496 C15.977,23.496 17.435,20.616 17.435,13.896 C17.435,7.853 16.013,4.902 11.284,4.902 Z M11.284,27.549 C2.396,27.549 0.405,21.469 0.405,13.896 C0.405,7.07 2.432,0.813 11.284,0.813 C20.137,0.813 22.27,7.07 22.27,13.896 C22.27,21.469 20.137,27.549 11.284,27.549 Z" id="Fill-21" fill="#FFFFFE"></path>
        <path d="M36.39,27.585 C31.092,27.585 28.532,25.131 26.897,22.536 L30.843,20.474 C31.945,22.109 33.652,23.496 36.354,23.496 C40.371,23.496 41.58,21.79 41.58,19.479 C41.58,17.808 40.798,16.599 38.522,16.243 L33.296,15.39 C29.599,14.785 27.217,12.83 27.217,8.137 C27.217,4.439 29.776,0.813 36.532,0.813 C41.829,0.813 44.14,2.804 45.775,5.399 L41.829,7.461 C40.727,5.826 39.233,4.902 36.532,4.902 C33.119,4.902 31.945,6.217 31.945,8.137 C31.945,9.95 32.621,10.555 34.363,10.839 L39.447,11.657 C43.287,12.261 46.415,14.288 46.415,19.479 C46.415,24.171 43.429,27.585 36.39,27.585" id="Fill-22" fill="#FFFFFE"></path>
        <polyline id="Fill-23" fill="#FFFFFE" points="52.038 27.016 52.038 1.382 56.802 1.382 56.802 22.643 67.112 22.643 67.112 27.016 52.038 27.016"></polyline>
        <path d="M82.048,4.902 C77.355,4.902 76.004,7.853 76.004,13.896 C76.004,20.652 77.391,23.496 82.048,23.496 C86.741,23.496 88.199,20.616 88.199,13.896 C88.199,7.853 86.776,4.902 82.048,4.902 Z M82.048,27.549 C73.16,27.549 71.169,21.469 71.169,13.896 C71.169,7.07 73.195,0.813 82.048,0.813 C90.901,0.813 93.034,7.07 93.034,13.896 C93.034,21.469 90.901,27.549 82.048,27.549 Z" id="Fill-24" fill="#FFFFFE"></path>
        <path d="M0.418,231.937 L0.418,209.031 L15.032,209.031 L15.032,211.255 L2.896,211.255 L2.896,218.721 L13.729,218.721 L13.094,220.977 L2.706,220.977 C2.706,220.977 2.896,221.675 2.896,222.247 L2.896,229.713 L15.063,229.713 L15.063,231.937 L0.418,231.937" id="Fill-25" fill="#FFFFFE"></path>
        <path d="M30.152,232.445 C24.751,232.445 21.034,229.649 21.034,222.533 L21.034,209.031 L23.512,209.031 L23.512,222.533 C23.512,228.029 25.799,230.221 30.12,230.221 C34.44,230.221 36.791,228.029 36.791,222.533 L36.791,209.031 L39.269,209.031 L39.269,222.533 C39.269,229.649 35.552,232.445 30.152,232.445" id="Fill-26" fill="#FFFFFE"></path>
        <path d="M53.563,211.255 L48.83,211.255 L48.83,220.055 L53.531,220.055 C57.026,220.055 59.123,219.038 59.123,215.703 C59.123,212.367 57.026,211.255 53.563,211.255 Z M59.218,231.937 L53.786,223.581 C53.626,223.327 53.436,222.597 53.436,222.311 L48.83,222.311 L48.83,231.937 L46.352,231.937 L46.352,209.031 L53.531,209.031 C59.345,209.031 61.664,211.764 61.664,215.703 C61.664,219.038 59.949,221.39 55.882,222.151 L62.268,231.937 L59.218,231.937 Z" id="Fill-27" fill="#FFFFFE"></path>
        <path d="M76.848,210.778 C71.352,210.778 69.986,214.241 69.986,220.214 C69.986,226.821 71.383,230.189 76.848,230.189 C82.312,230.189 83.805,226.821 83.805,220.214 C83.805,214.21 82.344,210.778 76.848,210.778 Z M76.848,232.445 C69.255,232.445 67.444,227.426 67.444,220.214 C67.444,213.733 69.255,208.522 76.848,208.522 C84.44,208.522 86.347,213.733 86.347,220.214 C86.347,227.426 84.44,232.445 76.848,232.445 Z" id="Fill-28" fill="#FFFFFE"></path>
        <path d="M100.387,211.255 L95.43,211.255 L95.43,221.104 L100.387,221.104 C103.913,221.104 106.01,219.77 106.01,216.18 C106.01,212.812 103.882,211.255 100.387,211.255 Z M100.387,223.327 L95.303,223.327 C95.367,223.613 95.43,224.058 95.43,224.471 L95.43,231.937 L92.953,231.937 L92.953,209.031 L100.387,209.031 C106.201,209.031 108.552,212.24 108.552,216.18 C108.552,220.087 106.265,223.327 100.387,223.327 Z" id="Fill-29" fill="#FFFFFE"></path>
        <path d="M115.157,231.937 L115.157,209.031 L129.771,209.031 L129.771,211.255 L117.635,211.255 L117.635,218.721 L128.469,218.721 L127.833,220.977 L117.444,220.977 C117.444,220.977 117.635,221.675 117.635,222.247 L117.635,229.713 L129.803,229.713 L129.803,231.937 L115.157,231.937" id="Fill-30" fill="#FFFFFE"></path>
        <polygon id="Fill-31" fill="#FFFFFE" points="136.408 231.937 138.886 231.937 138.886 209.031 136.408 209.031"></polygon>
        <path d="M153.563,232.445 C149.719,232.445 146.669,231.016 145.493,227.774 L147.59,226.727 C148.734,229.173 150.576,230.221 153.563,230.221 C157.979,230.221 159.535,227.902 159.535,225.456 C159.535,223.168 158.582,221.897 156.041,221.453 L151.053,220.563 C147.178,219.864 146.033,217.291 146.033,214.591 C146.033,211.255 147.813,208.522 153.722,208.522 C158.614,208.522 160.457,210.905 161.188,212.304 L159.059,213.352 C158.138,211.731 156.549,210.747 153.722,210.747 C149.655,210.747 148.543,212.24 148.543,214.591 C148.543,216.814 149.306,217.8 151.625,218.213 L156.612,219.07 C160.425,219.737 162.045,222.151 162.045,225.456 C162.045,229.236 159.44,232.445 153.563,232.445" id="Fill-32" fill="#FFFFFE"></path>
        <path d="M175.926,218.816 L186.188,231.937 L183.011,231.937 L174.814,221.517 C174.56,221.198 174.465,220.69 174.401,220.277 L171.097,223.391 L171.097,231.937 L168.619,231.937 L168.619,209.031 L171.097,209.031 L171.097,220.31 L182.819,209.031 L186.219,209.031 L175.926,218.816" id="Fill-33" fill="#FFFFFE"></path>
        <path d="M11.343,257.597 L10.84,251.337 C10.803,250.964 10.859,250.573 10.914,250.237 L8.772,254.877 L6.22,254.877 L4.077,250.237 C4.133,250.573 4.189,250.964 4.151,251.337 L3.648,257.597 L0.444,257.597 L1.506,244.164 L4.356,244.164 L7.263,250.312 C7.412,250.61 7.431,250.834 7.486,251.3 C7.542,250.834 7.58,250.61 7.729,250.312 L10.635,244.164 L13.486,244.164 L14.547,257.597 L11.343,257.597" id="Fill-34" fill="#FFFFFE"></path>
        <polygon id="Fill-35" fill="#FFFFFE" points="17.866 257.597 21.219 257.597 21.219 244.164 17.866 244.164"></polygon>
        <polyline id="Fill-36" fill="#FFFFFE" points="24.592 257.597 24.592 244.164 27.946 244.164 27.946 254.69 33.274 254.69 33.274 257.597 24.592 257.597"></polyline>
        <path d="M38.883,257.876 C37.617,257.876 36.629,257.652 35.511,256.833 L37.188,254.522 C37.747,254.933 38.213,255.101 38.883,255.101 C39.759,255.101 40.039,254.635 40.039,253.442 L40.039,244.164 L43.373,244.164 L43.373,253.442 C43.373,256.479 41.752,257.876 38.883,257.876" id="Fill-37" fill="#FFFFFE"></path>
        <path d="M55.541,249.063 L51.218,254.728 C51.628,255.007 52.15,255.138 52.858,255.138 C54.926,255.138 55.653,254.038 55.653,250.722 C55.653,250.089 55.615,249.548 55.541,249.063 Z M52.858,246.623 C50.771,246.623 50.101,247.76 50.101,250.722 C50.101,251.579 50.157,252.269 50.268,252.846 L54.646,247.126 C54.218,246.791 53.641,246.623 52.858,246.623 Z M57.87,246.046 C58.783,247.331 59.025,249.026 59.025,250.722 C59.025,254.522 57.907,257.876 52.858,257.876 C51.405,257.876 50.268,257.597 49.393,257.094 L48.666,258.063 L46.281,258.063 L47.977,255.846 C47.008,254.522 46.71,252.659 46.71,250.722 C46.71,247.294 47.828,243.865 52.858,243.865 C54.386,243.865 55.578,244.183 56.472,244.741 L57.273,243.698 L59.658,243.698 L57.87,246.046 Z" id="Fill-38" fill="#FFFFFE"></path>
        <polyline id="Fill-39" fill="#FFFFFE" points="70.597 257.597 70.597 252.008 65.51 252.008 65.51 257.597 62.157 257.597 62.157 244.164 65.51 244.164 65.51 249.119 70.597 249.119 70.597 244.164 73.95 244.164 73.95 257.597 70.597 257.597"></polyline>
        <path d="M83.211,246.66 C81.162,246.66 80.51,247.76 80.51,250.722 C80.51,254.038 81.18,255.101 83.211,255.101 C85.242,255.101 85.95,254.02 85.95,250.722 C85.95,247.778 85.26,246.66 83.211,246.66 Z M83.211,257.876 C78.162,257.876 77.063,254.504 77.063,250.722 C77.063,247.294 78.181,243.865 83.211,243.865 C88.241,243.865 89.378,247.294 89.378,250.722 C89.378,254.522 88.26,257.876 83.211,257.876 Z" id="Fill-40" fill="#FFFFFE"></path>
        <path d="M99.366,257.597 L96.236,257.597 L91.186,244.164 L94.857,244.164 L97.615,252.156 C97.745,252.548 97.727,252.809 97.782,253.312 C97.839,252.809 97.857,252.548 97.987,252.156 L100.745,244.164 L104.415,244.164 L99.366,257.597" id="Fill-41" fill="#FFFFFE"></path>
        <path d="M107.063,257.597 L107.063,244.164 L116.825,244.164 L116.825,246.921 L110.416,246.921 L110.416,249.231 L116.267,249.231 L115.409,252.008 L110.323,252.008 C110.379,252.119 110.416,252.212 110.416,252.361 L110.416,254.839 L116.825,254.839 L116.825,257.597 L107.063,257.597" id="Fill-42" fill="#FFFFFE"></path>
        <path d="M124.56,246.884 L123.349,246.884 L123.349,254.896 L124.56,254.896 C127.019,254.896 128.1,253.535 128.1,250.722 C128.1,248.095 127.075,246.884 124.56,246.884 Z M124.56,257.597 L119.995,257.597 L119.995,244.164 L124.56,244.164 C129.571,244.164 131.527,247.033 131.527,250.722 C131.527,254.373 129.702,257.597 124.56,257.597 Z" id="Fill-43" fill="#FFFFFE"></path>
        <path d="M139.707,257.876 C136.913,257.876 135.161,256.702 134.137,254.672 L136.782,253.386 C137.435,254.522 138.217,255.138 139.707,255.138 C141.44,255.138 141.925,254.522 141.925,253.591 C141.925,252.846 141.646,252.454 140.677,252.287 C137.826,251.821 134.491,251.821 134.491,247.871 C134.491,245.263 136.745,243.865 139.764,243.865 C142.354,243.865 143.937,244.723 145.036,246.53 L142.372,247.834 C141.813,246.958 141.086,246.549 139.764,246.549 C138.348,246.549 137.788,247.033 137.788,247.741 C137.788,248.431 138.068,248.71 138.72,248.821 C141.72,249.306 145.241,249.324 145.241,253.48 C145.241,256.312 143.191,257.876 139.707,257.876" id="Fill-44" fill="#FFFFFE"></path>
        <polyline id="Fill-45" fill="#FFFFFE" points="154.67 246.902 154.67 257.597 151.297 257.597 151.297 246.902 147.44 246.902 147.44 244.164 158.508 244.164 158.508 246.902 154.67 246.902"></polyline>
        <path d="M165.421,249.306 C165.365,249.157 165.31,248.934 165.271,248.729 C165.234,248.934 165.16,249.157 165.104,249.306 L164.042,252.193 L166.464,252.193 L165.421,249.306 Z M168.514,257.597 L167.489,254.896 L163.036,254.896 L162.012,257.597 L158.658,257.597 L163.856,244.164 L166.855,244.164 L172.035,257.597 L168.514,257.597 Z" id="Fill-46" fill="#FFFFFE"></path>
        <path d="M179.191,246.884 L177.98,246.884 L177.98,254.896 L179.191,254.896 C181.65,254.896 182.731,253.535 182.731,250.722 C182.731,248.095 181.707,246.884 179.191,246.884 Z M179.191,257.597 L174.627,257.597 L174.627,244.164 L179.191,244.164 C184.203,244.164 186.159,247.033 186.159,250.722 C186.159,254.373 184.334,257.597 179.191,257.597 Z" id="Fill-47" fill="#FFFFFE"></path>
        <path d="M57.779,282.324 L54.131,282.324 L53.851,284.304 L57.149,284.304 L56.739,285.272 L53.641,285.272 C53.661,285.353 53.671,285.493 53.661,285.583 L53.371,287.632 L57.029,287.632 L56.889,288.581 L52.182,288.581 L53.221,281.375 L57.919,281.375 L57.779,282.324" id="Fill-48" fill="#FFFFFE"></path>
        <path d="M61.61,284.113 L60.001,284.113 L59.561,287.202 C59.551,287.262 59.551,287.321 59.551,287.382 C59.551,287.712 59.721,287.901 60.101,287.901 C60.42,287.901 60.8,287.752 61.07,287.542 L61.59,288.151 C61.04,288.611 60.431,288.741 59.771,288.741 C58.991,288.741 58.492,288.281 58.492,287.481 C58.492,287.382 58.492,287.271 58.512,287.162 L58.901,284.453 C58.911,284.363 58.951,284.254 59.051,284.113 L58.072,284.113 L58.212,283.214 L59.081,283.214 L59.351,281.395 L60.451,281.085 L60.141,283.214 L62.019,283.214 L61.61,284.113" id="Fill-49" fill="#FFFFFE"></path>
        <path d="M66.79,281.915 C66.78,282.005 66.78,282.005 66.701,282.005 L65.631,282.005 C65.551,282.005 65.551,282.005 65.561,281.915 L65.711,280.896 C65.721,280.795 65.721,280.795 65.801,280.795 L66.871,280.795 C66.95,280.795 66.95,280.795 66.94,280.896 L66.79,281.915 Z M65.731,288.581 L64.692,288.581 L65.461,283.214 L66.501,283.214 L65.731,288.581 Z" id="Fill-50" fill="#FFFFFE"></path>
        <path d="M72.069,285.163 L71.579,288.581 L70.52,288.581 L71.009,285.183 C71.029,285.023 71.039,284.883 71.039,284.753 C71.039,284.134 70.769,283.903 70.249,283.903 C69.76,283.903 69.35,284.094 69.1,284.254 L68.641,284.543 L68.061,288.581 L67.001,288.581 L67.781,283.214 L68.63,283.214 L68.721,283.754 C69.38,283.324 69.71,283.054 70.549,283.054 C71.379,283.054 72.109,283.534 72.109,284.684 C72.109,284.833 72.089,284.993 72.069,285.163" id="Fill-51" fill="#FFFFFE"></path>
        <path d="M74.89,281.915 C74.88,282.005 74.88,282.005 74.8,282.005 L73.731,282.005 C73.651,282.005 73.651,282.005 73.661,281.915 L73.81,280.896 C73.821,280.795 73.821,280.795 73.901,280.795 L74.97,280.795 C75.05,280.795 75.05,280.795 75.04,280.896 L74.89,281.915 Z M73.831,288.581 L72.791,288.581 L73.561,283.214 L74.6,283.214 L73.831,288.581 Z" id="Fill-52" fill="#FFFFFE"></path>
        <path d="M78.789,284.113 L77.18,284.113 L76.74,287.202 C76.73,287.262 76.73,287.321 76.73,287.382 C76.73,287.712 76.9,287.901 77.28,287.901 C77.6,287.901 77.979,287.752 78.249,287.542 L78.769,288.151 C78.219,288.611 77.61,288.741 76.95,288.741 C76.17,288.741 75.671,288.281 75.671,287.481 C75.671,287.382 75.671,287.271 75.691,287.162 L76.081,284.453 C76.09,284.363 76.13,284.254 76.23,284.113 L75.251,284.113 L75.391,283.214 L76.26,283.214 L76.53,281.395 L77.63,281.085 L77.32,283.214 L79.199,283.214 L78.789,284.113" id="Fill-53" fill="#FFFFFE"></path>
        <path d="M81.49,281.915 C81.479,282.005 81.479,282.005 81.4,282.005 L80.331,282.005 C80.25,282.005 80.25,282.005 80.26,281.915 L80.41,280.896 C80.42,280.795 80.42,280.795 80.501,280.795 L81.57,280.795 C81.649,280.795 81.649,280.795 81.64,280.896 L81.49,281.915 Z M80.43,288.581 L79.391,288.581 L80.161,283.214 L81.2,283.214 L80.43,288.581 Z" id="Fill-54" fill="#FFFFFE"></path>
        <path d="M83.999,286.022 C83.24,286.022 82.65,286.303 82.65,287.142 C82.65,287.701 82.99,287.861 83.38,287.861 C84.02,287.861 84.449,287.701 85.059,287.342 L85.239,286.162 C84.759,286.072 84.429,286.022 83.999,286.022 Z M86.498,284.684 L85.928,288.581 L85.069,288.581 L85.009,288.201 C84.419,288.581 83.879,288.741 83.25,288.741 C82.19,288.741 81.591,288.092 81.591,287.222 C81.591,287.122 81.601,287.032 81.611,286.932 C81.811,285.513 82.9,285.193 83.919,285.193 C84.399,285.193 84.919,285.263 85.339,285.363 L85.438,284.684 C85.449,284.613 85.459,284.573 85.459,284.514 C85.459,284.094 85.179,283.924 84.559,283.924 C83.959,283.924 83.45,284.073 83.03,284.583 L82.3,284.104 C82.89,283.284 83.79,283.054 84.719,283.054 C86.208,283.054 86.518,283.754 86.518,284.394 C86.518,284.493 86.508,284.593 86.498,284.684 Z" id="Fill-55" fill="#FFFFFE"></path>
        <path d="M90.898,284.113 L89.289,284.113 L88.85,287.202 C88.839,287.262 88.839,287.321 88.839,287.382 C88.839,287.712 89.009,287.901 89.389,287.901 C89.709,287.901 90.089,287.752 90.359,287.542 L90.878,288.151 C90.329,288.611 89.719,288.741 89.06,288.741 C88.28,288.741 87.78,288.281 87.78,287.481 C87.78,287.382 87.78,287.271 87.8,287.162 L88.19,284.453 C88.2,284.363 88.24,284.254 88.34,284.113 L87.36,284.113 L87.501,283.214 L88.37,283.214 L88.64,281.395 L89.739,281.085 L89.429,283.214 L91.308,283.214 L90.898,284.113" id="Fill-56" fill="#FFFFFE"></path>
        <path d="M93.599,281.915 C93.589,282.005 93.589,282.005 93.509,282.005 L92.44,282.005 C92.36,282.005 92.36,282.005 92.37,281.915 L92.519,280.896 C92.53,280.795 92.53,280.795 92.61,280.795 L93.679,280.795 C93.759,280.795 93.759,280.795 93.749,280.896 L93.599,281.915 Z M92.54,288.581 L91.5,288.581 L92.27,283.214 L93.309,283.214 L92.54,288.581 Z" id="Fill-57" fill="#FFFFFE"></path>
        <path d="M96.448,288.581 L95.369,288.581 L94.1,283.214 L95.199,283.214 L96.009,286.662 C96.059,286.872 96.108,287.021 96.108,287.382 C96.188,287.032 96.269,286.872 96.378,286.672 L98.197,283.214 L99.276,283.214 L96.448,288.581" id="Fill-58" fill="#FFFFFE"></path>
        <path d="M106.147,281.825 C105.678,281.685 105.428,281.655 105.078,281.655 C104.528,281.655 104.158,281.904 104.028,282.704 L103.948,283.214 L105.657,283.214 L105.317,284.073 L103.818,284.073 L102.949,290.11 L101.88,290.11 L102.72,284.463 C102.739,284.344 102.779,284.203 102.85,284.073 L101.989,284.073 L102.119,283.214 L102.899,283.214 L102.959,282.714 C103.139,281.195 104.179,280.795 105.228,280.795 C105.448,280.795 105.668,280.815 105.867,280.855 C106.067,280.886 106.258,280.936 106.457,280.976 L106.147,281.825" id="Fill-59" fill="#FFFFFE"></path>
        <path d="M109.298,284.023 C109.128,284.004 108.928,283.974 108.718,283.974 C108.389,283.974 108.049,284.033 107.789,284.214 L107.379,284.503 L106.789,288.581 L105.729,288.581 L106.51,283.214 L107.379,283.214 L107.429,283.714 C107.969,283.304 108.208,283.054 108.938,283.054 C109.107,283.054 109.268,283.074 109.438,283.094 L109.298,284.023" id="Fill-60" fill="#FFFFFE"></path>
        <path d="M111.599,286.022 C110.839,286.022 110.249,286.303 110.249,287.142 C110.249,287.701 110.589,287.861 110.979,287.861 C111.618,287.861 112.048,287.701 112.658,287.342 L112.838,286.162 C112.357,286.072 112.028,286.022 111.599,286.022 Z M114.097,284.684 L113.527,288.581 L112.668,288.581 L112.607,288.201 C112.019,288.581 111.479,288.741 110.849,288.741 C109.789,288.741 109.189,288.092 109.189,287.222 C109.189,287.122 109.199,287.032 109.21,286.932 C109.409,285.513 110.499,285.193 111.519,285.193 C111.998,285.193 112.518,285.263 112.938,285.363 L113.037,284.684 C113.048,284.613 113.058,284.573 113.058,284.514 C113.058,284.094 112.777,283.924 112.158,283.924 C111.559,283.924 111.049,284.073 110.629,284.583 L109.899,284.104 C110.489,283.284 111.389,283.054 112.318,283.054 C113.807,283.054 114.117,283.754 114.117,284.394 C114.117,284.493 114.106,284.593 114.097,284.684 Z" id="Fill-61" fill="#FFFFFE"></path>
        <path d="M26.739,293.324 L23.091,293.324 L22.811,295.304 L26.109,295.304 L25.699,296.272 L22.601,296.272 C22.621,296.353 22.631,296.493 22.621,296.583 L22.331,298.632 L25.989,298.632 L25.849,299.581 L21.142,299.581 L22.181,292.375 L26.879,292.375 L26.739,293.324" id="Fill-62" fill="#FFFFFE"></path>
        <path d="M31.389,299.581 L30.55,299.581 L30.46,299.041 C29.86,299.431 29.38,299.741 28.631,299.741 C27.801,299.741 27.072,299.261 27.072,298.112 C27.072,297.962 27.081,297.813 27.102,297.643 L27.602,294.214 L28.651,294.214 L28.171,297.612 C28.151,297.772 28.131,297.922 28.131,298.052 C28.131,298.682 28.411,298.901 28.931,298.901 C29.581,298.901 30.02,298.571 30.54,298.252 L31.12,294.214 L32.179,294.214 L31.389,299.581" id="Fill-63" fill="#FFFFFE"></path>
        <path d="M36.249,295.023 C36.08,295.004 35.88,294.974 35.67,294.974 C35.34,294.974 35,295.033 34.741,295.214 L34.331,295.503 L33.741,299.581 L32.682,299.581 L33.461,294.214 L34.331,294.214 L34.381,294.714 C34.92,294.304 35.16,294.054 35.89,294.054 C36.06,294.054 36.22,294.074 36.39,294.094 L36.249,295.023" id="Fill-64" fill="#FFFFFE"></path>
        <path d="M39.1,294.934 C38.111,294.934 37.641,295.403 37.431,296.893 C37.391,297.183 37.371,297.433 37.371,297.652 C37.371,298.562 37.751,298.861 38.55,298.861 C39.52,298.861 39.999,298.401 40.219,296.893 C40.259,296.603 40.289,296.363 40.289,296.143 C40.289,295.233 39.899,294.934 39.1,294.934 Z M41.289,296.893 C41.029,298.722 40.229,299.741 38.42,299.741 C36.891,299.741 36.322,298.901 36.322,297.643 C36.322,297.412 36.331,297.152 36.372,296.893 C36.651,294.983 37.431,294.054 39.24,294.054 C40.769,294.054 41.349,294.894 41.349,296.153 C41.349,296.383 41.329,296.633 41.289,296.893 Z" id="Fill-65" fill="#FFFFFE"></path>
        <path d="M45.07,294.924 C44.55,294.924 44.26,295.054 43.611,295.493 L43.171,298.552 C43.571,298.852 43.92,298.951 44.3,298.951 C45.29,298.951 45.87,298.332 46.089,296.822 C46.12,296.593 46.139,296.373 46.139,296.183 C46.139,295.333 45.85,294.924 45.07,294.924 Z M47.159,296.813 C46.879,298.731 45.979,299.741 44.181,299.741 C43.73,299.741 43.341,299.611 43.051,299.411 L42.681,302 L41.622,302 L42.751,294.214 L43.471,294.214 L43.601,294.733 C44.28,294.194 44.76,294.054 45.2,294.054 C46.639,294.054 47.209,294.914 47.209,296.193 C47.209,296.393 47.189,296.603 47.159,296.813 Z" id="Fill-66" fill="#FFFFFE"></path>
        <path d="M50.121,297.022 C49.361,297.022 48.771,297.303 48.771,298.142 C48.771,298.701 49.111,298.861 49.501,298.861 C50.141,298.861 50.57,298.701 51.18,298.342 L51.36,297.162 C50.88,297.072 50.55,297.022 50.121,297.022 Z M52.619,295.684 L52.049,299.581 L51.19,299.581 L51.13,299.201 C50.54,299.581 50,299.741 49.371,299.741 C48.311,299.741 47.712,299.092 47.712,298.222 C47.712,298.122 47.722,298.032 47.732,297.932 C47.932,296.513 49.021,296.193 50.04,296.193 C50.52,296.193 51.04,296.263 51.46,296.363 L51.56,295.684 C51.57,295.613 51.58,295.573 51.58,295.514 C51.58,295.094 51.3,294.924 50.68,294.924 C50.081,294.924 49.571,295.073 49.151,295.583 L48.421,295.104 C49.011,294.284 49.911,294.054 50.84,294.054 C52.329,294.054 52.639,294.754 52.639,295.394 C52.639,295.493 52.629,295.593 52.619,295.684 Z" id="Fill-67" fill="#FFFFFE"></path>
        <path d="M56.11,296.243 L58.219,299.581 L56.89,299.581 L55.351,297.143 C55.331,297.112 55.31,297.063 55.3,297.013 C55.29,296.963 55.28,296.912 55.26,296.833 L54.731,297.183 L54.391,299.581 L53.331,299.581 L54.461,291.795 L55.51,291.795 L54.911,295.973 L57.379,294.214 L58.998,294.214 L56.11,296.243" id="Fill-68" fill="#FFFFFE"></path>
        <path d="M61.57,294.934 C60.581,294.934 60.11,295.403 59.901,296.893 C59.861,297.183 59.841,297.433 59.841,297.652 C59.841,298.562 60.221,298.861 61.02,298.861 C61.99,298.861 62.469,298.401 62.689,296.893 C62.729,296.603 62.759,296.363 62.759,296.143 C62.759,295.233 62.369,294.934 61.57,294.934 Z M63.759,296.893 C63.499,298.722 62.699,299.741 60.89,299.741 C59.361,299.741 58.791,298.901 58.791,297.643 C58.791,297.412 58.801,297.152 58.841,296.893 C59.121,294.983 59.901,294.054 61.71,294.054 C63.239,294.054 63.818,294.894 63.818,296.153 C63.818,296.383 63.798,296.633 63.759,296.893 Z" id="Fill-69" fill="#FFFFFE"></path>
        <path d="M72.427,296.213 L71.937,299.581 L70.888,299.581 L71.377,296.183 C71.408,296.003 71.417,295.833 71.417,295.684 C71.417,295.203 71.268,294.903 70.858,294.903 C70.238,294.903 69.778,295.243 69.279,295.554 C69.279,295.703 69.248,295.883 69.229,296.023 L68.729,299.581 L67.66,299.581 L68.169,296.083 C68.189,295.913 68.199,295.763 68.199,295.633 C68.199,295.163 68.04,294.903 67.62,294.903 C67.03,294.903 66.56,295.233 66.07,295.523 L65.491,299.581 L64.441,299.581 L65.211,294.214 L66.061,294.214 L66.15,294.744 C66.61,294.454 67.22,294.054 67.79,294.054 C68.489,294.054 68.939,294.204 69.248,294.834 C69.858,294.444 70.288,294.054 71.058,294.054 C72.047,294.054 72.467,294.624 72.467,295.604 C72.467,295.793 72.457,295.993 72.427,296.213" id="Fill-70" fill="#FFFFFE"></path>
        <path d="M81.157,296.213 L80.668,299.581 L79.618,299.581 L80.107,296.183 C80.138,296.003 80.147,295.833 80.147,295.684 C80.147,295.203 79.998,294.903 79.588,294.903 C78.968,294.903 78.508,295.243 78.009,295.554 C78.009,295.703 77.978,295.883 77.959,296.023 L77.459,299.581 L76.39,299.581 L76.899,296.083 C76.919,295.913 76.929,295.763 76.929,295.633 C76.929,295.163 76.769,294.903 76.35,294.903 C75.76,294.903 75.29,295.233 74.8,295.523 L74.221,299.581 L73.171,299.581 L73.941,294.214 L74.79,294.214 L74.88,294.744 C75.34,294.454 75.95,294.054 76.52,294.054 C77.219,294.054 77.669,294.204 77.978,294.834 C78.588,294.444 79.018,294.054 79.788,294.054 C80.777,294.054 81.197,294.624 81.197,295.604 C81.197,295.793 81.187,295.993 81.157,296.213" id="Fill-71" fill="#FFFFFE"></path>
        <path d="M83.99,292.915 C83.98,293.005 83.98,293.005 83.9,293.005 L82.831,293.005 C82.751,293.005 82.751,293.005 82.761,292.915 L82.911,291.896 C82.921,291.795 82.921,291.795 83.001,291.795 L84.07,291.795 C84.15,291.795 84.15,291.795 84.14,291.896 L83.99,292.915 Z M82.931,299.581 L81.892,299.581 L82.661,294.214 L83.7,294.214 L82.931,299.581 Z" id="Fill-72" fill="#FFFFFE"></path>
        <path d="M87.939,295.463 C87.759,295.123 87.439,294.903 86.81,294.903 C86.24,294.903 85.621,295.084 85.621,295.763 C85.621,295.993 85.73,296.163 86.07,296.223 L87.299,296.433 C88.009,296.553 88.549,297.042 88.549,297.752 C88.549,299.201 87.279,299.741 86.03,299.741 C85.101,299.741 84.321,299.381 84.061,298.562 L85.001,298.242 C85.17,298.691 85.57,298.901 86.15,298.901 C86.78,298.901 87.479,298.672 87.479,297.922 C87.479,297.622 87.31,297.442 86.97,297.382 L85.68,297.152 C85.071,297.042 84.581,296.572 84.581,295.863 C84.581,294.504 85.751,294.054 86.93,294.054 C87.909,294.054 88.539,294.404 88.809,295.054 L87.939,295.463" id="Fill-73" fill="#FFFFFE"></path>
        <path d="M91.46,292.915 C91.45,293.005 91.45,293.005 91.37,293.005 L90.31,293.005 C90.23,293.005 90.23,293.005 90.24,292.915 L90.39,291.896 C90.4,291.795 90.4,291.795 90.48,291.795 L91.54,291.795 C91.62,291.795 91.62,291.795 91.61,291.896 L91.46,292.915 Z M90.271,300.57 C90.15,301.39 89.621,302 88.502,302 L87.932,302 L88.052,301.15 L88.621,301.15 C89.021,301.15 89.181,300.95 89.231,300.57 L90.141,294.214 L91.18,294.214 L90.271,300.57 Z" id="Fill-74" fill="#FFFFFE"></path>
        <path d="M94.579,294.934 C93.59,294.934 93.12,295.403 92.91,296.893 C92.87,297.183 92.85,297.433 92.85,297.652 C92.85,298.562 93.23,298.861 94.029,298.861 C94.999,298.861 95.478,298.401 95.698,296.893 C95.738,296.603 95.769,296.363 95.769,296.143 C95.769,295.233 95.378,294.934 94.579,294.934 Z M96.768,296.893 C96.508,298.722 95.708,299.741 93.899,299.741 C92.37,299.741 91.801,298.901 91.801,297.643 C91.801,297.412 91.81,297.152 91.851,296.893 C92.13,294.983 92.91,294.054 94.719,294.054 C96.248,294.054 96.827,294.894 96.827,296.153 C96.827,296.383 96.808,296.633 96.768,296.893 Z" id="Fill-75" fill="#FFFFFE"></path>
        <path d="M102.518,296.163 L102.028,299.581 L100.969,299.581 L101.458,296.183 C101.479,296.023 101.488,295.883 101.488,295.753 C101.488,295.134 101.219,294.903 100.698,294.903 C100.209,294.903 99.799,295.094 99.549,295.254 L99.09,295.543 L98.51,299.581 L97.45,299.581 L98.23,294.214 L99.079,294.214 L99.17,294.754 C99.829,294.324 100.159,294.054 100.998,294.054 C101.828,294.054 102.558,294.534 102.558,295.684 C102.558,295.833 102.538,295.993 102.518,296.163" id="Fill-76" fill="#FFFFFE"></path>
        <path d="M106.219,294.934 C105.27,294.934 104.8,295.273 104.569,296.363 L107.278,296.363 C107.288,296.232 107.308,296.143 107.308,296.053 C107.308,295.403 107.008,294.934 106.219,294.934 Z M108.327,296.893 L108.277,297.223 L104.439,297.223 C104.42,297.422 104.399,297.572 104.399,297.712 C104.399,298.491 104.749,298.861 105.669,298.861 C106.368,298.861 106.849,298.642 107.218,298.072 L108.048,298.412 C107.478,299.321 106.738,299.741 105.539,299.741 C104.05,299.741 103.37,299.031 103.37,297.662 C103.37,297.433 103.38,297.162 103.42,296.893 C103.67,295.134 104.46,294.054 106.389,294.054 C108.027,294.054 108.388,295.214 108.388,296.203 C108.388,296.453 108.357,296.692 108.327,296.893 Z" id="Fill-77" fill="#FFFFFE"></path>
        <path d="M114.077,296.163 L113.588,299.581 L112.528,299.581 L113.018,296.183 C113.038,296.023 113.048,295.883 113.048,295.753 C113.048,295.134 112.778,294.903 112.258,294.903 C111.769,294.903 111.358,295.094 111.108,295.254 L110.649,295.543 L110.069,299.581 L109.01,299.581 L109.79,294.214 L110.639,294.214 L110.729,294.754 C111.389,294.324 111.719,294.054 112.558,294.054 C113.388,294.054 114.117,294.534 114.117,295.684 C114.117,295.833 114.098,295.993 114.077,296.163" id="Fill-78" fill="#FFFFFE"></path>
        <path d="M166.348,267.28 C166.348,267.28 172.042,276.493 173.083,278.182 C174.124,279.871 175.313,281.207 179.527,282.114 C183.74,283.022 185.574,283.451 185.574,283.451 L185.574,283.778 C185.574,283.778 182.896,283.199 179.453,282.417 C176.008,281.636 174.601,281.373 173.03,279.153 C171.723,277.306 166.348,269.457 166.348,269.457 L166.348,267.28" id="Fill-79" fill="#FFFFFE"></path>
        <path d="M166.348,277.801 C166.348,277.801 171.531,283.318 173.03,284.902 C174.619,286.582 176.656,287.204 179.479,287.716 C182.175,288.205 185.573,288.77 185.573,288.77 L185.573,289.079 C185.573,289.079 182.382,288.549 179.479,288.044 C176.634,287.55 174.643,287.273 173.013,285.747 C171.553,284.383 166.348,279.423 166.348,279.423 L166.348,277.801" id="Fill-80" fill="#FFFFFE"></path>
        <path d="M166.348,280.286 C166.348,280.286 171.277,284.936 173.03,286.524 C174.643,287.986 175.948,288.44 179.497,289.079 C183.044,289.719 185.573,290.116 185.573,290.116 L185.573,290.443 C185.573,290.443 182.365,289.909 179.479,289.442 C176.596,288.976 174.755,288.791 173.03,287.37 C171.038,285.73 166.348,281.806 166.348,281.806 L166.348,280.286" id="Fill-81" fill="#FFFFFE"></path>
        <path d="M166.348,282.938 C166.348,282.938 171.979,287.475 173.031,288.27 C174.083,289.063 175.476,289.99 179.515,290.583 C183.521,291.17 185.574,291.463 185.574,291.463 L185.574,291.809 C185.574,291.809 181.941,291.271 179.515,290.963 C177.089,290.651 175.228,290.52 173.049,289.046 C170.927,287.611 166.348,284.337 166.348,284.337 L166.348,282.938" id="Fill-82" fill="#FFFFFE"></path>
        <path d="M166.348,285.484 C166.348,285.484 171.995,289.304 173.065,289.909 C174.135,290.513 175.392,291.497 179.515,292.032 C183.64,292.567 185.574,292.809 185.574,292.809 L185.574,293.137 C185.574,293.137 182.162,292.757 179.498,292.464 C176.833,292.17 175.018,291.773 173.031,290.669 C171.045,289.564 166.348,286.775 166.348,286.775 L166.348,285.484" id="Fill-83" fill="#FFFFFE"></path>
        <path d="M166.348,288.032 C166.348,288.032 171.341,290.791 173.03,291.652 C174.914,292.613 176.543,293.074 179.497,293.431 C182.396,293.78 185.573,294.121 185.573,294.121 L185.573,294.433 C185.573,294.433 182.635,294.112 179.497,293.811 C176.385,293.511 175.275,293.374 173.03,292.36 C171.021,291.454 166.348,289.242 166.348,289.242 L166.348,288.032" id="Fill-84" fill="#FFFFFE"></path>
        <path d="M166.348,290.614 C166.348,290.614 170.293,292.33 173.065,293.448 C175.793,294.546 177.874,294.64 179.531,294.828 C180.263,294.912 185.574,295.467 185.574,295.467 L185.574,295.778 C185.574,295.778 182.4,295.519 179.515,295.262 C176.63,295.002 175.385,294.893 173.049,294.105 C170.684,293.306 166.348,291.771 166.348,291.771 L166.348,290.614" id="Fill-85" fill="#FFFFFE"></path>
        <path d="M166.348,293.248 C166.348,293.248 170.33,294.501 173.047,295.228 C175.763,295.951 178.258,296.246 179.514,296.331 C180.769,296.419 185.574,296.813 185.574,296.813 L185.574,297.107 C185.574,297.107 182.842,296.919 179.497,296.677 C176.792,296.481 174.619,296.274 173.03,295.918 C171.268,295.521 166.348,294.334 166.348,294.334 L166.348,293.248" id="Fill-86" fill="#FFFFFE"></path>
        <path d="M166.348,295.837 C166.348,295.837 169.605,296.407 173.047,296.986 C175.626,297.422 179.123,297.695 179.497,297.713 C179.871,297.73 185.573,298.126 185.573,298.126 L185.573,298.437 C185.573,298.437 181.923,298.244 179.497,298.109 C176.97,297.967 174.457,297.813 173.03,297.661 C169.833,297.322 166.348,296.874 166.348,296.874 L166.348,295.837" id="Fill-87" fill="#FFFFFE"></path>
        <path d="M166.348,298.518 C166.348,298.518 171.485,298.714 173.047,298.748 C174.607,298.782 185.573,299.23 185.573,299.23 L185.573,299.534 L166.348,299.534 L166.348,298.518" id="Fill-88" fill="#FFFFFE"></path>
        <path d="M179.497,283.538 C174.846,282.52 173.794,280.792 173.013,279.723 C172.232,278.652 166.348,269.916 166.348,269.916 L166.348,271.888 C166.579,272.196 171.615,278.892 173.03,280.741 C174.622,282.823 177.12,283.296 179.497,283.813 C181.872,284.333 185.574,285.055 185.574,285.055 L185.574,284.778 C185.574,284.778 180.697,283.801 179.497,283.538" id="Fill-89" fill="#FFFFFE"></path>
        <path d="M179.497,284.919 C175.678,284.16 174.133,282.935 173.013,281.449 C171.893,279.965 166.348,272.541 166.348,272.541 L166.348,274.407 C166.579,274.687 171.652,280.798 173.013,282.382 C174.601,284.228 176.814,284.713 179.497,285.212 C182.178,285.714 185.573,286.368 185.573,286.368 L185.573,286.093 C185.573,286.093 181.698,285.356 179.497,284.919" id="Fill-90" fill="#FFFFFE"></path>
        <path d="M179.497,286.353 C175.525,285.569 174.71,284.925 173.03,283.055 C171.974,281.88 166.576,275.404 166.348,275.132 L166.348,276.857 C166.348,276.857 171.392,282.32 173.013,283.935 C175.142,286.053 177.138,286.213 179.497,286.646 C181.855,287.076 185.573,287.769 185.573,287.769 L185.573,287.474 C185.573,287.474 181.085,286.666 179.497,286.353" id="Fill-91" fill="#FFFFFE"></path>
        <path d="M155.261,291.159 L154.485,290.579 L153.711,291.159 L154.016,290.22 L153.23,289.628 L154.193,289.628 L154.485,288.713 L154.769,289.628 L155.736,289.628 L154.958,290.22 L155.261,291.159 Z M154.408,294.362 L153.633,293.784 L152.86,294.362 L153.165,293.424 L152.381,292.831 L153.342,292.831 L153.633,291.915 L153.919,292.831 L154.883,292.831 L154.104,293.424 L154.408,294.362 Z M152.139,296.638 L151.364,296.057 L150.59,296.638 L150.894,295.698 L150.109,295.106 L151.072,295.106 L151.364,294.189 L151.646,295.106 L152.614,295.106 L151.836,295.698 L152.139,296.638 Z M149.078,297.47 L148.306,296.892 L147.53,297.47 L147.835,296.53 L147.05,295.938 L148.014,295.938 L148.306,295.022 L148.588,295.938 L149.555,295.938 L148.776,296.53 L149.078,297.47 Z M147.979,283.375 L148.27,282.425 L148.555,283.375 L149.519,283.375 L148.742,283.991 L149.043,284.967 L148.27,284.367 L147.495,284.967 L147.801,283.991 L147.017,283.375 L147.979,283.375 Z M145.955,296.645 L145.184,296.066 L144.409,296.645 L144.714,295.706 L143.931,295.114 L144.892,295.114 L145.184,294.197 L145.468,295.114 L146.433,295.114 L145.654,295.706 L145.955,296.645 Z M142.945,293.791 L142.169,294.369 L142.474,293.431 L141.691,292.837 L142.652,292.837 L142.945,291.923 L143.228,292.837 L144.194,292.837 L143.416,293.431 L143.717,294.369 L142.945,293.791 Z M140.87,289.635 L141.833,289.635 L142.123,288.72 L142.408,289.635 L143.373,289.635 L142.597,290.228 L142.898,291.167 L142.123,290.589 L141.35,291.167 L141.655,290.228 L140.87,289.635 Z M142.652,286.529 L142.945,285.612 L143.228,286.529 L144.194,286.529 L143.416,287.122 L143.717,288.06 L142.945,287.48 L142.169,288.06 L142.474,287.122 L141.691,286.529 L142.652,286.529 Z M144.86,284.222 L145.15,283.306 L145.437,284.222 L146.399,284.222 L145.623,284.814 L145.926,285.754 L145.15,285.174 L144.376,285.754 L144.682,284.814 L143.898,284.222 L144.86,284.222 Z M151.072,284.214 L151.364,283.299 L151.646,284.214 L152.614,284.214 L151.836,284.806 L152.139,285.745 L151.364,285.166 L150.59,285.745 L150.894,284.806 L150.109,284.214 L151.072,284.214 Z M153.633,285.605 L153.919,286.521 L154.883,286.521 L154.104,287.112 L154.408,288.052 L153.633,287.472 L152.86,288.052 L153.165,287.112 L152.381,286.521 L153.342,286.521 L153.633,285.605 Z M134.545,299.534 L162.113,299.534 L162.113,280.849 L134.545,280.849 L134.545,299.534 Z" id="Fill-92" fill="#FFFFFE"></path>
        <path d="M134.244,280.548 L140.008,280.548 L140.336,280.513 C141.16,280.415 141.879,280.306 142.532,280.179 C144.158,279.864 145.553,279.396 146.795,278.745 C148.065,278.087 149.334,276.993 150.515,275.836 C151.306,275.06 152.067,274.056 152.884,273.004 L152.884,272.583 C151.94,273.78 151.044,274.778 150.146,275.619 C148.982,276.711 147.77,277.57 146.536,278.172 C145.331,278.768 143.983,279.185 142.413,279.448 C141.766,279.56 141.062,279.648 140.263,279.724 L121.243,281.322 L121.243,282.585 L134.244,281.172 L134.244,280.548" id="Fill-93" fill="#FFFFFE"></path>
        <path d="M134.244,285.716 C130.061,285.924 125.821,286.149 121.243,286.397 L121.243,287.658 C125.631,287.31 129.942,286.975 134.244,286.652 L134.244,285.716" id="Fill-94" fill="#FFFFFE"></path>
        <path d="M134.244,284.78 L134.244,283.845 C132.565,283.951 130.887,284.06 129.19,284.173 L121.243,284.722 L121.243,285.984 L129.271,285.23 C130.812,285.089 132.509,284.935 134.244,284.78" id="Fill-95" fill="#FFFFFE"></path>
        <path d="M152.884,278.329 L152.884,277.883 C151.861,278.902 151.273,279.476 150.154,280.23 C149.982,280.347 149.774,280.446 149.574,280.548 L150.544,280.548 C151.62,279.673 152.882,278.349 152.884,278.329" id="Fill-96" fill="#FFFFFE"></path>
        <path d="M139.195,278.753 C139.673,278.698 140.152,278.645 140.633,278.579 C141.463,278.467 142.192,278.337 142.856,278.182 C144.439,277.819 145.87,277.248 147.106,276.481 C148.336,275.727 149.422,274.669 150.59,273.377 C151.316,272.572 152.127,271.437 152.884,270.369 L152.884,269.905 C151.991,271.144 151.146,272.183 150.309,273.07 C149.168,274.279 147.991,275.24 146.81,275.93 C145.616,276.631 144.238,277.146 142.715,277.457 C142.063,277.592 141.353,277.701 140.543,277.79 C140.068,277.843 139.589,277.887 139.11,277.929 C138.851,277.952 138.592,277.975 138.334,277.999 C132.492,278.535 126.68,279.105 121.243,279.646 L121.243,280.912 C126.723,280.235 132.574,279.52 138.415,278.843 C138.675,278.811 138.936,278.781 139.195,278.753" id="Fill-97" fill="#FFFFFE"></path>
        <path d="M152.884,275.684 L152.884,275.232 C151.832,276.345 150.962,277.233 150.034,277.993 C148.832,278.981 147.903,279.684 146.433,280.282 C146.164,280.392 145.881,280.465 145.603,280.548 L147.161,280.548 C148.26,279.963 149.355,279.163 150.387,278.275 C151.216,277.562 152.014,276.664 152.884,275.684" id="Fill-98" fill="#FFFFFE"></path>
        <path d="M143.088,276.094 C144.63,275.662 146.05,275.002 147.307,274.132 C148.512,273.306 149.632,272.101 150.742,270.781 C151.448,269.941 152.19,268.848 152.884,267.79 L152.884,267.28 C152.062,268.525 151.253,269.596 150.421,270.542 C149.319,271.797 148.163,272.825 146.983,273.597 C145.768,274.398 144.398,274.998 142.913,275.377 C142.248,275.549 141.536,275.687 140.736,275.801 C140.208,275.877 139.664,275.935 139.139,275.99 C138.929,276.015 121.243,277.934 121.243,277.934 L121.243,279.201 C121.243,279.201 140.309,276.676 140.848,276.586 C141.672,276.448 142.405,276.288 143.088,276.094" id="Fill-99" fill="#FFFFFE"></path>
        <polyline id="Fill-100" fill="#FFFFFE" points="134.244 282.025 121.243 282.995 121.243 284.257 134.244 282.966 134.244 282.025"></polyline>
        <path d="M134.244,296.787 C129.94,296.72 125.628,296.641 121.243,296.558 L121.243,297.814 C125.442,297.785 129.847,297.752 134.244,297.708 L134.244,296.787" id="Fill-101" fill="#FFFFFE"></path>
        <path d="M134.244,287.563 C129.966,287.737 125.649,287.924 121.243,288.119 L121.243,289.379 C125.617,289.073 129.926,288.778 134.244,288.493 L134.244,287.563" id="Fill-102" fill="#FFFFFE"></path>
        <path d="M134.244,295.8 L134.244,294.883 C132.395,294.875 130.564,294.87 128.822,294.868 L121.243,294.875 L121.243,296.132 L128.84,295.928 C130.575,295.885 132.398,295.84 134.244,295.8" id="Fill-103" fill="#FFFFFE"></path>
        <polyline id="Fill-104" fill="#FFFFFE" points="134.244 298.616 121.243 298.278 121.243 299.534 134.244 299.534 134.244 298.616"></polyline>
        <path d="M134.244,293.058 C129.927,293.083 125.617,293.116 121.243,293.155 L121.243,294.411 C125.425,294.266 129.816,294.116 134.244,293.977 L134.244,293.058" id="Fill-105" fill="#FFFFFE"></path>
        <polyline id="Fill-106" fill="#FFFFFE" points="134.244 289.396 121.243 289.756 121.243 291.015 134.244 290.32 134.244 289.396"></polyline>
        <polyline id="Fill-107" fill="#FFFFFE" points="134.244 291.237 121.243 291.478 121.243 292.734 134.244 292.161 134.244 291.237"></polyline>
    </g>
</svg>