<?xml version="1.0" encoding="UTF-8"?>
<svg width="32px" height="32px" viewBox="0 0 32 32" version="1.1" xmlns="http://www.w3.org/2000/svg" xmlns:xlink="http://www.w3.org/1999/xlink">
    <!-- Generator: Sketch 61.2 (89653) - https://sketch.com -->
    <title>Atoms/Ikoner/Ui/Attachment</title>
    <desc>Created with Sketch.</desc>
    <g id="Atoms/Ikoner/Ui/Attachment" stroke="none" stroke-width="1" fill="none" fill-rule="evenodd">
        <g id="Attachment" fill-rule="nonzero">
            <g id="Group" opacity="0" fill="#EAEAEA">
                <rect id="Rectangle" x="0" y="0" width="32" height="32"></rect>
            </g>
            <path d="M14,0 C16.6887547,0 18.8818181,2.12230671 18.9953609,4.77709222 L18.9999787,4.99348058 L19.1275845,25.0094628 C19.015558,26.6183221 17.6777549,27.866212 16.065,27.866212 C14.5119768,27.866212 13.2139157,26.7090466 13.017702,25.1246674 L13,24.94 L13,10 L15,10 L14.9975845,24.8705372 C15.0366296,25.4312797 15.5028998,25.866212 16.065,25.866212 C16.5869502,25.866212 17.0262714,25.4911938 17.1157133,25.0494936 L17.1300213,24.9465194 L17,5 C17,3.34314575 15.6568542,2 14,2 C12.4023191,2 11.0963391,3.24891996 11.0050927,4.82372721 L11,5 L11,25 C11,27.7614237 13.2385763,30 16,30 C18.6887547,30 20.8818181,27.8776933 20.9953805,25.2168896 L21,25 L21,8 L23,8 L23,25 C23,28.8659932 19.8659932,32 16,32 C12.2145483,32 9.13090132,28.9952166 9.00405902,25.2406498 L9,25 L9,5 C9,2.23857625 11.2385763,0 14,0 Z" id="Path" fill="#2A2859"></path>
        </g>
    </g>
</svg>