<?xml version="1.0" encoding="UTF-8"?>
<svg width="32px" height="32px" viewBox="0 0 32 32" version="1.1" xmlns="http://www.w3.org/2000/svg" xmlns:xlink="http://www.w3.org/1999/xlink">
    <!-- Generator: Sketch 61.2 (89653) - https://sketch.com -->
    <title>Atoms/Ikoner/Ui/Thumb down</title>
    <desc>Created with Sketch.</desc>
    <g id="Atoms/Ikoner/Ui/Thumb-down" stroke="none" stroke-width="1" fill="none" fill-rule="evenodd">
        <g id="Thumb-down-" fill-rule="nonzero">
            <g id="Group" opacity="0" fill="#EAEAEA">
                <rect id="Rectangle" x="0" y="0" width="32" height="32"></rect>
            </g>
            <path d="M11.46,2 L11.459,3.86 L27.6063615,3.86 L31.8036472,18.009047 C32.1178795,18.9050185 31.989421,19.8968556 31.4573007,20.683211 C30.9251805,21.4695665 30.0522195,21.9576049 29.1036472,21.999047 L29.1036472,21.999047 L28.9927612,21.9977369 L25.811,21.783 L27.2584886,26.8548602 L27.2599415,26.9891843 C27.2685434,27.784448 26.9610099,28.550584 26.4211828,29.1021816 C25.8802638,29.6819549 25.1229253,30.0111422 24.33,30.0111422 C23.5370747,30.0111422 22.7797362,29.6819549 22.263176,29.1273895 L22.263176,29.1273895 L11.459,18.332 L11.46,20.71 L2,20.71 L2,2 L11.46,2 Z M26.113,5.859 L11.46,5.859 L11.46,15.506 L23.7011828,27.7378184 C23.8367278,27.8830996 24.0174652,27.9760537 24.2119274,28.0030028 L24.2119274,28.0030028 L24.33,28.0111422 C24.5684321,28.0111422 24.7961632,27.9121558 24.9750585,27.7208157 C25.1604146,27.5312823 25.2629258,27.2759036 25.2600585,27.0108157 L25.2600585,27.0108157 L25.253,27.118 L23.1082131,19.5966331 L29.048,19.997 L29.1335702,19.9888912 C29.3649515,19.9511976 29.5759394,19.8332425 29.7292359,19.6558777 L29.7292359,19.6558777 L29.8009039,19.562341 C29.9782773,19.3002225 30.0210969,18.9696102 29.9013168,18.6244757 L29.9013168,18.6244757 L26.113,5.859 Z M9.46,4 L4,4 L4,18.71 L9.46,18.71 L9.46,4 Z" id="Combined-Shape" fill="#2A2859"></path>
        </g>
    </g>
</svg>