<?xml version="1.0" encoding="UTF-8"?>
<svg width="32px" height="32px" viewBox="0 0 32 32" version="1.1" xmlns="http://www.w3.org/2000/svg" xmlns:xlink="http://www.w3.org/1999/xlink">
    <!-- Generator: Sketch 61.2 (89653) - https://sketch.com -->
    <title>Atoms/Ikoner/Ui/Search/Search-big</title>
    <desc>Created with Sketch.</desc>
    <g id="Atoms/Ikoner/Ui/Search/Search-big" stroke="none" stroke-width="1" fill="none" fill-rule="evenodd">
        <g id="Search">
            <polygon id="Path" points="0 0 32 0 32 32 0 32"></polygon>
            <path d="M30.707,28.293 L23.302,20.888 C24.987,18.822 26,16.186 26,13.311 C26,6.684 20.627,1.311 14,1.311 C7.373,1.311 2,6.684 2,13.311 C2,19.938 7.373,25.311 14,25.311 C17.033,25.311 19.795,24.177 21.908,22.321 L29.293,29.706 L30.707,28.293 Z M14,23.311 C8.486,23.311 4,18.825 4,13.311 C4,7.797 8.486,3.311 14,3.311 C19.514,3.311 24,7.797 24,13.311 C24,18.826 19.514,23.311 14,23.311 Z" id="Shape" fill="#2A2859"></path>
        </g>
    </g>
</svg>