<?xml version="1.0" encoding="UTF-8"?>
<svg width="32px" height="32px" viewBox="0 0 32 32" version="1.1" xmlns="http://www.w3.org/2000/svg" xmlns:xlink="http://www.w3.org/1999/xlink">
    <!-- Generator: Sketch 61.2 (89653) - https://sketch.com -->
    <title>Atoms/Ikoner/Tjenester/Bus</title>
    <desc>Created with Sketch.</desc>
    <g id="Atoms/Ikoner/Tjenester/Bus" stroke="none" stroke-width="1" fill="none" fill-rule="evenodd">
        <g id="Gate,-transport-og-parkering">
            <polygon id="Path" points="0 0 32 0 32 32 0 32"></polygon>
            <g id="Group" transform="translate(2.000000, 1.000000)" fill="#2A2859">
                <path d="M23.847,0 L24.835,6 L28,6 L28,13 L26,13 L26,8 L25,8 L25,30 L20.219,30 L19.22,26 L8.781,26 L7.781,30 L3,30 L3.013,8 L2,8 L2,13 L0,13 L0,6 L3.153,6 L4.153,0 L23.847,0 Z M6.719,26 L5,26 L5,28 L6.219,28 L6.719,26 Z M23,26 L21.28,26 L21.781,28 L23,28 L23,26 Z M23,19 L5,19 L5,24 L23,24 L23,19 Z M7.5,20 C8.32842712,20 9,20.6715729 9,21.5 C9,22.3284271 8.32842712,23 7.5,23 C6.67157288,23 6,22.3284271 6,21.5 C6,20.6715729 6.67157288,20 7.5,20 Z M20.5,20 C21.3284271,20 22,20.6715729 22,21.5 C22,22.3284271 21.3284271,23 20.5,23 C19.6715729,23 19,22.3284271 19,21.5 C19,20.6715729 19.6715729,20 20.5,20 Z M23,8 L5,8 L5,17 L23,17 L23,8 Z M22.153,2 L5.848,2 L5.181,6 L22.819,6 L22.153,2 Z" id="Combined-Shape"></path>
            </g>
        </g>
    </g>
</svg>