<?xml version="1.0" encoding="UTF-8"?>
<svg width="32px" height="32px" viewBox="0 0 32 32" version="1.1" xmlns="http://www.w3.org/2000/svg" xmlns:xlink="http://www.w3.org/1999/xlink">
    <!-- Generator: Sketch 61.2 (89653) - https://sketch.com -->
    <title>Atoms/Ikoner/Tjenester/Skole og utdanning </title>
    <desc>Created with Sketch.</desc>
    <g id="Atoms/Ikoner/Tjenester/Skole-og-utdanning-" stroke="none" stroke-width="1" fill="none" fill-rule="evenodd">
        <g id="Skole-og-utdanning-">
            <polygon id="Path" points="0 0 32 0 32 32 0 32"></polygon>
            <g id="Group" transform="translate(1.000000, 1.000000)" fill="#2A2859">
                <path d="M19.995,0.5 L19.995,4.5 L23.995,4.5 L25.995,14.5 L25.995,15.009 L29.022,17.163 L28.997,27.541 L25.996,27.532 L25.996,29.5 L3.996,29.5 L3.996,27.468 L0.978,27.459 L1.004,17.083 L3.995,14.959 L3.995,14.5 L5.995,4.5 L9.995,4.5 L9.995,0.5 L19.995,0.5 Z M23.67,13.073 L21.357,15 L8.081,15 L6.292,13.211 L5.995,14.698 L5.995,27.5 L23.995,27.5 L23.995,14.699 L23.67,13.073 Z M25.996,17.463 L25.996,25.532 L27.002,25.535 L27.021,18.192 L25.996,17.463 Z M3.996,17.412 L3.002,18.118 L2.983,25.465 L3.996,25.468 L3.996,17.412 Z M19.995,18.5 L19.995,20.5 L9.995,20.5 L9.995,18.5 L19.995,18.5 Z M22.356,6.5 L7.635,6.5 L6.764,10.855 L8.909,13 L20.633,13 L23.224,10.841 L22.356,6.5 Z M17.995,2.5 L11.995,2.5 L11.995,4.5 L17.995,4.5 L17.995,2.5 Z" id="Combined-Shape"></path>
            </g>
        </g>
    </g>
</svg>